<svg xmlns="http://www.w3.org/2000/svg">
  <defs>
    <symbol id="icon-sleeping" viewBox="0 0 512 512" >
      <svg version="1.1" xmlns="http://www.w3.org/2000/svg" width="512" height="512">
        <path d="M0 0 C5.27992721 3.09252879 8.16335377 7.37179269 10.078125 13.10546875 C11.77136718 20.82064481 8.81118706 27.58375266 6.00708008 34.65649414 C-8.8277274 72.97422295 -6.16038448 116.57196743 9.68798828 154.0715332 C16.57680944 169.64409819 25.43622939 185.18622939 37.5625 197.3125 C42.10584103 196.89904187 46.33049741 195.01423118 50.56640625 193.40625 C51.32670639 193.12148804 52.08700653 192.83672607 52.87034607 192.54333496 C55.28993095 191.63664861 57.7075866 190.7249586 60.125 189.8125 C62.54619031 188.90061376 64.96778732 187.98985777 67.3903656 187.08166504 C68.89485689 186.51746459 70.3985266 185.95106717 71.90126038 185.38220215 C82.32450683 181.46801021 94.57454471 180.36714717 105.26171875 184.2109375 C115.58290326 189.15248934 124.67439785 197.34397197 128.5625 208.3125 C128.81418077 209.88981886 129.01483603 211.47612028 129.1640625 213.06640625 C129.24221191 213.86506104 129.32036133 214.66371582 129.40087891 215.48657227 C129.45421387 216.08912842 129.50754883 216.69168457 129.5625 217.3125 C130.53372803 217.29155273 131.50495605 217.27060547 132.50561523 217.24902344 C136.19767807 217.17521845 139.88967998 217.13020471 143.58227539 217.09277344 C145.16376801 217.07297084 146.7451907 217.04592109 148.32641602 217.01074219 C162.65169455 216.70061199 177.04610196 217.99864918 189.875 225 C190.52106201 225.33668701 191.16712402 225.67337402 191.83276367 226.02026367 C199.41989325 230.10434563 206.51460931 235.15982723 212.5625 241.3125 C219.83663187 239.41490038 226.25697957 236.73187914 232.875 233.1875 C233.78854248 232.70539063 234.70208496 232.22328125 235.64331055 231.7265625 C240.95063362 228.8752305 245.98993416 225.83625097 250.875 222.3125 C257.86881382 217.29637132 263.28889117 214.41489135 272.1015625 215.67578125 C277.72516654 217.13077722 281.45856302 219.89719618 285 224.4375 C288.3620448 230.62366242 288.73222497 236.60882696 287.03222656 243.44482422 C277.7128054 274.95302505 259.74673978 304.12826022 236.5625 327.3125 C236.45164993 330.22112179 236.40085256 333.10999993 236.38671875 336.01953125 C236.36351736 337.82097519 236.33939989 339.62240751 236.31445312 341.42382812 C236.27933755 344.27457396 236.2500005 347.12489433 236.23657227 349.97583008 C236.22110291 352.72009337 236.18089491 355.46309962 236.13671875 358.20703125 C236.13862717 359.05820023 236.14053558 359.9093692 236.14250183 360.78633118 C236.02006664 366.70580183 236.02006664 366.70580183 233.65161133 369.84619141 C231.40270894 371.42465439 230.28436454 371.88031614 227.5625 371.875 C226.9025 371.89691406 226.2425 371.91882813 225.5625 371.94140625 C222.38658761 370.94273068 221.35612029 369.05904213 219.5625 366.3125 C219.07043457 362.9269104 219.07043457 362.9269104 219.08007812 359.00634766 C219.07616562 358.28844055 219.07225311 357.57053345 219.06822205 356.83087158 C219.06225983 355.27640279 219.06539406 353.72187802 219.0766449 352.16743851 C219.0939882 349.69257134 219.08635156 347.21886459 219.0723877 344.74398804 C219.0428078 338.58984187 219.0558267 332.43591889 219.06756592 326.28173828 C219.07584311 321.08989897 219.06751072 315.89856694 219.03843689 310.70679855 C219.03144703 308.29455889 219.0478958 305.88326482 219.06555176 303.47109985 C219.06197887 283.85783757 213.29035884 266.77697565 199.5625 252.3125 C184.3874806 237.72804819 166.6101375 233.93173751 146.3125 233.625 C144.77731628 233.59173931 143.24215884 233.55724197 141.70703125 233.52148438 C137.99238088 233.43760038 134.27765825 233.37032969 130.5625 233.3125 C130.57360306 234.05308151 130.58470612 234.79366302 130.59614563 235.5566864 C130.69644258 242.54515679 130.77251306 249.53351923 130.82156086 256.52252483 C130.84762544 260.1155086 130.88296329 263.70789636 130.93969727 267.30053711 C130.99413335 270.76948186 131.02394416 274.23785439 131.03688622 277.70719337 C131.05058449 279.67101051 131.08960018 281.63459825 131.12898254 283.59806824 C131.1321074 293.53450082 131.1321074 293.53450082 128.25463867 296.62817383 C124.71253335 298.84427835 122.66727694 298.98419077 118.5625 298.3125 C116.37780762 296.72511292 116.37780762 296.72511292 114.5625 294.3125 C114.07043457 291.05821228 114.07043457 291.05821228 114.08007812 287.14819336 C114.07616562 286.43376068 114.07225311 285.719328 114.06822205 284.98324585 C114.06225251 283.43420734 114.06540734 281.88511269 114.0766449 280.33610344 C114.09394209 277.87501294 114.08637796 275.4150939 114.0723877 272.95399475 C114.0427643 266.83653572 114.05586333 260.71930051 114.06756592 254.60180664 C114.07581508 249.43902532 114.06762926 244.27675544 114.03843689 239.1140461 C114.03140683 236.7060615 114.0479453 234.29900905 114.06555176 231.89109802 C114.06503409 222.75835267 113.9413365 213.3193169 107.61999512 206.09141541 C101.37121156 200.13714095 95.516042 198.90879666 87.06591797 198.94897461 C80.48327639 199.63200968 74.56232218 202.30115258 68.5 204.8125 C66.5450574 205.60257543 64.58794114 206.38677949 62.62879944 207.16638184 C60.87319726 207.86794557 59.12377098 208.58490654 57.37475586 209.30273438 C54.5625 210.3125 54.5625 210.3125 51.5625 210.3125 C54.22588152 213.05659005 56.8732264 215.56912817 59.875 217.9375 C71.03485944 227.46836035 76.87615565 240.9856625 78.5625 255.3125 C78.93577594 262.2822045 78.82270369 269.27303119 78.80200195 276.25 C78.80311615 278.36495532 78.80517602 280.47991031 78.80810547 282.59486389 C78.81280989 287.13024628 78.81172647 291.66557681 78.80632973 296.20095825 C78.79870093 303.36895462 78.80939466 310.53685169 78.8235321 317.70483398 C78.86122459 338.08073352 78.87942534 358.45658666 78.86791992 378.83251953 C78.86171443 390.10025431 78.87322144 401.36782781 78.90436524 412.63552284 C78.92306174 419.76588509 78.91966275 426.89579192 78.90019763 434.02614689 C78.89333924 438.45022817 78.9072253 442.87405962 78.92714691 447.2980938 C78.93221342 449.35446323 78.92866009 451.41087398 78.91601372 453.46721077 C78.90001559 456.26660419 78.91444785 459.06421406 78.9367218 461.86352539 C78.9246843 462.68383743 78.91264681 463.50414948 78.90024453 464.34931946 C78.88439071 466.86844826 78.88439071 466.86844826 79.5625 470.3125 C83.51998429 473.74859909 87.46634776 473.73986181 92.50390625 473.67578125 C93.26742905 473.67627975 94.03095184 473.67677826 94.81761169 473.67729187 C96.43222659 473.67495702 98.04684551 473.66526323 99.66137695 473.64868164 C102.09295514 473.62530803 104.52341767 473.62809813 106.95507812 473.63476562 C123.61701204 473.60530948 138.05042094 471.89400121 151 460.4375 C157.30314523 453.99397291 162.66636695 443.42540565 162.70053101 434.29652405 C162.70871101 433.11271904 162.70871101 433.11271904 162.71705627 431.90499878 C162.7180986 431.04826569 162.71914093 430.19153259 162.72021484 429.30883789 C162.72529556 428.39944962 162.73037628 427.49006134 162.73561096 426.55311584 C162.74630324 424.58008344 162.75492789 422.60703899 162.76173019 420.63398933 C162.77352811 417.51117252 162.79298234 414.38849343 162.81484985 411.26573181 C162.87644342 402.3875689 162.93054633 393.50942117 162.96386719 384.63110352 C162.98480151 379.19935012 163.02009192 373.7678497 163.06462479 368.33624077 C163.07879145 366.2666261 163.08750872 364.19696671 163.09067917 362.12730598 C163.09558297 359.23311971 163.11872648 356.33960637 163.14599609 353.44555664 C163.14298996 352.59084778 163.13998383 351.73613892 163.1368866 350.85552979 C163.20210415 346.19909117 163.52999676 343.08980271 166.5625 339.3125 C169.65423752 337.76663124 172.15679552 338.01890479 175.5625 338.3125 C178.50977303 340.47448823 179.45703623 341.65767719 180.04351807 345.2991333 C180.03463562 346.46273376 180.02575317 347.62633423 180.01660156 348.82519531 C180.01718567 349.46951508 180.01776978 350.11383484 180.01837158 350.77767944 C180.01559334 352.89921677 179.98451774 355.01933436 179.953125 357.140625 C179.94566159 358.61463656 179.93996912 360.08865806 179.93597412 361.56268311 C179.9207254 365.43615267 179.88145107 369.30901916 179.8371582 373.18225098 C179.79618852 377.13704267 179.77795954 381.09193212 179.7578125 385.046875 C179.71495528 392.80235782 179.64671422 400.5573443 179.5625 408.3125 C182.12313875 408.19292318 184.68245261 408.06247695 187.2421875 407.92578125 C188.32246216 407.87701843 188.32246216 407.87701843 189.42456055 407.82727051 C195.15540077 407.50816319 199.60461742 406.28295551 204.5625 403.3125 C206.109375 402.4771875 206.109375 402.4771875 207.6875 401.625 C210.42693932 399.42153794 212.01827396 397.4458534 214.0625 394.625 C217.17080983 390.46917607 217.17080983 390.46917607 220.6875 389.0625 C224.12331407 389.36126644 225.85050806 390.20317294 228.5625 392.3125 C230.62034882 395.39927323 231.00851737 396.62969865 230.34765625 400.22265625 C226.80570428 409.65023985 217.64962717 416.44385386 208.84375 420.59375 C203.65274115 422.73122423 198.89034797 424.45055606 193.234375 424.41015625 C192.43515625 424.40693359 191.6359375 424.40371094 190.8125 424.40039062 C189.9875 424.39201172 189.1625 424.38363281 188.3125 424.375 C187.47203125 424.37048828 186.6315625 424.36597656 185.765625 424.36132812 C183.69788599 424.34957961 181.63018376 424.33164522 179.5625 424.3125 C179.60890625 425.30507813 179.6553125 426.29765625 179.703125 427.3203125 C180.24334067 443.8924038 175.88131244 459.11547397 164.40625 471.59765625 C150.62167418 484.41847995 136.85816092 489.61064856 118.3359375 489.6484375 C117.18888336 489.6550943 116.04182922 489.6617511 114.86001587 489.66860962 C112.4480346 489.67868648 110.03602573 489.68342819 107.62402344 489.68310547 C103.9415926 489.68749512 100.26034561 489.72391462 96.578125 489.76171875 C94.22656657 489.76758468 91.87500249 489.77155557 89.5234375 489.7734375 C88.42848969 489.78780853 87.33354187 489.80217957 86.20541382 489.81698608 C78.73830163 489.77244309 74.23824368 488.71237651 68.63671875 483.53125 C68.17910156 482.9640625 67.72148437 482.396875 67.25 481.8125 C66.77949219 481.2453125 66.30898437 480.678125 65.82421875 480.09375 C62.54904259 475.46997189 62.28389408 471.65123787 62.33544922 466.05566406 C62.33515717 465.22602646 62.33486511 464.39638885 62.33456421 463.54161072 C62.3359558 460.80367518 62.35150896 458.06601291 62.3671875 455.328125 C62.37091824 453.42812244 62.37376492 451.52811796 62.37576294 449.62811279 C62.38339461 444.63037798 62.40303915 439.63275964 62.4251709 434.6350708 C62.44563933 429.53407364 62.45476679 424.43305765 62.46484375 419.33203125 C62.48628543 409.32546969 62.52041581 399.31899454 62.5625 389.3125 C61.26267685 389.11130051 59.9628537 388.91010101 58.62364197 388.70280457 C56.89873859 388.43371568 55.17385026 388.16453028 53.44897461 387.89526367 C52.59457542 387.76327324 51.74017624 387.63128281 50.85988617 387.49529266 C44.52898363 386.50415276 38.31801268 385.28458823 32.125 383.625 C31.16529297 383.3686377 30.20558594 383.11227539 29.21679688 382.84814453 C-12.94805253 371.16734166 -51.73519059 344.97946377 -78.4375 310.3125 C-79.06108398 309.51948486 -79.06108398 309.51948486 -79.69726562 308.71044922 C-92.89184985 291.86536336 -102.72494324 273.22862741 -110.4375 253.3125 C-110.69611816 252.64589355 -110.95473633 251.97928711 -111.22119141 251.29248047 C-114.2196873 243.38168777 -116.26886865 235.28845936 -118.1875 227.0625 C-118.50412598 225.71393921 -118.50412598 225.71393921 -118.82714844 224.33813477 C-122.50434988 207.85261877 -122.50434988 207.85261877 -120.125 202.1875 C-117.92040393 199.73794881 -116.91559735 199.36562193 -113.625 199 C-109.60918301 199.39370755 -108.29509336 200.50848833 -105.4375 203.3125 C-104.44604492 206.0637207 -104.44604492 206.0637207 -103.91796875 209.23828125 C-103.70479004 210.41624268 -103.49161133 211.5942041 -103.27197266 212.80786133 C-103.05847168 214.06751709 -102.8449707 215.32717285 -102.625 216.625 C-98.96637394 236.02874157 -92.97005857 253.98954011 -83.4375 271.3125 C-82.95845215 272.20606201 -82.95845215 272.20606201 -82.46972656 273.11767578 C-58.10038064 318.52877673 -15.83583189 350.94963614 33.04161072 366.24029541 C39.35362763 368.09486925 45.68959654 369.3619208 52.16796875 370.484375 C53.17355835 370.66274902 54.17914795 370.84112305 55.21520996 371.02490234 C57.66356011 371.45854772 60.11260847 371.8876654 62.5625 372.3125 C62.4784132 357.49098195 62.38321188 342.66956957 62.27497292 327.84820747 C62.22496549 320.96555909 62.17852181 314.08292191 62.140625 307.20019531 C62.10402103 300.55412249 62.05727764 293.90817005 62.00443649 287.26220322 C61.98594871 284.73060189 61.97082019 282.19897366 61.95915604 279.6673317 C61.94219747 276.11288918 61.91313901 272.55873117 61.88134766 269.00439453 C61.87918747 267.96501236 61.87702728 266.92563019 61.87480164 265.85475159 C61.73084066 253.1992376 59.49724179 242.08526166 50.4375 232.75 C47.21958408 229.70172709 43.85496262 226.92944404 40.375 224.1875 C6.58428617 196.96588998 -14.52745001 153.19541243 -19.6875 110.625 C-22.85965914 80.70096545 -19.22258965 50.10891445 -7.44140625 22.32421875 C-6.44760122 19.34280367 -6.24850489 18.16186697 -7.4375 15.3125 C-14.37052167 14.63426962 -19.10763919 19.42640443 -24.4375 23.3125 C-24.97503906 23.7029248 -25.51257813 24.09334961 -26.06640625 24.49560547 C-34.36245802 30.57521208 -41.99794841 37.21921809 -49.4375 44.3125 C-50.21738281 45.03953125 -50.99726562 45.7665625 -51.80078125 46.515625 C-85.05705634 78.4132956 -104.417344 126.2422531 -106.03125 171.90234375 C-106.53852628 174.91185786 -107.68080823 176.83677018 -109.4375 179.3125 C-112.52923752 180.85836876 -115.03179552 180.60609521 -118.4375 180.3125 C-121.39444223 178.15530015 -122.32781515 176.93431629 -122.96875 173.30078125 C-122.53875002 122.7220336 -100.62968765 73.15566482 -65.89697266 36.83935547 C-64.91241573 35.80934225 -63.9330186 34.77437541 -62.95849609 33.73486328 C-49.67241613 19.5977177 -21.27717604 -9.91868357 0 0 Z M263.21484375 233.05859375 C261.96478137 233.93923923 260.72704552 234.83755729 259.5 235.75 C258.15533087 236.6951103 256.80895758 237.63780038 255.4609375 238.578125 C254.79803711 239.04669922 254.13513672 239.51527344 253.45214844 239.99804688 C244.13081157 246.48203624 233.98746777 250.95994366 223.5625 255.3125 C224.6237738 258.03931355 225.74499495 260.71053217 226.96484375 263.37109375 C232.87787542 276.38578178 234.9853019 289.10148473 235.5625 303.3125 C251.36874293 288.19588372 270.39160876 257.43705693 271.75 235.25 C271.688125 234.610625 271.62625 233.97125 271.5625 233.3125 C267.97862758 231.08873096 267.0411103 231.06286312 263.21484375 233.05859375 Z " fill="#000000" transform="translate(173.4375,22.6875)"/>
        <path d="M0 0 C0.77916779 -0.00619858 1.55833557 -0.01239716 2.3611145 -0.01878357 C4.0068436 -0.02587554 5.65264453 -0.02271846 7.29833984 -0.01000977 C9.80571997 0.00382573 12.30934307 -0.0301795 14.81640625 -0.06835938 C16.41927174 -0.06931097 18.02214187 -0.06744958 19.625 -0.0625 C20.74091019 -0.08238731 20.74091019 -0.08238731 21.87936401 -0.10267639 C25.7614285 -0.03389563 28.36675406 0.50648478 31.38720703 2.87915039 C34.00640103 5.63057894 35.1011531 7.45551902 35.30908203 11.28881836 C33.92975141 19.92490919 26.4832729 28.64379672 21.8203125 35.87890625 C20.90958984 37.30299805 20.90958984 37.30299805 19.98046875 38.75585938 C17.01226449 43.38923269 14.01874345 48.00213193 10.9453125 52.56640625 C11.59081055 52.57051514 12.23630859 52.57462402 12.90136719 52.57885742 C15.83360578 52.61180688 18.76377007 52.6824499 21.6953125 52.75390625 C22.71109375 52.75970703 23.726875 52.76550781 24.7734375 52.77148438 C32.27823854 52.99366598 32.27823854 52.99366598 35.65234375 55.890625 C37.42188038 59.552657 37.02096803 61.69404634 35.9453125 65.56640625 C34.36645284 67.62578841 33.25388827 68.41211836 30.9453125 69.56640625 C28.52298957 69.68926287 26.13049194 69.75472956 23.70703125 69.76953125 C22.63035942 69.77808136 22.63035942 69.77808136 21.53193665 69.7868042 C20.01129633 69.79625577 18.49063551 69.80278881 16.9699707 69.80664062 C14.65213861 69.8163255 12.33520125 69.84733705 10.01757812 69.87890625 C8.53906776 69.88543862 7.06055105 69.89068817 5.58203125 69.89453125 C4.89227707 69.90687805 4.20252289 69.91922485 3.49186707 69.9319458 C-1.88231935 69.90727895 -4.98444003 68.49387803 -8.8671875 64.87890625 C-10.62942239 61.44718568 -10.65629247 58.29843017 -10.0546875 54.56640625 C-8.62880929 51.19452045 -6.72388302 48.19987011 -4.7421875 45.12890625 C-4.2069043 44.26942383 -3.67162109 43.40994141 -3.12011719 42.52441406 C-1.45158331 39.85848295 0.24311777 37.21094851 1.9453125 34.56640625 C2.48913574 33.71481934 3.03295898 32.86323242 3.59326172 31.98583984 C6.67796053 27.15757465 9.79582233 22.35263934 12.9453125 17.56640625 C12.07579956 17.5523877 12.07579956 17.5523877 11.1887207 17.53808594 C8.54424304 17.48416555 5.90149357 17.40056496 3.2578125 17.31640625 C2.34580078 17.30222656 1.43378906 17.28804687 0.49414062 17.2734375 C-3.75144909 17.11905242 -6.43239344 16.92602342 -10.1640625 14.76953125 C-12.16207611 12.44126746 -12.71728204 11.58101815 -12.6171875 8.56640625 C-12.61847656 7.90640625 -12.61976563 7.24640625 -12.62109375 6.56640625 C-10.81782816 0.19901326 -5.74341552 -0.03808426 0 0 Z " fill="#000000" transform="translate(310.0546875,113.43359375)"/>
        <path d="M0 0 C1.14113754 -0.00642769 1.14113754 -0.00642769 2.30532837 -0.01298523 C3.91415411 -0.01872522 5.52300581 -0.01923121 7.13183594 -0.01489258 C9.58574083 -0.01173908 12.03843223 -0.03517169 14.4921875 -0.06054688 C16.05729015 -0.06282066 17.62239603 -0.063523 19.1875 -0.0625 C20.28304703 -0.07631462 20.28304703 -0.07631462 21.40072632 -0.09040833 C25.85682509 -0.05022085 28.69931574 0.5342416 32.2265625 3.30078125 C34.95629461 7.39537942 34.99385858 10.49125996 34.2265625 15.30078125 C32.82626003 18.71817756 30.92721309 21.71296893 28.9140625 24.80078125 C28.3787793 25.65575195 27.84349609 26.51072266 27.29199219 27.39160156 C25.62454786 30.04208413 23.92870034 32.67247298 22.2265625 35.30078125 C21.14398058 36.99313745 20.06193264 38.68583538 18.98046875 40.37890625 C16.420978 44.36967238 13.83267046 48.34031797 11.2265625 52.30078125 C12.14937012 52.3147998 12.14937012 52.3147998 13.09082031 52.32910156 C15.88687336 52.3828921 18.6812687 52.46651944 21.4765625 52.55078125 C22.44464844 52.56496094 23.41273438 52.57914063 24.41015625 52.59375 C31.59294519 52.84143238 31.59294519 52.84143238 34.83984375 55.1953125 C36.50160463 57.71838043 37.15256975 59.26707867 37.2265625 62.30078125 C35.60500621 65.78712726 34.46202958 67.14380319 31.2265625 69.30078125 C28.68320499 69.52027472 26.25188349 69.62873464 23.70703125 69.63671875 C22.60274529 69.64670395 22.60274529 69.64670395 21.47615051 69.65689087 C19.91861465 69.66701056 18.3610355 69.6717081 16.8034668 69.67138672 C14.43269327 69.67574698 12.06380192 69.71203347 9.69335938 69.75 C8.17708967 69.75587115 6.66081116 69.75983855 5.14453125 69.76171875 C4.44120163 69.77608978 3.73787201 69.79046082 3.01322937 69.80526733 C-2.03017634 69.75898818 -4.8919657 68.46958575 -8.7734375 65.30078125 C-10.54152759 61.76460107 -10.32667532 58.15926038 -9.7734375 54.30078125 C-8.38008949 50.88068023 -6.47391391 47.88832643 -4.4609375 44.80078125 C-3.9256543 43.94581055 -3.39037109 43.09083984 -2.83886719 42.20996094 C-1.17142286 39.55947837 0.52442466 36.92908952 2.2265625 34.30078125 C3.30914442 32.60842505 4.39119236 30.91572712 5.47265625 29.22265625 C8.032147 25.23189012 10.62045454 21.26124453 13.2265625 17.30078125 C12.30375488 17.2867627 12.30375488 17.2867627 11.36230469 17.27246094 C8.56625164 17.2186704 5.7718563 17.13504306 2.9765625 17.05078125 C2.00847656 17.03660156 1.04039062 17.02242187 0.04296875 17.0078125 C-7.1388257 16.76016442 -7.1388257 16.76016442 -10.390625 14.40625 C-12.03299313 11.90558215 -12.62736244 10.29531998 -12.7734375 7.30078125 C-10.79528438 0.21239924 -6.60950048 -0.0082024 0 0 Z " fill="#000000" transform="translate(398.7734375,49.69921875)"/>
        <path d="M0 0 C0.80515045 -0.00524185 1.6103009 -0.0104837 2.43984985 -0.0158844 C4.14283089 -0.0223058 5.84585627 -0.02096603 7.54882812 -0.01245117 C10.14794521 -0.00395891 12.74485112 -0.03266909 15.34375 -0.06445312 C16.99999934 -0.06606576 18.65625256 -0.06548641 20.3125 -0.0625 C21.08661224 -0.07373398 21.86072449 -0.08496796 22.65829468 -0.09654236 C26.40969207 -0.04838123 28.56973185 0.29270891 31.75634766 2.33959961 C34.46157814 5.1263834 34.74416181 6.03126578 35.18359375 9.96875 C35.1001325 15.50086051 32.40283616 19.33635035 29.4765625 23.87109375 C28.9412793 24.73057617 28.40599609 25.59005859 27.85449219 26.47558594 C26.18595831 29.14151705 24.49125723 31.78905149 22.7890625 34.43359375 C22.24523926 35.28518066 21.70141602 36.13676758 21.14111328 37.01416016 C18.05641447 41.84242535 14.93855267 46.64736066 11.7890625 51.43359375 C13.75939453 51.48966797 13.75939453 51.48966797 15.76953125 51.546875 C17.50523614 51.61255032 19.24091197 51.67899712 20.9765625 51.74609375 C21.84087891 51.76865234 22.70519531 51.79121094 23.59570312 51.81445312 C28.41250353 52.01746004 31.89926957 52.27654738 35.7890625 55.43359375 C37.33493126 58.52533127 37.08265771 61.02788927 36.7890625 64.43359375 C35.28881836 66.62475586 35.28881836 66.62475586 32.7890625 68.43359375 C29.89041491 68.84361155 27.37835068 69.01859395 24.48046875 69 C23.67673325 69.00619858 22.87299774 69.01239716 22.04490662 69.01878357 C20.34790252 69.02587574 18.65082876 69.02271815 16.95385742 69.01000977 C14.36311132 68.99615551 11.77598726 69.03020312 9.18554688 69.06835938 C7.53385329 69.06931076 5.88215519 69.06745071 4.23046875 69.0625 C3.45949356 69.07575821 2.68851837 69.08901642 1.8941803 69.10267639 C-2.16951225 69.03266656 -3.98431594 68.61811912 -7.17602539 66.01928711 C-9.90820062 62.5476053 -10.2156485 62.03012468 -10.1796875 57.4765625 C-9.39749943 51.28217755 -6.15522668 46.81771831 -2.7109375 41.74609375 C-2.08106934 40.78944824 -1.45120117 39.83280273 -0.80224609 38.84716797 C0.46023144 36.9307174 1.72916451 35.01850206 3.00488281 33.11083984 C5.43969195 29.45729345 7.80334478 25.76022664 10.1640625 22.05859375 C11.37184411 20.18323831 12.57992568 18.3080757 13.7890625 16.43359375 C13.14356445 16.42948486 12.49806641 16.42537598 11.83300781 16.42114258 C8.90076922 16.38819312 5.97060493 16.3175501 3.0390625 16.24609375 C2.02328125 16.24029297 1.0075 16.23449219 -0.0390625 16.22851562 C-7.54386354 16.00633402 -7.54386354 16.00633402 -10.91796875 13.109375 C-12.68750538 9.447343 -12.28659303 7.30595366 -11.2109375 3.43359375 C-8.63908137 -0.70888447 -4.3727466 -0.01649634 0 0 Z " fill="#000000" transform="translate(267.2109375,-0.43359375)"/>
      </svg>
    <symbol>

    <symbol id="icon-interruptions" viewBox="0 0 512 512">
      <svg version="1.1" xmlns="http://www.w3.org/2000/svg" width="512" height="512">
<path d="M0 0 C2.85490153 0.00850831 5.70779497 -0.02033211 8.5625 -0.05200195 C27.01014029 -0.12366176 42.71208058 3.37849819 56.3671875 16.75854492 C62.59140259 23.29711431 66.79604754 29.83579151 69.4921875 38.44604492 C70.7503125 38.10831055 72.0084375 37.77057617 73.3046875 37.42260742 C105.19673325 29.02616697 137.81546436 28.86030843 169.4921875 38.44604492 C169.91177734 37.10606445 169.91177734 37.10606445 170.33984375 35.73901367 C174.87012919 22.79314713 185.14884508 12.27963875 197.20336914 5.99804688 C209.019269 0.42209294 220.26075212 -0.19098176 233.09594727 -0.07543945 C235.92226191 -0.05401138 238.74602817 -0.07533093 241.57226562 -0.10083008 C262.00151136 -0.13426217 279.12957812 4.54296872 294.25 19.04370117 C306.52258769 32.19290227 312.78487279 47.07175853 312.828125 64.93041992 C312.8347818 65.9078717 312.8414386 66.88532349 312.84829712 67.89239502 C312.85836621 69.94964737 312.86311593 72.00693201 312.86279297 74.06420898 C312.86715631 77.1738198 312.90351124 80.28199779 312.94140625 83.39135742 C313.05076458 102.6157806 309.37323819 116.71412302 295.92578125 131.11401367 C290.39917678 136.40997334 284.8406933 140.23404896 277.4921875 142.44604492 C277.66347168 143.10499756 277.83475586 143.7639502 278.01123047 144.44287109 C290.21318095 191.62347166 289.0326711 238.19530686 264.18041992 281.42724609 C257.97324947 291.86945411 250.69246272 301.48111381 242.4921875 310.44604492 C243.95425525 314.44405191 245.86702643 317.90555837 248.08984375 321.53198242 C248.4404184 322.10647125 248.79099304 322.68096008 249.15219116 323.27285767 C250.28296711 325.12435069 251.41885842 326.97264849 252.5546875 328.82104492 C253.33060246 330.0903055 254.10607361 331.35983748 254.88110352 332.62963867 C256.39883281 335.11584666 257.918 337.60116462 259.43847656 340.08569336 C261.95092322 344.19664388 264.44812641 348.3163913 266.9296875 352.44604492 C267.58839844 353.53916992 268.24710937 354.63229492 268.92578125 355.75854492 C272.31680404 361.57655908 273.36279232 365.6531777 272.4921875 372.44604492 C270.8046875 375.82104492 270.8046875 375.82104492 268.4921875 378.44604492 C267.8321875 379.22979492 267.1721875 380.01354492 266.4921875 380.82104492 C261.7596908 383.38448063 256.74715641 383.36583356 251.4921875 382.44604492 C246.54672574 379.86148199 243.92495781 376.66940738 241.1796875 371.94604492 C240.7787085 371.28475586 240.37772949 370.6234668 239.96459961 369.94213867 C238.45863928 367.45224035 236.97469221 364.94998414 235.4921875 362.44604492 C232.90837214 358.08457218 230.31527972 353.72888483 227.70889282 349.38085938 C226.56110828 347.45680819 225.42722919 345.52500441 224.29370117 343.5925293 C223.58050678 342.39751468 222.86674602 341.20283784 222.15234375 340.00854492 C221.51949463 338.93733398 220.88664551 337.86612305 220.23461914 336.76245117 C219.37211548 335.61583008 219.37211548 335.61583008 218.4921875 334.44604492 C214.45321687 334.44604492 212.93271921 336.02323038 209.6171875 338.32104492 C174.90119317 361.4681448 129.89315833 369.96695508 88.99658203 361.95727539 C64.47684992 356.85450801 42.14287085 347.82503925 21.4921875 333.44604492 C20.17670828 335.52754029 18.86461411 337.61105485 17.5546875 339.69604492 C16.91043823 340.71939941 16.91043823 340.71939941 16.25317383 341.76342773 C13.1792943 346.67363036 10.18203282 351.62497243 7.21875 356.60229492 C6.08387048 358.50031984 4.94834629 360.39795786 3.81271362 362.29553223 C3.06033447 363.5575562 2.31137969 364.82162828 1.56594849 366.08776855 C0.50174203 367.89473364 -0.57416803 369.69426489 -1.65234375 371.49291992 C-2.27471924 372.54318359 -2.89709473 373.59344727 -3.53833008 374.67553711 C-6.0031551 378.14285263 -8.69943814 380.54185774 -12.5078125 382.44604492 C-17.36581067 383.02841496 -22.35255212 383.5809762 -26.78515625 381.24682617 C-30.44486124 378.17514989 -32.82868711 375.12107317 -34.01953125 370.43041992 C-34.75153827 361.12579742 -29.20028757 353.99702411 -24.5078125 346.44604492 C-23.17844025 344.26972296 -21.85040881 342.09258164 -20.5234375 339.91479492 C-17.75713662 335.38464245 -14.97574186 330.86417191 -12.1796875 326.35229492 C-11.55384766 325.33522461 -10.92800781 324.3181543 -10.28320312 323.27026367 C-9.17073513 321.50059511 -8.02777595 319.74934474 -6.84179688 318.02807617 C-5.23121196 315.74559547 -5.23121196 315.74559547 -3.5078125 312.44604492 C-4.85210107 308.78102151 -7.30933804 306.27766264 -9.8828125 303.38354492 C-37.75947693 270.8092036 -49.84946389 226.95443692 -46.8828125 184.63354492 C-45.74502137 170.17327333 -42.56813993 156.33762812 -38.5078125 142.44604492 C-39.38824219 142.18823242 -40.26867187 141.93041992 -41.17578125 141.66479492 C-54.89020924 136.6484977 -63.92944522 124.56629567 -70.09765625 111.93823242 C-73.09449896 104.51668843 -73.81637937 97.94519467 -73.80859375 90.02416992 C-73.81287888 89.04293152 -73.817164 88.06169312 -73.82157898 87.05072021 C-73.8272962 84.98328417 -73.82784189 82.91582803 -73.82348633 80.84838867 C-73.82033574 77.7191249 -73.84378646 74.5908165 -73.86914062 71.46166992 C-73.93629891 51.13157754 -70.04942759 34.52407979 -55.71679688 19.45751953 C-40.00562775 3.72744081 -21.42885075 -0.09723708 0 0 Z M-35.5078125 43.44604492 C-37.45018548 46.33724972 -39.03360398 49.29387548 -40.5078125 52.44604492 C-41.1265625 53.68354492 -41.1265625 53.68354492 -41.7578125 54.94604492 C-43.96106539 62.29022122 -43.69029586 70.28333694 -43.6953125 77.88354492 C-43.70755859 78.85614258 -43.71980469 79.82874023 -43.73242188 80.83081055 C-43.75340557 91.30167457 -42.73432617 100.42674916 -35.5078125 108.44604492 C-32.69853674 110.81427397 -29.88455268 112.96671113 -26.5078125 114.44604492 C-22.46999196 113.10010474 -21.41035778 110.48233187 -19.3203125 107.00854492 C-15.43903064 100.78366906 -11.3049358 95.01210602 -6.5078125 89.44604492 C-5.68667969 88.49084961 -4.86554688 87.5356543 -4.01953125 86.55151367 C8.73627164 72.03338049 24.03200079 61.37891621 40.4921875 51.44604492 C39.30596527 44.54967451 35.74379077 40.40478746 30.6640625 35.84057617 C24.79985668 32.07524977 19.06943578 30.97923131 12.2578125 30.97729492 C11.49853455 30.9696814 10.73925659 30.96206787 9.95697021 30.95422363 C8.36034403 30.9434907 6.76364803 30.94054159 5.16699219 30.94506836 C2.76113814 30.94603729 0.35851739 30.90441469 -2.046875 30.86010742 C-14.99118945 30.75946128 -26.65451474 33.13431528 -35.5078125 43.44604492 Z M201.4921875 42.44604492 C199.49373516 45.79828756 198.4921875 47.55780126 198.4921875 51.44604492 C200.85900298 53.10190428 203.18817666 54.5634968 205.6796875 56.00854492 C229.08577845 70.13670925 246.80717258 88.5132819 261.4921875 111.44604492 C262.4821875 112.93104492 262.4821875 112.93104492 263.4921875 114.44604492 C269.95969175 112.86860486 274.43288103 109.65941003 278.01171875 104.07495117 C284.92124662 90.99264625 284.30213725 71.31278435 281.3046875 57.01245117 C278.22207174 47.27553503 272.94116196 40.12884483 264.07714844 35.06689453 C255.58534546 31.07580798 247.95551044 30.70244123 238.75537109 30.84912109 C236.363068 30.8836043 233.97444161 30.86967886 231.58203125 30.8503418 C219.40953853 30.8607669 209.41993171 32.27210652 201.4921875 42.44604492 Z M31.4921875 94.44604492 C30.656875 95.11893555 29.8215625 95.79182617 28.9609375 96.48510742 C24.31376238 100.39945877 20.35980663 104.77090092 16.4921875 109.44604492 C15.85410156 110.1962793 15.21601563 110.94651367 14.55859375 111.71948242 C-1.54706545 131.12162158 -12.92484932 156.23763216 -15.5078125 181.44604492 C-15.64058594 182.67709961 -15.77335937 183.9081543 -15.91015625 185.17651367 C-19.06286631 219.71113373 -8.76457943 255.70701243 13.4921875 282.44604492 C16.40643664 285.86624009 19.40843242 289.17834655 22.4921875 292.44604492 C23.16507813 293.18338867 23.83796875 293.92073242 24.53125 294.68041992 C47.31788429 318.7472022 81.13759714 332.52285042 114.04296875 333.64916992 C152.43895114 334.27953374 187.06156894 320.93931525 214.89331055 294.44799805 C241.14478609 268.7023935 254.87710543 234.0253372 255.4921875 197.44604492 C255.23242703 160.81981822 240.15810256 127.00640246 214.6171875 101.07104492 C207.77979856 94.33004851 200.62987167 88.53237493 192.4921875 83.44604492 C191.57300537 82.865 191.57300537 82.865 190.63525391 82.2722168 C140.10998528 50.82506165 77.00579323 57.66218661 31.4921875 94.44604492 Z " fill="#000000" transform="translate(136.5078125,129.553955078125)"/>
<path d="M0 0 C4.61581142 2.18643699 6.72864085 4.49599804 9 9 C9.43359375 11.90234375 9.43359375 11.90234375 9.4375 14.9375 C9.45683594 15.93652344 9.47617187 16.93554688 9.49609375 17.96484375 C8.66756474 23.03387555 6.16978389 26.14243116 2.06738281 29.14990234 C0.95717773 29.78879395 -0.15302734 30.42768555 -1.296875 31.0859375 C-1.89050842 31.43258453 -2.48414185 31.77923157 -3.09576416 32.13638306 C-4.97335215 33.22888613 -6.86116987 34.30207505 -8.75 35.375 C-10.03327873 36.11723468 -11.31583901 36.86071298 -12.59765625 37.60546875 C-15.723597 39.41809348 -18.85899493 41.21357718 -22 43 C-20.91460937 43.53109375 -19.82921875 44.0621875 -18.7109375 44.609375 C-17.26551761 45.3226991 -15.82021111 46.03625301 -14.375 46.75 C-13.66214844 47.09804688 -12.94929688 47.44609375 -12.21484375 47.8046875 C0.36844001 54.0386079 0.36844001 54.0386079 3.37109375 60.78515625 C4.85923201 66.02599098 3.9201556 70.33598029 1.328125 75.0234375 C-1.28754275 78.36763016 -3.5637602 79.91281399 -7.25 82 C-7.88550781 82.36609375 -8.52101563 82.7321875 -9.17578125 83.109375 C-10.6212807 83.94155039 -12.0700804 84.76800981 -13.52148438 85.58984375 C-17.32362798 87.75308069 -21.09664617 89.96573206 -24.87329102 92.1730957 C-26.95586151 93.38992049 -29.03968305 94.60460669 -31.12475586 95.81713867 C-37.66422256 99.62096569 -44.17532536 103.46616519 -50.62304688 107.42382812 C-56.75869817 111.15762304 -61.91086655 111.70078826 -69 111 C-73.85390614 108.88193186 -76.26254688 105.95245744 -78.37109375 101.21484375 C-79.8528264 95.99656788 -78.9173126 91.69129511 -76.375 87.00390625 C-73.66593478 83.57747343 -70.75707416 81.64265829 -67 79.5625 C-66.34443115 79.18488525 -65.6888623 78.80727051 -65.01342773 78.41821289 C-63.6708439 77.64593878 -62.32504694 76.87922337 -60.97607422 76.11816406 C-57.98462414 74.4254483 -55.02617832 72.67835267 -52.0625 70.9375 C-50.37557202 69.95734817 -48.68830818 68.97777252 -47 68 C-47.92941406 67.54109375 -48.85882813 67.0821875 -49.81640625 66.609375 C-53.55386352 64.75831875 -57.27859119 62.88312253 -61 61 C-61.77472656 60.61070313 -62.54945313 60.22140625 -63.34765625 59.8203125 C-68.22974168 57.22368684 -71.24076422 54.27770735 -73 49 C-73.3663489 43.41317933 -73.29877014 39.74198207 -70 35 C-64.01207267 29.70490657 -56.92167153 25.91146273 -50 22 C-47.68401344 20.68771751 -45.36862146 19.3744829 -43.0546875 18.05859375 C-42.46912079 17.72613144 -41.88355408 17.39366913 -41.28024292 17.0511322 C-37.25948938 14.75541208 -33.31232994 12.36006966 -29.3828125 9.91015625 C-28.32964844 9.26369141 -27.27648437 8.61722656 -26.19140625 7.95117188 C-24.20439455 6.72732454 -22.22942252 5.48362126 -20.26953125 4.21679688 C-13.52158613 0.1078996 -7.88448056 -1.15415375 0 0 Z " fill="#000000" transform="translate(503,0)"/>
<path d="M0 0 C4.8694367 2.08690144 7.28588548 5.04269037 9.359375 9.8046875 C10.82740494 14.83537548 10.08650246 18.84391879 7.74609375 23.48828125 C5.94296156 26.42108662 4.0125871 29.20609659 2 32 C1.53577637 32.64469238 1.07155273 33.28938477 0.59326172 33.95361328 C-2.56773747 38.33014447 -5.77109113 42.6733789 -9 47 C-8.3702124 47.01458252 -7.7404248 47.02916504 -7.09155273 47.04418945 C-4.20628679 47.11918994 -1.32211277 47.21567639 1.5625 47.3125 C2.55314453 47.33505859 3.54378906 47.35761719 4.56445312 47.38085938 C11.55725906 47.63641042 17.21122776 48.13585554 22.3125 53.375 C25.53853098 58.39327041 26.33526779 61.65916876 25.60473633 67.53417969 C24.509334 72.00069704 21.88689236 75.34668125 19.1875 79 C18.31170288 80.23049072 18.31170288 80.23049072 17.41821289 81.48583984 C16.21125496 83.1790671 14.99694514 84.86707757 13.77539062 86.54980469 C11.62041045 89.52386699 9.51108446 92.52825957 7.40405273 95.53637695 C5.94076344 97.62035231 4.46552502 99.69543118 2.98828125 101.76953125 C0.88944555 104.72398745 -1.16854547 107.70282341 -3.20703125 110.69921875 C-3.7373999 111.47120605 -4.26776855 112.24319336 -4.81420898 113.03857422 C-5.8238106 114.50946887 -6.82521844 115.98603594 -7.81665039 117.46923828 C-11.35993292 122.60020422 -14.93477454 125.97825818 -21 128 C-26.25765945 128.39680449 -29.56102842 127.89498146 -34 125 C-38.24112956 121.04161241 -39.57594342 118.16035504 -40.25 112.44140625 C-39.49953432 105.11263986 -34.59750394 99.15893855 -30.5 93.3125 C-29.91863281 92.47138672 -29.33726562 91.63027344 -28.73828125 90.76367188 C-26.21815868 87.12765979 -23.67044092 83.52758878 -21 80 C-21.69037354 79.9906543 -22.38074707 79.98130859 -23.09204102 79.97167969 C-26.2495597 79.91767333 -29.40564488 79.83408531 -32.5625 79.75 C-34.19155273 79.72873047 -34.19155273 79.72873047 -35.85351562 79.70703125 C-42.41400883 79.50762416 -46.66890167 78.9231604 -52 75 C-55.46261032 70.96028796 -56.35356691 66.21932107 -56 61 C-53.63089076 52.44659261 -46.80943113 44.98639072 -41.62109375 37.94921875 C-37.27397789 32.04457376 -33.10032586 26.02166607 -28.93383789 19.98876953 C-13.79938287 -1.79747728 -13.79938287 -1.79747728 0 0 Z " fill="#000000" transform="translate(271,0)"/>
<path d="M0 0 C4.39649545 1.73501 8.26202724 4.10477581 12.25 6.625 C13.945256 7.6516195 15.64053086 8.6782098 17.33706665 9.70271301 C19.0763751 10.75758314 20.80846392 11.82360654 22.54003906 12.89111328 C25.90610027 14.95612845 29.31682405 16.93704523 32.7421875 18.90234375 C33.8156543 19.51835449 34.88912109 20.13436523 35.99511719 20.76904297 C38.02397187 21.93159886 40.05324316 23.09342812 42.08300781 24.25439453 C58.73279636 33.91498862 58.73279636 33.91498862 61 41 C61.75779615 46.39117835 61.07241136 50.39138296 58 55 C53.58605297 59.14844646 49.26990466 61.48452914 43.6875 63.75 C39.00971767 65.3730133 39.00971767 65.3730133 35 68 C36.15000488 68.64231567 36.15000488 68.64231567 37.32324219 69.29760742 C40.183184 70.90150542 43.03752987 72.51458152 45.88867188 74.1340332 C47.12030157 74.83110589 48.35400528 75.52452789 49.58984375 76.21411133 C51.37286153 77.20986924 53.14783984 78.21881349 54.921875 79.23046875 C56.52434082 80.13381958 56.52434082 80.13381958 58.15917969 81.05541992 C62.54627012 84.05844289 65.70008719 87.80034877 67 93 C67.10046539 99.01676087 65.99945992 103.33396343 62 108 C58.18068311 111.47210627 54.05747908 111.64726388 49.08398438 111.45410156 C45.78108657 110.96776607 43.7863065 110.0733226 40.91015625 108.41015625 C39.47736328 107.59260864 39.47736328 107.59260864 38.015625 106.75854492 C37.02046875 106.1782251 36.0253125 105.59790527 35 105 C34.01 104.43708252 33.02 103.87416504 32 103.29418945 C25.40941306 99.54595095 18.85714136 95.7310395 12.30419922 91.91748047 C9.21059108 90.12220943 6.10803928 88.3433911 3.00390625 86.56640625 C1.21038235 85.52439245 -0.58261905 84.48147859 -2.375 83.4375 C-3.60367798 82.74213135 -3.60367798 82.74213135 -4.85717773 82.03271484 C-10.18865047 78.89348007 -13.73814429 75.82500011 -15.75 69.7265625 C-16.34164959 64.75300816 -15.96156538 61.13830352 -13.40234375 56.76953125 C-9.27737964 51.56449297 -2.51581376 49.24042826 3.2890625 46.34765625 C4.25936401 45.86335144 4.25936401 45.86335144 5.24926758 45.3692627 C6.83261646 44.57905026 8.41627666 43.78946168 10 43 C9.20303711 42.5467334 8.40607422 42.0934668 7.58496094 41.62646484 C4.61142683 39.92649774 1.64562769 38.21435647 -1.31591797 36.49365234 C-2.59529361 35.75367517 -3.87749485 35.01855985 -5.16259766 34.28857422 C-7.01722329 33.23392675 -8.86073524 32.16178485 -10.703125 31.0859375 C-11.81333008 30.4470459 -12.92353516 29.8081543 -14.06738281 29.14990234 C-18.15474757 26.15345429 -20.63966304 23.03484404 -21.53125 18 C-21.46769754 11.89896359 -21.40861188 7.64691523 -17 3 C-11.47561289 -0.88209694 -6.56330384 -1.03351365 0 0 Z " fill="#000000" transform="translate(21,0)"/>
<path d="M0 0 C3.17757471 2.72363547 5.31211824 4.97913708 5.90289116 9.26690483 C6.02300671 11.78588401 6.04169017 14.28845588 6.02905273 16.81030273 C6.03591599 17.7669986 6.04277924 18.72369446 6.04985046 19.7093811 C6.06813159 22.86760353 6.06427899 26.02532983 6.05859375 29.18359375 C6.06315493 31.38167991 6.06846031 33.57976464 6.07447815 35.77784729 C6.08341186 40.38361404 6.08098309 44.98920743 6.07104492 49.5949707 C6.05955536 55.49429992 6.07976565 61.39303057 6.10896206 67.29228115 C6.12731696 71.83136287 6.12703297 76.37030096 6.12132454 80.90941048 C6.12117124 83.08429873 6.12722292 85.25919666 6.13961601 87.43404961 C6.15451027 90.47651485 6.14385984 93.51787193 6.12670898 96.56030273 C6.13637695 97.45659897 6.14604492 98.3528952 6.15600586 99.27635193 C6.05765461 107.6174246 2.34051934 111.7828643 -3.44726562 117.58105469 C-4.18465218 118.3236982 -4.18465218 118.3236982 -4.93693542 119.0813446 C-6.54674804 120.69988735 -8.16367883 122.31108898 -9.78125 123.921875 C-10.90967538 125.0516491 -12.03780385 126.18171983 -13.16564941 127.31207275 C-15.52272471 129.67208713 -17.88335545 132.02847 -20.24658203 134.38232422 C-23.27298622 137.3973084 -26.29028738 140.42121839 -29.30500031 143.44788742 C-31.62967077 145.77978698 -33.95908619 148.10689958 -36.28996277 150.4325943 C-37.40458417 151.54588347 -38.51772714 152.66065491 -39.62934875 153.77693939 C-41.18235245 155.3350284 -42.74163402 156.88655244 -44.30273438 158.43652344 C-45.18779663 159.31999451 -46.07285889 160.20346558 -46.98474121 161.1137085 C-51.73516384 165.35939418 -55.45191363 165.68656428 -61.6796875 165.5703125 C-66.44241463 165.00430725 -69.11443406 162.6844371 -72.1875 159.1875 C-74.65196408 155.16653229 -75.0516461 150.84958242 -74.375 146.25 C-72.47456321 140.46495593 -68.82463728 138.12659029 -64.04785156 134.77833557 C-47.31943829 122.94010074 -27.37651918 107.71870796 -23.56782722 86.43919849 C-20.49803476 64.64437397 -21.91536209 41.87477601 -23.80639648 20.01878357 C-23.87078478 19.20082023 -23.93517307 18.38285688 -24.00151253 17.54010677 C-24.12331541 16.02719203 -24.26297241 14.51555239 -24.42480278 13.00639439 C-24.82850511 7.84364027 -23.620564 5.21612217 -20.375 1.25 C-14.00404984 -3.97499767 -7.04907965 -3.65507834 0 0 Z " fill="#000000" transform="translate(265.375,226.75)"/>
</svg>
    </symbol>

    <symbol id="icon-sleep-stages" viewBox = "0 0 512 512">
      <svg version="1.1" xmlns="http://www.w3.org/2000/svg" width="512" height="512">
      <path d="M0 0 C2.95399463 2.18214228 3.89620362 3.36265848 4.49219131 7.02220535 C4.48850414 8.21316189 4.48481697 9.40411842 4.48101807 10.63116455 C4.48443577 11.29611773 4.48785347 11.96107091 4.49137473 12.64617419 C4.49796027 14.87295401 4.47596861 17.09852669 4.45410156 19.32519531 C4.45297322 20.92182385 4.45360669 22.51845446 4.45587158 24.11508179 C4.45702018 28.44959901 4.43348744 32.78367429 4.40557575 37.11808872 C4.38058634 41.64777453 4.37822204 46.17747025 4.37347412 50.70721436 C4.3610371 59.28492623 4.32820568 67.86243442 4.28807616 76.44005656 C4.24338104 86.20535193 4.2213771 95.97065698 4.20129442 105.73602915 C4.15947367 125.82413316 4.0891075 145.91205375 4 166 C4.81431488 166.06162827 5.62862976 166.12325653 6.46762085 166.18675232 C8.07765488 166.31365196 8.07765488 166.31365196 9.72021484 166.44311523 C10.78202972 166.5253685 11.8438446 166.60762177 12.93783569 166.69236755 C16.97183425 167.09763282 20.73866497 167.93657374 24.625 169.0625 C25.37716797 169.27656494 26.12933594 169.49062988 26.90429688 169.71118164 C57.1659028 178.7488542 57.1659028 178.7488542 64 189 C64.41857482 192.83693587 64.54644269 195.11203064 62.5 198.4375 C59.02644856 200.60846965 55.945107 200.60401714 52 200 C48.79891317 198.73847916 45.90258712 197.04822792 42.9375 195.3125 C32.51899273 189.53593203 22.40458283 185.91279581 10.7512207 183.43530273 C9.48776321 183.1662059 8.22430573 182.89710907 6.92256165 182.61985779 C5.9581163 182.41530472 4.99367096 182.21075165 4 182 C3.92029735 198.69885066 3.89208103 215.39687616 3.92484188 232.09584904 C3.93885901 239.8498823 3.93614769 247.60323054 3.89379883 255.35717773 C3.85692167 262.11709486 3.85169296 268.87617661 3.88417059 275.63612932 C3.90026525 279.21452245 3.90071377 282.79134921 3.86323357 286.36961555 C3.82193925 290.36872055 3.85132464 294.36436137 3.88647461 298.36352539 C3.86346786 299.54460373 3.84046112 300.72568207 3.8167572 301.94255066 C3.89242613 308.11381121 3.89242613 308.11381121 6.95417976 313.26003838 C9.2286229 315.06207434 11.48000889 316.56670038 14 318 C14.60871917 318.3728264 15.21743834 318.74565279 15.84460354 319.12977695 C31.7232871 328.41658215 50.49877824 330.83292568 68.5 326.9375 C90.18001628 320.25230766 104.13970651 304.27855072 118.53051758 287.6640625 C119.6438848 286.40326984 120.81063364 285.18936636 122 284 C121.75641144 279.40979899 119.38813593 276.09630662 116.87890625 272.40625 C116.46011703 271.77827515 116.04132782 271.15030029 115.60984802 270.5032959 C114.72005888 269.17279702 113.82633048 267.84492529 112.92895508 266.51953125 C111.58960051 264.54005278 110.26353603 262.55221635 108.93945312 260.5625 C101.67871124 249.71317877 93.92171567 239.2932991 85.5 229.3125 C85.05350098 228.78197021 84.60700195 228.25144043 84.14697266 227.70483398 C80.34618623 223.2541064 76.23578826 219.25012342 71.8984375 215.31640625 C69.58680165 212.49583 69.17580217 210.61371119 69 207 C70.13779872 204.67268444 71.16840714 202.83159286 73 201 C76.97959268 200.44146068 79.57025129 200.09642085 83.02734375 202.28125 C85.11926528 204.1039143 87.06301518 206.01373768 89 208 C89.97259766 208.92039063 89.97259766 208.92039063 90.96484375 209.859375 C108.30207312 226.47565028 121.45332053 247.72186876 134 268 C137.97128431 266.18476645 140.45470549 263.60589546 143.3125 260.375 C143.80105469 259.83230469 144.28960937 259.28960937 144.79296875 258.73046875 C147.9391296 255.22641129 151.04081811 251.68367141 154.125 248.125 C157.01851009 244.84568857 159.99088359 241.63893288 162.953125 238.421875 C165.50555143 235.64505943 168.02983288 232.85019283 170.5 230 C173.9067735 226.0691075 177.43002785 222.24803427 180.953125 218.421875 C183.50555143 215.64505943 186.02983288 212.85019283 188.5 210 C191.9067735 206.0691075 195.43002785 202.24803427 198.953125 198.421875 C201.50555143 195.64505943 204.02983288 192.85019283 206.5 190 C223.22701276 170.78599734 241.259648 154.37985827 268 152 C284.33446118 151.05018842 299.08528335 152.81044736 314 160 C315.36898437 160.62841797 315.36898437 160.62841797 316.765625 161.26953125 C331.66053483 168.65315084 342.93204124 182.67124623 353.02734375 195.49609375 C359.48202279 203.6890626 366.20281858 211.67790527 372.83520508 219.72729492 C377.56976193 225.4743373 382.28963578 231.23310549 387 237 C389.335667 239.85897954 391.67165825 242.71743815 394.01953125 245.56640625 C395.14577302 246.95032859 396.25818334 248.34652927 397.32421875 249.77734375 C406.12352132 261.41712294 421.11639255 266.94667922 435 269 C449.95020174 270.72421455 465.43368663 265.19229555 477.1875 256.1875 C480.41344742 253.53617447 483.07652074 250.81456792 485.6875 247.5625 C488.10983963 244.67279131 488.89011375 244.03789181 492.625 242.75 C496 243 496 243 498.9375 244.4375 C501.18906185 247.23489503 501.92409315 249.11849245 501.65625 252.734375 C498.51620379 263.57501073 485.86890345 271.70587197 476.47265625 277.078125 C469.18133637 280.91311755 462.08915857 283.47719153 454 285 C452.865625 285.226875 451.73125 285.45375 450.5625 285.6875 C428.92048175 287.58592265 408.67930508 282.65689046 391.88671875 268.58984375 C384.82612408 262.25537249 379.09097726 254.93390999 373.30297852 247.46289062 C369.9248594 243.11766527 366.41460164 238.91090158 362.8125 234.75 C358.85762054 230.18081883 355.00195826 225.5621069 351.25390625 220.8203125 C347.62693165 216.28187981 343.91940626 211.80991972 340.21899414 207.33129883 C337.57887507 204.13506578 334.94089459 200.93833886 332.34375 197.70703125 C319.97871423 182.35660157 306.98560056 174.41135475 288 169 C288.02094727 170.09989258 288.04189453 171.19978516 288.06347656 172.33300781 C288.13593635 176.41799881 288.18182115 180.50293314 288.21972656 184.58837891 C288.2398285 186.35572872 288.26711472 188.12301213 288.30175781 189.89013672 C288.35034009 192.43213285 288.37298226 194.97324896 288.390625 197.515625 C288.41127014 198.30430969 288.43191528 199.09299438 288.45318604 199.90557861 C288.45463996 203.46896189 288.31134018 205.57071011 286.19042969 208.49511719 C282.93618818 210.7308667 280.85499496 210.60868341 277 210 C274.341693 208.02633904 272.33542472 206.45708458 271.56698608 203.11898804 C271.42156076 200.8685715 271.43748401 198.6718513 271.51171875 196.41796875 C271.51879349 195.60378983 271.52586823 194.7896109 271.53315735 193.95075989 C271.56104402 191.36205357 271.62376684 188.77554727 271.6875 186.1875 C271.7125905 184.42776572 271.73540236 182.66799737 271.75585938 180.90820312 C271.81085128 176.60462704 271.89708008 172.3026859 272 168 C244.85458033 174.94276258 229.6766676 188.40748821 211.57397461 209.19628906 C209.61340809 211.44301862 207.62355847 213.66203679 205.625 215.875 C204.86445313 216.71804687 204.10390625 217.56109375 203.3203125 218.4296875 C202.55460938 219.27789062 201.78890625 220.12609375 201 221 C199.49971321 222.66640851 197.99971128 224.33307353 196.5 226 C184.5 239.33333333 172.5 252.66666667 160.5 266 C159.76652344 266.81726563 159.03304687 267.63453125 158.27734375 268.4765625 C156.69527673 270.22959045 155.10338842 271.97378472 153.50390625 273.7109375 C152.29541016 275.02964844 152.29541016 275.02964844 151.0625 276.375 C150.33160156 277.16648437 149.60070312 277.95796875 148.84765625 278.7734375 C147.10840025 280.86936968 145.94598185 282.45895545 145 285 C145.50199772 286.87002582 145.50199772 286.87002582 146.71875 288.625 C147.14937744 289.32149658 147.58000488 290.01799316 148.02368164 290.7355957 C148.5108667 291.48284912 148.99805176 292.23010254 149.5 293 C150.24527954 294.17792114 150.24527954 294.17792114 151.00561523 295.37963867 C159.97363756 309.39485124 169.6317715 322.98681525 180 336 C180.75796875 336.95132812 181.5159375 337.90265625 182.296875 338.8828125 C211.11626163 374.55922561 246.19155077 399.32601288 292.765625 404.58984375 C315.53074534 406.66120499 338.51692394 405.10581135 360.4921875 398.76953125 C364.57372548 397.87413817 367.82931804 397.7257276 372 398 C375.44150865 400.43773529 376.762119 401.85817119 377.625 406 C376.76651734 410.12071675 375.2584296 411.34467305 372 414 C368.9926411 415.249908 365.92933188 415.94553644 362.75 416.625 C361.82960938 416.82955811 360.90921875 417.03411621 359.9609375 417.24487305 C336.40606639 422.24357349 311.94396356 423.90237472 288 421 C288.02094727 422.25135742 288.04189453 423.50271484 288.06347656 424.79199219 C288.13589394 429.43608145 288.18180618 434.08012083 288.21972656 438.72460938 C288.23983805 440.73446038 288.26713115 442.74425291 288.30175781 444.75390625 C288.35029634 447.64337596 288.37297322 450.53207191 288.390625 453.421875 C288.41127014 454.31992859 288.43191528 455.21798218 288.45318604 456.14324951 C288.45541745 462.35147965 288.45541745 462.35147965 286.19433594 465.57128906 C282.99180055 467.65642893 280.73782337 467.46722792 277 467 C273.8149643 465.23984869 273.16703028 464.50109084 272 461 C271.91389486 459.57281363 271.88228172 458.14193352 271.88647461 456.7121582 C271.88655014 455.85149246 271.88662567 454.99082672 271.88670349 454.1040802 C271.89186478 453.17899155 271.89702606 452.25390289 271.90234375 451.30078125 C271.90446617 449.87550362 271.90446617 449.87550362 271.90663147 448.4214325 C271.91223125 445.38508971 271.92478368 442.34882052 271.9375 439.3125 C271.94251503 437.25455836 271.94707793 435.19661556 271.95117188 433.13867188 C271.9622006 428.09241954 271.97946507 423.04622225 272 418 C270.64612183 417.72953857 270.64612183 417.72953857 269.26489258 417.45361328 C262.21917821 416.00290139 255.41592864 414.42731776 248.6875 411.875 C247.89190674 411.5756958 247.09631348 411.2763916 246.27661133 410.96801758 C232.33843818 405.55874142 219.76222529 398.19350367 208 389 C207.47519043 388.59088379 206.95038086 388.18176758 206.40966797 387.76025391 C192.55877003 376.81309009 179.70455359 364.02859918 169 350 C167.98774121 348.70383159 166.97465457 347.40830947 165.9609375 346.11328125 C157.36898528 335.07448769 149.37830072 323.69793656 141.71875 311.99609375 C141.17162354 311.16392334 140.62449707 310.33175293 140.06079102 309.47436523 C138.99470078 307.84933523 137.93506967 306.22004574 136.88256836 304.58618164 C136.40440674 303.8564917 135.92624512 303.12680176 135.43359375 302.375 C135.01134521 301.72273438 134.58909668 301.07046875 134.15405273 300.3984375 C133.77321533 299.93695313 133.39237793 299.47546875 133 299 C130.63086968 298.76483608 130.63086968 298.76483608 128.42578125 301.5625 C127.38230666 302.70313206 126.34489223 303.84932759 125.3125 305 C124.77085205 305.59506348 124.2292041 306.19012695 123.67114258 306.80322266 C120.80514802 309.96117567 117.9786084 313.15056883 115.1875 316.375 C114.12669559 317.58482217 113.06430199 318.79325356 112 320 C111.51015625 320.56847656 111.0203125 321.13695312 110.515625 321.72265625 C101.64733268 331.35924122 89.1521224 337.62691789 77 342 C76.05769531 342.3403125 75.11539063 342.680625 74.14453125 343.03125 C59.75956831 347.22443758 42.22744017 346.69380949 27.8125 343 C27.13300293 342.82919922 26.45350586 342.65839844 25.75341797 342.48242188 C17.84106983 340.13382701 11.4555906 335.97631499 4 332 C4 380.84 4 429.68 4 480 C26.37022949 479.9685791 26.37022949 479.9685791 49.19238281 479.93652344 C81.07289187 479.8936253 112.95339571 479.85591426 144.83392334 479.83062744 C145.87559591 479.8297991 145.87559591 479.8297991 146.93831237 479.82895402 C162.02940694 479.81698327 177.12050204 479.80590241 192.21159793 479.79573868 C199.61193129 479.7907492 207.01226451 479.785563 214.41259766 479.78027344 C215.14903207 479.7797504 215.88546648 479.77922737 216.64421709 479.77868848 C240.52767024 479.76163354 264.41108562 479.7315812 288.29451588 479.69481112 C312.83142058 479.65710345 337.36830435 479.63246351 361.90523753 479.62434004 C365.36841229 479.62318737 368.83158698 479.62188482 372.29476166 479.62049103 C373.3171969 479.62008649 373.3171969 479.62008649 374.3602874 479.61967378 C385.346436 479.61494113 396.33252006 479.59637339 407.31864231 479.57267186 C418.35500249 479.54915576 429.39131344 479.54044437 440.42770156 479.54599449 C446.41090885 479.5485661 452.39392616 479.54451975 458.37709999 479.5231781 C463.84849453 479.50380359 469.31957021 479.50267055 474.790979 479.51640442 C476.77623857 479.51810341 478.76151754 479.51295246 480.74673858 479.50046727 C483.43437027 479.48453975 486.12083331 479.49298839 488.80844498 479.50780869 C489.58887922 479.49730063 490.36931347 479.48679258 491.17339724 479.4759661 C494.71212679 479.52041469 496.63190172 479.71674243 499.4765718 481.90576196 C501.1175141 484.16154519 501.5678892 485.24073134 501.5625 488 C501.58441406 488.66 501.60632813 489.32 501.62890625 490 C500.6179828 493.21486216 498.80780773 494.20867 496 496 C493.05857521 496.38466109 490.49617611 496.53814817 487.55880737 496.50336456 C486.70697254 496.50917833 485.85513772 496.51499209 484.97748971 496.52098203 C482.10954562 496.53563504 479.24245025 496.52167206 476.37451172 496.50793457 C474.30310566 496.51254138 472.23170286 496.51889281 470.16030693 496.52684355 C464.45757821 496.54359009 458.75511615 496.53526626 453.05238628 496.52289867 C446.90642651 496.51387229 440.76051355 496.52780591 434.61456299 496.53881836 C423.26701863 496.55560359 411.91958336 496.55411164 400.57204169 496.54317249 C390.08966497 496.53311677 379.60731952 496.53048041 369.12493896 496.53526306 C368.4300622 496.5355686 367.73518544 496.53587414 367.01925181 496.53618894 C364.19863702 496.53743426 361.37802225 496.53870786 358.55740749 496.540028 C332.08898955 496.55226853 305.62062596 496.54116298 279.1522164 496.51964041 C255.62814119 496.50065747 232.10415258 496.50235596 208.58007812 496.52148438 C182.16058332 496.54289528 155.74113656 496.55140049 129.32163429 496.53903532 C126.50610988 496.53775242 123.69058546 496.53650106 120.87506104 496.53526306 C120.18178911 496.53494675 119.48851719 496.53463044 118.77423702 496.53430455 C108.29753727 496.5297515 97.8208722 496.53508162 87.34417725 496.54518127 C75.4336513 496.55660579 63.52322767 496.55339983 51.61270571 496.5320583 C45.53214236 496.52152324 39.4517551 496.51746791 33.37119293 496.53065491 C27.80986949 496.54253369 22.24888609 496.53609086 16.6875937 496.5147447 C14.67084728 496.51025945 12.6540724 496.51258768 10.63734412 496.52224785 C7.90487987 496.53433705 5.17359438 496.52201317 2.44119263 496.50336456 C1.65037552 496.51272923 0.85955842 496.52209389 0.04477715 496.53174233 C-3.4452578 496.48383556 -5.86633313 496.06821352 -8.98842376 494.47493315 C-11.75856481 491.06670344 -11.69183541 488.1055193 -11.62641239 483.89770508 C-11.6368638 482.65669005 -11.6368638 482.65669005 -11.64752635 481.39060402 C-11.66486286 478.59978228 -11.64635703 475.81033165 -11.62818909 473.01953125 C-11.63323088 471.00602078 -11.64045685 468.99251479 -11.64968723 466.97901917 C-11.66868863 461.43166132 -11.6563313 455.8847418 -11.6389643 450.33739471 C-11.62563534 444.3604851 -11.64101128 438.38364154 -11.65278625 432.40673828 C-11.67013543 421.36997962 -11.66474189 410.33334524 -11.6477995 399.29659653 C-11.6322457 389.10152643 -11.62637627 378.90650719 -11.6301403 368.71142578 C-11.63037711 368.03574401 -11.63061391 367.36006224 -11.63085788 366.66390526 C-11.63183277 363.92124518 -11.63285358 361.17858511 -11.63394299 358.43592507 C-11.64403108 332.69602447 -11.62574709 306.95621322 -11.59422263 281.21633363 C-11.56636096 258.33689913 -11.56139785 235.4575709 -11.57641602 212.578125 C-11.5802383 206.719808 -11.58403305 200.861491 -11.5875864 195.00317383 C-11.58802422 194.2819958 -11.58846203 193.56081777 -11.58891311 192.81778586 C-11.60014724 173.71243869 -11.5928082 154.60709937 -11.57970566 135.50175476 C-11.57831705 133.44653476 -11.57693634 131.39131475 -11.57556724 129.33609474 C-11.57465785 127.97265684 -11.57373518 126.60921895 -11.57279913 125.24578106 C-11.56599683 115.0559333 -11.56866919 104.86611621 -11.57574654 94.67626953 C-11.58370404 83.09250776 -11.57678285 71.50883631 -11.5515715 59.9250946 C-11.53904062 54.01073589 -11.53297332 48.09655554 -11.54411316 42.18218994 C-11.55410784 36.77383746 -11.54579821 31.36584171 -11.52253198 25.95753288 C-11.51734582 23.99528534 -11.51898241 22.03300618 -11.52792663 20.07077217 C-11.53903357 17.41417948 -11.52578726 14.75881172 -11.50615788 12.10229492 C-11.51523669 11.33102579 -11.52431551 10.55975666 -11.53366944 9.76511574 C-11.48351446 6.31017824 -11.25402939 4.34682797 -9.18711513 1.52485657 C-5.97989298 -0.71121856 -3.8131317 -0.5447331 0 0 Z " fill="#000000" transform="translate(11,8)"/>
      <path d="M0 0 C1.43293837 -0.00015519 2.86587715 -0.00164753 4.29881287 -0.00440979 C7.29209096 -0.00578944 10.28488736 0.00669196 13.27807617 0.02954102 C17.10351291 0.05795075 20.92815177 0.05517583 24.7536478 0.0424509 C27.70919034 0.03547758 30.66455029 0.0433013 33.6200695 0.05570793 C35.03018429 0.0602046 36.44031879 0.06057491 37.85043526 0.05664253 C39.82423277 0.05371371 41.79802599 0.07245661 43.77172852 0.09204102 C44.89200943 0.097444 46.01229034 0.10284698 47.16651917 0.1084137 C51.90445836 0.69299706 55.11127213 2.02957467 58.15933228 5.76293945 C59.55925011 9.09220049 59.68948462 11.6155259 59.69677734 15.2265625 C59.7020343 15.88250397 59.70729126 16.53844543 59.71270752 17.21426392 C59.72585364 19.37095327 59.7171893 21.52689758 59.70703125 23.68359375 C59.70905355 25.18904766 59.71196629 26.69450061 59.71572876 28.19995117 C59.72014479 31.35051833 59.71374454 34.50082981 59.69970703 37.65136719 C59.6826153 41.68318536 59.69246039 45.71440436 59.71042442 49.74620056 C59.72128193 52.85352059 59.71780696 55.96069933 59.71004105 59.06802368 C59.70804446 60.55433219 59.71047926 62.04065366 59.71747971 63.52694702 C59.72512695 65.60685037 59.71344589 67.68579293 59.69677734 69.765625 C59.69439056 70.94745361 59.69200378 72.12928223 59.68954468 73.34692383 C59.25559028 76.93425236 58.59093603 78.70060551 56.30859375 81.49609375 C52.07032703 84.22188563 48.7630822 84.87607377 43.77172852 84.90014648 C42.49342667 84.91283066 41.21512482 84.92551483 39.89808655 84.93858337 C38.51538937 84.93653166 37.13269332 84.93354341 35.75 84.9296875 C34.31802626 84.93425388 32.88605471 84.9395608 31.4540863 84.9455719 C28.45912754 84.95448488 25.46443568 84.95210092 22.46948242 84.94213867 C18.6451343 84.93065262 14.82171007 84.95086287 10.99748325 84.98005581 C8.04190794 84.99846619 5.08655206 84.99811581 2.13093376 84.99241829 C0.72162518 84.99226566 -0.68769882 84.9982619 -2.09695244 85.01070976 C-16.50505058 85.12005698 -16.50505058 85.12005698 -21.69140625 80.49609375 C-25.5411591 73.6555832 -25.12733259 66.56333215 -25.08984375 58.87109375 C-25.09271393 57.56962402 -25.09558411 56.2681543 -25.09854126 54.92724609 C-25.10294217 52.1838095 -25.09660648 49.4406677 -25.08251953 46.69726562 C-25.06542847 43.20051603 -25.07528178 39.70445747 -25.09323692 36.20773315 C-25.1067534 32.8454663 -25.09725872 29.48338016 -25.08984375 26.12109375 C-25.09591644 24.87505371 -25.10198914 23.62901367 -25.10824585 22.34521484 C-25.05521621 15.75711506 -24.96206057 10.30762146 -21.69140625 4.49609375 C-15.50051937 -1.02347242 -7.8973078 -0.06975647 0 0 Z M-8.69140625 16.49609375 C-8.69140625 33.65609375 -8.69140625 50.81609375 -8.69140625 68.49609375 C8.46859375 68.49609375 25.62859375 68.49609375 43.30859375 68.49609375 C43.30859375 51.33609375 43.30859375 34.17609375 43.30859375 16.49609375 C26.14859375 16.49609375 8.98859375 16.49609375 -8.69140625 16.49609375 Z " fill="#000000" transform="translate(89.69140625,37.50390625)"/>
      <path d="M0 0 C1.82965553 -0.01268921 1.82965553 -0.01268921 3.6962738 -0.02563477 C5.04495373 -0.01980207 6.39363234 -0.01365757 7.74230957 -0.00723267 C9.16496687 -0.01129849 10.58762101 -0.01664043 12.01026917 -0.02316284 C15.8718267 -0.03684114 19.73314383 -0.03153577 23.59470558 -0.02202559 C27.63540928 -0.01443162 31.67609237 -0.02147386 35.71679688 -0.02618408 C42.5025197 -0.03164241 49.28814458 -0.02444803 56.07385254 -0.01016235 C63.91966651 0.00616435 71.7652466 0.00087589 79.6110549 -0.01564157 C86.34661915 -0.02925427 93.08211299 -0.03117717 99.81768656 -0.02332556 C103.84085327 -0.01864784 107.86391005 -0.01802687 111.8870697 -0.02793503 C115.6693816 -0.03659932 119.45139188 -0.03059287 123.23367119 -0.01325226 C124.62201372 -0.00928451 126.01038162 -0.01042643 127.39871407 -0.01704025 C129.29322531 -0.02523353 131.18779199 -0.01313881 133.08227539 0 C134.14267281 0.00113108 135.20307022 0.00226215 136.29560089 0.00342751 C139.41552378 0.43243067 140.77777267 1.23064807 143.0411377 3.38095093 C143.82629395 5.24813843 143.82629395 5.24813843 144.1036377 7.25595093 C144.21836426 7.9133728 144.33309082 8.57079468 144.45129395 9.24813843 C143.94547824 11.87838012 142.91936703 13.4583783 140.98510742 15.2997551 C136.32971913 17.88898596 130.433445 17.0693026 125.24230957 17.02792358 C123.82112 17.03470211 122.39993921 17.04360657 120.97877502 17.05447388 C117.12533296 17.07724664 113.27256105 17.06843978 109.41910744 17.05257845 C105.38420446 17.03990873 101.34935839 17.05166253 97.31445312 17.05950928 C90.53883576 17.06860276 83.763491 17.056626 76.98791504 17.0328064 C69.15729472 17.00559546 61.32732533 17.01440986 53.49672079 17.04193842 C46.77042623 17.06463724 40.04432749 17.06782587 33.31800699 17.05474508 C29.30201964 17.04695472 25.28633812 17.04589727 21.27037048 17.06242752 C17.49441029 17.07688456 13.71928826 17.06682943 9.9434185 17.03795624 C8.55872934 17.03135181 7.17396948 17.0332323 5.78930855 17.04426956 C-5.98086242 17.12943205 -5.98086242 17.12943205 -9.2956543 13.97381592 C-11.0056291 11.30804363 -11.55703659 10.32554515 -11.0213623 7.25595093 C-10.92983887 6.5933728 -10.83831543 5.93079468 -10.74401855 5.24813843 C-8.71227307 0.41642529 -4.76925541 0.00508714 0 0 Z " fill="#000000" transform="translate(187.9588623046875,88.61904907226563)"/>
      <path d="M0 0 C2.4375 1.5 2.4375 1.5 4 4 C4.95364737 8.92717807 4.95364737 8.92717807 4 12 C-1.78034294 18.31897067 -10.87454731 21.89303233 -18.375 25.8125 C-19.78876483 26.55618078 -21.20250121 27.29991565 -22.61621094 28.04370117 C-27.06865534 30.37958903 -31.53226795 32.6935087 -36 35 C-36.72425171 35.37415039 -37.44850342 35.74830078 -38.19470215 36.13378906 C-57.80207952 46.24775245 -77.56281829 55.67189166 -98 64 C-98.89275635 64.3727002 -99.7855127 64.74540039 -100.70532227 65.12939453 C-104.5649555 66.59374735 -106.9971099 65.96844115 -111 65 C-113.81690147 62.09773788 -113.99172712 60.4715541 -114.0625 56.4375 C-112.73416846 52.13995679 -110.79081327 51.01719336 -107 49 C-103.19093814 47.26304361 -99.3163199 45.69867773 -95.4375 44.125 C-75.38237136 35.79974844 -55.9764639 26.13915107 -36.6875 16.1875 C-35.77026657 15.71429825 -35.77026657 15.71429825 -34.83450317 15.23153687 C-29.11941084 12.27548099 -23.43132306 9.29432986 -17.87109375 6.0546875 C-17.13608643 5.62647705 -16.4010791 5.1982666 -15.64379883 4.75708008 C-14.36231632 3.99879082 -13.08883524 3.22667813 -11.8269043 2.4362793 C-7.76015785 0.00315762 -4.69855295 -0.4590866 0 0 Z " fill="#000000" transform="translate(508,349)"/>
      <path d="M0 0 C1.4813443 -0.01073296 1.4813443 -0.01073296 2.99261475 -0.02168274 C6.25336116 -0.03857583 9.51273397 -0.01916265 12.7734375 0.00219727 C15.04117954 0.00136863 17.30892153 -0.00109055 19.57666016 -0.00511169 C24.32798352 -0.00797013 29.0788356 0.00673664 33.83007812 0.03417969 C39.92011815 0.06826194 46.00931539 0.06224435 52.09939575 0.04351711 C56.78172834 0.03294813 61.46386485 0.04188415 66.1461792 0.05690193 C68.39165668 0.06208491 70.63715462 0.06160056 72.88262939 0.05535698 C76.0211591 0.04990621 79.15848271 0.07027669 82.296875 0.09765625 C83.22481873 0.09113037 84.15276245 0.08460449 85.10882568 0.07788086 C89.26206938 0.13948281 91.58594706 0.29863683 95.22509766 2.44960022 C97.1484375 4.63110352 97.1484375 4.63110352 97.7734375 8.06860352 C96.96928662 12.65226351 95.85502025 13.84206525 92.1484375 16.63110352 C88.85748218 17.35343455 85.63928112 17.29425711 82.28100586 17.24633789 C81.2918367 17.2518869 80.30266754 17.25743591 79.28352356 17.26315308 C76.01794813 17.27495198 72.75375936 17.25067233 69.48828125 17.22485352 C67.21814538 17.22314256 64.94800753 17.22320794 62.6778717 17.22497559 C57.92234372 17.22332224 53.16728708 17.2046195 48.41186523 17.1730957 C42.3128554 17.1333959 36.21446239 17.12905306 30.11534786 17.13655853 C25.4287805 17.13962613 20.7423521 17.12751548 16.05581856 17.11042786 C13.80672642 17.10339164 11.55761853 17.10027407 9.30851555 17.10112 C6.16754486 17.0993247 3.02731705 17.07796589 -0.11352539 17.05102539 C-1.51083389 17.0554213 -1.51083389 17.0554213 -2.93637085 17.05990601 C-9.22421204 16.97658515 -9.22421204 16.97658515 -12.41111755 15.22155762 C-14.09528832 13.36199588 -14.5720383 12.23216601 -14.9140625 9.75610352 C-15.02878906 9.09868164 -15.14351562 8.44125977 -15.26171875 7.76391602 C-13.72777244 -0.2126048 -6.47930916 -0.08164005 0 0 Z " fill="#000000" transform="translate(191.8515625,54.368896484375)"/>
      <path d="M0 0 C1.99301736 1.58066894 2.86543351 2.73086702 4 5 C4.10518455 6.57659121 4.14871392 8.15750155 4.16113281 9.73754883 C4.17074036 10.72229691 4.1803479 11.70704498 4.19024658 12.72163391 C4.19449646 13.78931503 4.19874634 14.85699615 4.203125 15.95703125 C4.20882507 17.05214523 4.21452515 18.14725922 4.22039795 19.27555847 C4.22985713 21.59653759 4.23638556 23.91753019 4.24023438 26.23852539 C4.24993172 29.7875112 4.28094371 33.33591603 4.3125 36.88476562 C4.31903073 39.13801739 4.32428093 41.3912733 4.328125 43.64453125 C4.3404718 44.70613968 4.3528186 45.76774811 4.36553955 46.86152649 C4.33751346 56.14601496 4.33751346 56.14601496 1 60 C-1.85324437 61.42662219 -3.83454549 61.31033868 -7 61 C-9.66210938 59.72070312 -9.66210938 59.72070312 -12 57 C-12.75163734 53.05874283 -12.65200152 49.15728503 -12.59375 45.15625 C-12.59379028 43.9950061 -12.59383057 42.83376221 -12.59387207 41.6373291 C-12.58851195 39.18280626 -12.57090857 36.72828414 -12.54199219 34.27392578 C-12.50015706 30.51411564 -12.50092154 26.75609724 -12.5078125 22.99609375 C-12.49731962 20.6119667 -12.48438099 18.2278489 -12.46875 15.84375 C-12.46854858 14.71763306 -12.46834717 13.59151611 -12.46813965 12.43127441 C-12.45222778 11.38338745 -12.43631592 10.33550049 -12.41992188 9.25585938 C-12.41150269 8.33526733 -12.4030835 7.41467529 -12.39440918 6.46618652 C-11.92227308 3.5139842 -11.05670246 2.14677482 -9 0 C-5.45026831 -1.1832439 -3.60040463 -0.90010116 0 0 Z " fill="#000000" transform="translate(444,307)"/>
      <path d="M0 0 C2.72156639 2.83431609 3.37679777 4.82198353 3.38818359 8.70507812 C3.40236832 10.0967218 3.40236832 10.0967218 3.4168396 11.51647949 C3.41076691 12.51135376 3.40469421 13.50622803 3.3984375 14.53125 C3.40130768 15.55931763 3.40417786 16.58738525 3.40713501 17.64660645 C3.40917505 19.81860912 3.40364943 21.9906302 3.39111328 24.16259766 C3.37505928 27.48772248 3.39096454 30.81163175 3.41015625 34.13671875 C3.40817381 36.24739852 3.40433011 38.35807753 3.3984375 40.46875 C3.40754654 41.9610614 3.40754654 41.9610614 3.4168396 43.48352051 C3.40738312 44.41128296 3.39792664 45.33904541 3.38818359 46.29492188 C3.38579681 47.10892456 3.38341003 47.92292725 3.38095093 48.76159668 C2.90112174 51.58099199 1.9639017 52.94090402 0 55 C-3.375 56 -3.375 56 -7 56 C-9.80189446 54.23358828 -11.51524911 52.96950178 -13 50 C-13.09940576 48.57115712 -13.13829029 47.13784601 -13.14526367 45.70556641 C-13.15164352 44.8176944 -13.15802338 43.92982239 -13.16459656 43.01504517 C-13.16570938 42.05359589 -13.1668222 41.09214661 -13.16796875 40.1015625 C-13.17129715 39.11505707 -13.17462555 38.12855164 -13.17805481 37.1121521 C-13.18312385 35.02236396 -13.18546314 32.93256772 -13.18530273 30.84277344 C-13.18748631 27.64504638 -13.20563432 24.44766584 -13.22460938 21.25 C-13.22754387 19.22135535 -13.22952829 17.19270906 -13.23046875 15.1640625 C-13.23765427 14.20666168 -13.24483978 13.24926086 -13.25224304 12.2628479 C-13.2476281 10.9215834 -13.2476281 10.9215834 -13.24291992 9.55322266 C-13.24434494 8.76871735 -13.24576996 7.98421204 -13.24723816 7.17593384 C-12.96691489 4.70881921 -12.28288005 3.11496654 -11 1 C-7.44020669 -1.76872813 -4.1946238 -1.06772242 0 0 Z " fill="#000000" transform="translate(296,335)"/>
      <path d="M0 0 C2.43832488 2.15891075 3.81027174 3.8995262 4.37158203 7.15527344 C4.53009781 9.83042606 4.55426373 12.47646717 4.53125 15.15625 C4.5350769 16.13613892 4.53890381 17.11602783 4.54284668 18.12561035 C4.54556352 20.19328847 4.53821836 22.26100109 4.52148438 24.32861328 C4.50007189 27.48938794 4.5212942 30.6478896 4.546875 33.80859375 C4.54423168 35.82031751 4.53910663 37.83203985 4.53125 39.84375 C4.53934692 40.78657837 4.54744385 41.72940674 4.55578613 42.70080566 C4.49526438 46.94602964 4.37787142 49.37234241 2.15039062 53.07226562 C-0.6274444 55.56247741 -2.28193113 56 -6 56 C-10.56521739 53.86956522 -10.56521739 53.86956522 -12 51 C-12.11492615 49.47970688 -12.16942592 47.95462634 -12.19287109 46.43017578 C-12.20893402 45.48224152 -12.22499695 44.53430725 -12.24154663 43.55764771 C-12.28593695 39.22545038 -12.32704981 34.89340655 -12.35009766 30.56103516 C-12.36667402 28.2738224 -12.39398583 25.98666179 -12.43212891 23.69970703 C-12.48678927 20.4063015 -12.50875424 17.11411003 -12.5234375 13.8203125 C-12.54610687 12.79729034 -12.56877625 11.77426819 -12.59213257 10.72024536 C-12.57104746 3.66060934 -12.57104746 3.66060934 -9.68994141 0.32763672 C-5.95593197 -1.51530604 -3.94684967 -1.21993535 0 0 Z " fill="#000000" transform="translate(147,335)"/>
      <path d="M0 0 C3.1850357 1.76015131 3.83296972 2.49890916 5 6 C5.10060382 7.43090466 5.14824456 8.86591395 5.16113281 10.30029297 C5.17074036 11.164841 5.1803479 12.02938904 5.19024658 12.9201355 C5.19449646 13.85141266 5.19874634 14.78268982 5.203125 15.7421875 C5.20882507 16.70271027 5.21452515 17.66323303 5.22039795 18.65286255 C5.22984458 20.68539326 5.23638059 22.71793927 5.24023438 24.75048828 C5.24994082 27.85606657 5.28096786 30.96098326 5.3125 34.06640625 C5.31903017 36.04166274 5.32428059 38.01692396 5.328125 39.9921875 C5.3404718 40.9194162 5.3528186 41.8466449 5.36553955 42.80197144 C5.34877019 47.66806883 5.24320792 51.08466044 2 55 C-1.09173752 56.54586876 -3.59429552 56.29359521 -7 56 C-9.19335938 54.65234375 -9.19335938 54.65234375 -11 52 C-11.60567593 48.41977342 -11.5601089 44.87387333 -11.53125 41.25 C-11.5350769 40.19973633 -11.53890381 39.14947266 -11.54284668 38.06738281 C-11.54556696 35.84829753 -11.53819777 33.62918026 -11.52148438 31.41015625 C-11.50007745 28.01229405 -11.52128325 24.61654639 -11.546875 21.21875 C-11.54423175 19.06249533 -11.53910682 16.90624198 -11.53125 14.75 C-11.53934692 13.73325195 -11.54744385 12.71650391 -11.55578613 11.66894531 C-11.462736 4.674429 -11.462736 4.674429 -9.18554688 1.35546875 C-5.97804375 -0.6338138 -3.69528827 -0.46191103 0 0 Z " fill="#000000" transform="translate(146,419)"/>
      <path d="M0 0 C2.19335938 1.34765625 2.19335938 1.34765625 4 4 C4.60567593 7.58022658 4.5601089 11.12612667 4.53125 14.75 C4.5350769 15.80026367 4.53890381 16.85052734 4.54284668 17.93261719 C4.54556696 20.15170247 4.53819777 22.37081974 4.52148438 24.58984375 C4.50007745 27.98770595 4.52128325 31.38345361 4.546875 34.78125 C4.54423175 36.93750467 4.53910682 39.09375802 4.53125 41.25 C4.53934692 42.26674805 4.54744385 43.28349609 4.55578613 44.33105469 C4.46226046 51.36131643 4.46226046 51.36131643 2.09179688 54.63647461 C-0.14993366 56.09773337 -1.34269701 56.56769004 -4 56.5625 C-4.99 56.59537109 -4.99 56.59537109 -6 56.62890625 C-9.27986099 55.59754371 -10.20824715 53.90990577 -12 51 C-12.5814825 47.61319385 -12.53695497 44.27308855 -12.49609375 40.84375 C-12.49754898 39.86386108 -12.49900421 38.88397217 -12.50050354 37.87438965 C-12.49884666 35.8066917 -12.48730913 33.73898115 -12.46655273 31.67138672 C-12.43759948 28.510859 -12.44594842 25.35200958 -12.45898438 22.19140625 C-12.45274654 20.17967937 -12.44435525 18.16795777 -12.43359375 16.15625 C-12.43652939 15.21342163 -12.43946503 14.27059326 -12.44248962 13.29919434 C-12.37248888 8.41831675 -12.25188235 4.92312651 -9 1 C-5.90826248 -0.54586876 -3.40570448 -0.29359521 0 0 Z " fill="#000000" transform="translate(295,250)"/>
      </svg>
    </symbol>

    <symbol id="icon-sp02" viewBox="0 0 512 512">
<svg version="1.1" xmlns="http://www.w3.org/2000/svg" width="512" height="512">
<path d="M0 0 C1.17127441 0.36206543 1.17127441 0.36206543 2.36621094 0.73144531 C18.1506397 5.75692423 32.52838441 12.99688522 45 24 C45.81726563 24.69738281 46.63453125 25.39476563 47.4765625 26.11328125 C53.83261333 31.65268778 59.44354923 37.67510391 65 44 C69.66891816 42.47099756 74.24871906 40.77625442 78.828125 39 C101.68302145 31.79451541 126.0806624 35.18695281 147.13671875 45.84765625 C152.29391565 48.61147178 156.66216826 52.09828779 161 56 C161.96808594 56.77472656 162.93617188 57.54945313 163.93359375 58.34765625 C180.56038026 72.19325392 187.72937226 93.32836255 191 114 C192.258125 114.21914062 193.51625 114.43828125 194.8125 114.6640625 C228.62076118 120.81192491 258.42619223 138.01962143 279 166 C294.47621938 188.46095379 302.45504624 213.19695465 302.375 240.5 C302.37418427 241.5511499 302.37418427 241.5511499 302.37335205 242.62353516 C302.25007863 277.29788237 288.78788693 307.78967662 264.484375 332.53417969 C240.59058138 356.12930089 208.91370448 368.47296129 175.5 368.375 C174.7992334 368.37445618 174.0984668 368.37391235 173.37646484 368.37335205 C143.90531159 368.2685769 118.44747982 358.7103305 95 341 C94.57332031 341.3403125 94.14664062 341.680625 93.70703125 342.03125 C68.00881428 361.9539914 39.34068865 369.25338231 7.14648438 365.68359375 C2.27519177 364.88144645 -2.32475189 363.57220733 -7 362 C-8.1034375 361.649375 -9.206875 361.29875 -10.34375 360.9375 C-19.4240981 357.7637861 -31.09845269 352.90154731 -38 346 C-42.45448949 346.27937565 -45.45424063 348.35092876 -49.125 350.75 C-72.30736284 365.42019102 -100.32037992 369.80904346 -127.3125 364.875 C-129.55819543 364.31227354 -131.78905845 363.68669243 -134 363 C-134.93827637 362.70996094 -134.93827637 362.70996094 -135.89550781 362.4140625 C-164.07395454 353.44126963 -185.70954556 334.74152114 -199.72265625 308.8125 C-211.19495759 285.33976068 -214.75436056 255.13860495 -206.69335938 229.98828125 C-204.53195362 223.79022193 -201.9607547 217.85606954 -199 212 C-198.46503906 210.94167969 -197.93007812 209.88335937 -197.37890625 208.79296875 C-188.50396013 192.55415847 -171.8317749 172.90092221 -153.58984375 167.25390625 C-153.06519531 167.17011719 -152.54054687 167.08632812 -152 167 C-152.32613281 166.175 -152.65226562 165.35 -152.98828125 164.5 C-161.72627252 141.40489623 -163.88984535 112.97555055 -157 89 C-156.6596875 87.77410156 -156.319375 86.54820312 -155.96875 85.28515625 C-146.18657625 53.26175637 -124.03438156 25.72791878 -94.625 9.6875 C-86.72563957 5.57359407 -78.52680544 2.53309163 -70 0 C-69.31083496 -0.21172852 -68.62166992 -0.42345703 -67.91162109 -0.64160156 C-46.92829658 -6.83597713 -20.84723708 -6.55038691 0 0 Z M-95 48 C-95.81855469 48.68835938 -96.63710937 49.37671875 -97.48046875 50.0859375 C-115.09319166 65.27391338 -127.4674326 87.50719131 -129.22143555 110.9609375 C-129.93456419 130.302081 -127.81625779 146.04262901 -119.5859375 163.51171875 C-116.70131835 169.85645988 -115.34599417 174.22978968 -117 181 C-118.73158314 185.4817446 -121.26592731 187.00171292 -125.5703125 188.98046875 C-127.30763309 189.70947305 -129.05352576 190.41818223 -130.8046875 191.11328125 C-150.33635529 198.90058256 -164.92908522 212.09950703 -173.5234375 231.42578125 C-179.99138478 247.63303642 -182.83641691 268.37456088 -176 285 C-172.24495278 293.6094557 -168.11097224 301.80853701 -162 309 C-160.88625 310.485 -160.88625 310.485 -159.75 312 C-151.94138341 321.0570161 -141.70644621 326.18701042 -131 331 C-130.20980469 331.36222656 -129.41960937 331.72445313 -128.60546875 332.09765625 C-112.19220479 338.53994329 -91.88925717 336.75823072 -76 330 C-67.57240912 326.19235352 -61.11363953 321.59393747 -54.41796875 315.24609375 C-49.93498325 311.08176958 -46.25332827 308.81971904 -40 308.5 C-33.20325363 308.81875815 -29.34048979 311.49411356 -24.75 316.3125 C-12.69291014 328.88093965 5.46741652 335.03856759 22.51953125 335.99609375 C42.89472251 336.01896153 61.91730547 328.81719447 77 315 C78.27561496 313.58518103 79.52757057 312.14851763 80.75 310.6875 C83.96643501 306.87126359 86.82235001 304.44755634 91.94140625 303.7265625 C97.98113824 303.42858711 102.07719471 305.2955664 106.6484375 309.34765625 C107.54820312 310.24355469 108.44796875 311.13945312 109.375 312.0625 C123.18672944 325.15074749 141.90698398 334.89856742 161 337 C162.63195312 337.19722656 162.63195312 337.19722656 164.296875 337.3984375 C189.00567971 339.7442101 214.01119631 333.30176706 233.625 317.8125 C235.0900205 316.54938148 236.54922017 315.27944964 238 314 C238.58394531 313.55785156 239.16789062 313.11570312 239.76953125 312.66015625 C257.22111486 299.21385412 267.30723988 276.15745849 271 255 C272.85573745 225.89179822 267.24001939 200.61081019 248 178 C247.46890625 177.32324219 246.9378125 176.64648438 246.390625 175.94921875 C231.25288167 157.25185756 207.50408171 147.44069448 184.19335938 144.79052734 C181.98196686 144.55961504 179.76828566 144.34943938 177.55273438 144.16259766 C171.73227689 143.61451988 167.44743921 143.14952462 163 139 C159.27954648 133.7929382 159.6104056 128.52514227 159.5625 122.375 C159.33325897 113.96005887 158.62246885 106.72384037 155 99 C154.65066406 98.22011719 154.30132812 97.44023437 153.94140625 96.63671875 C147.93543669 84.60399772 137.31140982 75.18739178 125 70 C124.33226562 69.69964844 123.66453125 69.39929688 122.9765625 69.08984375 C111.70113149 64.8368303 96.6263072 65.36197712 85.5390625 69.796875 C80.13655169 72.35683397 75.18875403 75.02689326 70.5 78.75 C66.57894704 81.61817763 62.80645015 82.24801967 58 82 C51.57763948 80.5605054 49.45061543 77.31875765 45.93359375 71.9453125 C31.17170071 49.45951986 10.78808105 34.11229039 -15.68505859 28.19946289 C-43.17793381 22.53514845 -73.69855341 29.14561225 -95 48 Z " fill="#000000" transform="translate(210,74)"/>
<path d="M0 0 C15.29637991 12.43190468 25.78616566 29.85233001 28.10644531 49.57470703 C29.84974445 70.30059673 24.82951745 88.43469142 12.16894531 105.01220703 C-0.56727245 119.98284897 -18.26917986 130.03114501 -38.00097656 131.75927734 C-58.92537756 133.05655287 -77.6114557 127.30910468 -93.68652344 113.63330078 C-108.5900863 99.73210144 -117.52418942 81.50361057 -118.29858398 61.0390625 C-118.58868055 40.69740374 -111.86355735 22.55203437 -97.89355469 7.57470703 C-71.8044301 -18.79850966 -29.72064887 -22.37095772 0 0 Z M-79.89355469 26.57470703 C-89.20882088 37.71873714 -92.86299944 50.19167219 -91.89355469 64.57470703 C-89.56452062 78.07210133 -83.11041302 89.13866856 -72.14355469 97.32470703 C-61.39055932 104.51525966 -48.78437102 107.28141039 -36.01855469 105.07861328 C-22.4214399 101.6600205 -12.24284247 94.94578808 -4.43261719 83.26611328 C1.92229226 72.15308635 4.0543126 59.42032043 0.91894531 46.94970703 C-3.25290796 33.46394877 -10.55789712 23.62876956 -22.89355469 16.57470703 C-42.51808386 7.88196257 -64.78686886 10.46300261 -79.89355469 26.57470703 Z " fill="#000000" transform="translate(259.8935546875,216.42529296875)"/>
<path d="M0 0 C7.68553767 5.53924203 12.79919343 12.6909386 15.17578125 21.8984375 C18.06419074 40.63183619 5.24357385 55.78669574 -5.0390625 69.99609375 C-6.16091931 71.51924717 -7.28459803 73.04107306 -8.4140625 74.55859375 C-6.55201172 74.61466797 -6.55201172 74.61466797 -4.65234375 74.671875 C-3.01038739 74.73755325 -1.36846163 74.80399995 0.2734375 74.87109375 C1.49836914 74.90493164 1.49836914 74.90493164 2.74804688 74.93945312 C7.47393218 75.14991765 10.74469009 75.5248813 14.5859375 78.55859375 C17.32119077 81.81132737 18.49398508 83.82297441 19.0234375 88.05859375 C18.42942702 92.81067761 17.17169964 96.12149681 13.5859375 99.37109375 C10.4222209 101.24955048 7.82805338 101.68784965 4.22558594 101.71972656 C2.90841583 101.73413788 2.90841583 101.73413788 1.56463623 101.74884033 C0.6177594 101.75309021 -0.32911743 101.75734009 -1.3046875 101.76171875 C-2.28266296 101.76741882 -3.26063843 101.7731189 -4.26824951 101.7789917 C-6.33946654 101.78844064 -8.4106986 101.79497526 -10.48193359 101.79882812 C-13.63796539 101.80851366 -16.79334035 101.83953003 -19.94921875 101.87109375 C-21.96353781 101.87762607 -23.97786152 101.88287564 -25.9921875 101.88671875 C-27.40035736 101.90523895 -27.40035736 101.90523895 -28.8369751 101.9241333 C-34.47669191 101.90513147 -38.43781979 101.27747156 -43.4140625 98.55859375 C-46.50792455 95.3060721 -47.75530665 92.39448171 -48.2265625 87.99609375 C-47.88212384 80.54066344 -42.80552075 75.1984241 -38.4140625 69.55859375 C-36.44711037 66.96089755 -34.49428066 64.35262891 -32.5390625 61.74609375 C-32.03665039 61.07932617 -31.53423828 60.41255859 -31.01660156 59.72558594 C-18.64821497 44.90234027 -18.64821497 44.90234027 -11.4140625 27.55859375 C-12.01019728 25.30863434 -12.01019728 25.30863434 -13.4140625 23.55859375 C-17.27315355 22.64644496 -19.63009558 22.29727144 -23.4140625 23.55859375 C-24.2558525 25.52965502 -24.2558525 25.52965502 -24.7890625 27.87109375 C-26.07864468 32.16287784 -27.50376263 34.15225537 -31.4140625 36.55859375 C-34.60493501 38.15403 -37.94176492 37.93921099 -41.4140625 37.55859375 C-44.62230497 36.06141393 -47.14338364 34.28340839 -49.4140625 31.55859375 C-51.64687357 24.86016055 -50.51513134 19.31169715 -47.72265625 13.01171875 C-42.84873674 3.8749383 -35.16705042 -0.99543492 -25.37109375 -4.0859375 C-16.60492525 -5.67819565 -7.67634442 -4.58344837 0 0 Z " fill="#000000" transform="translate(359.4140625,256.44140625)"/>
</svg>
    </symbol>

    <symbol id="icon-hours-asleep" viewBox="0 0 512 512">
      <svg version="1.1" xmlns="http://www.w3.org/2000/svg" width="512" height="512">
<path d="M0 0 C33.66 0 67.32 0 102 0 C102 13.2 102 26.4 102 40 C91.77 40 81.54 40 71 40 C71.33 50.56 71.66 61.12 72 72 C75.898125 72.556875 79.79625 73.11375 83.8125 73.6875 C108.03699026 77.34844554 131.48898277 84.27072372 153.10986328 95.97900391 C155.0199462 97.01077435 156.9443964 98.01138329 158.87109375 99.01171875 C174.12781146 107.09427076 187.93683273 117.48787 200.3359375 129.4765625 C202.93130083 132.00704583 202.93130083 132.00704583 205.6484375 134.109375 C207.79211773 135.83286542 209.48366209 137.52858885 211.25 139.625 C213.1257691 141.83084006 215.0037391 144.00395905 216.9921875 146.109375 C228.73133581 158.57953255 238.03848837 172.82390899 245.93603516 187.97021484 C246.88507238 189.78074616 247.86802389 191.57340752 248.85546875 193.36328125 C258.24854306 210.96723516 264.14454252 230.49115358 268 250 C268.16226074 250.74878418 268.32452148 251.49756836 268.49169922 252.26904297 C274.33101161 279.75418625 273.0590018 311.69217346 267 339 C266.81808105 339.84385254 266.63616211 340.68770508 266.44873047 341.55712891 C262.40296465 359.79019148 255.91501117 377.68589372 247.02099609 394.10986328 C245.98922565 396.0199462 244.98861671 397.9443964 243.98828125 399.87109375 C236.24403418 414.48599904 226.46742199 428.22345943 214.59765625 439.7734375 C212.73907331 441.84955616 212.73907331 441.84955616 213.2094574 444.23748779 C214.15223054 447.53196214 215.50721742 450.36552753 217.05102539 453.42675781 C217.51941582 454.36178635 217.51941582 454.36178635 217.99726868 455.31570435 C219.02517433 457.3643586 220.06142172 459.40867286 221.09765625 461.453125 C221.81425659 462.87818666 222.53026694 464.30354514 223.24571228 465.72918701 C225.12619965 469.47307356 227.01352123 473.21347022 228.90264893 476.95300293 C231.93174384 482.95189564 234.95060666 488.95594208 237.9691143 494.96016693 C239.02616234 497.06025636 240.08622505 499.15880261 241.14674377 501.25714111 C241.79068282 502.53500197 242.43456131 503.81289334 243.07836914 505.09082031 C243.6438295 506.2104718 244.20928986 507.33012329 244.79188538 508.48370361 C246 511 246 511 246 512 C230.82 512 215.64 512 200 512 C188.49662162 490.14358108 188.49662162 490.14358108 184.375 481.8125 C183.72724609 480.51022461 183.72724609 480.51022461 183.06640625 479.18164062 C182.04230487 477.12205896 181.02011793 475.06155665 180 473 C176.73700468 473 174.39033866 475.23989287 171.75 477 C139.59005993 497.90108154 101.399913 511.9918059 62.671875 512.203125 C61.80884262 512.21013931 60.94581024 512.21715363 60.05662537 512.22438049 C57.28769657 512.24178751 54.5189815 512.24823244 51.75 512.25 C50.33238876 512.25101212 50.33238876 512.25101212 48.88613892 512.25204468 C35.36184255 512.23667436 22.25876527 511.8964694 9 509 C8.15888672 508.82839355 7.31777344 508.65678711 6.45117188 508.47998047 C-24.67197849 502.0732834 -51.4255177 488.99605475 -78 472 C-78.49927002 473.03406982 -78.99854004 474.06813965 -79.51293945 475.13354492 C-81.37238338 478.98316498 -83.23492509 482.8312794 -85.09838867 486.67895508 C-85.90326664 488.34195952 -86.70731283 490.0053668 -87.51049805 491.66918945 C-88.66755303 494.06569033 -89.82762759 496.46070908 -90.98828125 498.85546875 C-91.52283684 499.96513252 -91.52283684 499.96513252 -92.06819153 501.09721375 C-92.73521091 502.4706632 -93.41579781 503.83764056 -94.11238098 505.19633484 C-95.11735522 507.16082116 -95.11735522 507.16082116 -96.10351562 509.97851562 C-98.433648 512.46223036 -99.24008904 512.366915 -102.56323242 512.56762695 C-104.49415885 512.56683494 -106.42519691 512.53856178 -108.35546875 512.48828125 C-109.37224197 512.48120651 -110.3890152 512.47413177 -111.43659973 512.46684265 C-114.68764484 512.43882918 -117.93697453 512.37607585 -121.1875 512.3125 C-123.38994911 512.28742621 -125.59242518 512.26461145 -127.79492188 512.24414062 C-133.19720096 512.1889801 -138.59847795 512.10528492 -144 512 C-138.0912333 499.45049443 -132.08759341 486.95069967 -125.99584961 474.48901367 C-124.66987987 471.77645419 -123.34555676 469.06309544 -122.02148438 466.34960938 C-121.16415581 464.59370444 -120.30673731 462.83784341 -119.44921875 461.08203125 C-118.86632332 459.8881353 -118.86632332 459.8881353 -118.27165222 458.67012024 C-117.71505669 457.53173958 -117.71505669 457.53173958 -117.1472168 456.37036133 C-116.79501068 455.64112457 -116.44280457 454.91188782 -116.07992554 454.16055298 C-115.34385868 452.68794085 -114.56991489 451.23380303 -113.7640686 449.79818726 C-113.18633194 448.75085922 -113.18633194 448.75085922 -112.59692383 447.68237305 C-112.06546501 446.76115913 -112.06546501 446.76115913 -111.52326965 445.82133484 C-110.78507628 443.93470744 -110.78507628 443.93470744 -111.79350281 441.89143372 C-113.24827254 439.61078147 -114.93195003 437.82184022 -116.8125 435.875 C-145.27515154 404.67116211 -162.16260229 363.50232658 -168 322 C-168.2626062 320.16755737 -168.2626062 320.16755737 -168.53051758 318.2980957 C-169.09400094 313.71339469 -169.17959056 309.16590135 -169.203125 304.55078125 C-169.20882507 303.65747604 -169.21452515 302.76417084 -169.22039795 301.84379578 C-169.22980217 299.95536462 -169.23636361 298.0669174 -169.24023438 296.1784668 C-169.24981972 293.36540761 -169.28083619 290.55311887 -169.3125 287.74023438 C-169.40819802 271.4055326 -167.71241806 255.31451106 -163.75 239.4375 C-163.53802979 238.57930664 -163.32605957 237.72111328 -163.10766602 236.83691406 C-154.12298379 201.6702309 -136.39633074 168.87530629 -111.375 142.55078125 C-108.97991093 140.04568372 -108.97991093 140.04568372 -106.9140625 137.37109375 C-105.18031186 135.22336592 -103.47852392 133.52233079 -101.375 131.75 C-99.16915994 129.8742309 -96.99604095 127.9962609 -94.890625 126.0078125 C-81.85170344 113.73324151 -66.88938038 104.13771319 -51 96 C-49.8855249 95.42040527 -49.8855249 95.42040527 -48.74853516 94.82910156 C-23.80372784 81.9713979 2.37824519 75.65851057 30 72 C30.33 61.44 30.66 50.88 31 40 C20.77 40 10.54 40 0 40 C0 26.8 0 13.6 0 0 Z M-78.54296875 167.52636719 C-100.81120983 189.92340915 -116.60590115 219.35607747 -124 250 C-124.19609863 250.78101074 -124.39219727 251.56202148 -124.59423828 252.36669922 C-130.83661209 278.21921218 -130.5507644 308.25373901 -124 334 C-123.79101074 334.84578613 -123.58202148 335.69157227 -123.36669922 336.56298828 C-111.34580845 383.88117629 -79.62438922 423.37983608 -38.02099609 448.1796875 C-20.18867574 458.51073287 -1.14950269 464.95173801 19 469 C20.15628906 469.23460937 21.31257812 469.46921875 22.50390625 469.7109375 C67.63985359 477.66593205 115.50936185 465.86080719 153 440 C189.11761729 414.64168413 215.61643455 377.03339479 226 334 C226.19609863 333.21898926 226.39219727 332.43797852 226.59423828 331.63330078 C232.83661209 305.78078782 232.5507644 275.74626099 226 250 C225.79101074 249.15421387 225.58202148 248.30842773 225.36669922 247.43701172 C213.34580845 200.11882371 181.62438922 160.62016392 140.02099609 135.8203125 C122.18867574 125.48926713 103.14950269 119.04826199 83 115 C81.84371094 114.76539062 80.68742188 114.53078125 79.49609375 114.2890625 C20.85723552 103.95424457 -37.05915836 126.48890159 -78.54296875 167.52636719 Z " fill="#000000" transform="translate(205,0)"/>
<path d="M0 0 C13.2 0 26.4 0 40 0 C39.71608398 3.56329102 39.43216797 7.12658203 39.13964844 10.79785156 C37.91192761 27.26649325 37.18502998 43.74269307 36.75 60.25 C36.72989034 60.98535477 36.70978068 61.72070953 36.68906164 62.47834778 C35.15028819 112.0429385 35.15028819 112.0429385 58.41287231 154.30767822 C62.42194868 158.45315383 66.6643358 162.27359389 71.0625 166 C71.77911301 166.60789871 72.49572601 167.21579742 73.23405457 167.84211731 C82.05590737 175.23135571 91.23658765 181.91048653 101 188 C99.1068216 192.12390399 96.32174632 194.93280604 93.1171875 198.078125 C92.54292023 198.64956238 91.96865295 199.22099976 91.37698364 199.80975342 C89.5476419 201.62792945 87.71145807 203.43901492 85.875 205.25 C84.63105226 206.48391329 83.3875573 207.71828322 82.14453125 208.953125 C79.10157633 211.97406743 76.05246746 214.98867092 73 218 C58.78935175 211.36488722 46.10177401 200.6477768 34.25 190.5625 C33.43602879 189.8715839 32.62205757 189.1806678 31.78342056 188.46881485 C10.22460408 169.80722294 -1.61325837 150.39882329 -3.92137563 122.10512513 C-5.16633986 104.47898507 -4.93303059 86.83283354 -4.3125 69.1875 C-4.26883836 67.91408052 -4.26883836 67.91408052 -4.22429466 66.6149354 C-3.44652886 44.35067423 -1.95974563 22.19166138 0 0 Z " fill="#000000" transform="translate(236,155)"/>
<path d="M0 0 C2.2858893 4.92628903 4.56434223 9.85592175 6.8359375 14.78881836 C7.60993692 16.4668452 8.38596894 18.14393603 9.1640625 19.82006836 C10.28138906 22.22787858 11.39138998 24.63894771 12.5 27.05078125 C12.84998047 27.80087967 13.19996094 28.55097809 13.56054688 29.32380676 C16 34.65838488 16 34.65838488 16 38 C15.37657715 38.31638428 14.7531543 38.63276855 14.11083984 38.95874023 C2.02406764 45.11571126 -9.83101338 51.28025925 -21 59 C-21.56976563 59.38865234 -22.13953125 59.77730469 -22.7265625 60.17773438 C-36.11880257 69.33696464 -48.18934423 79.9046129 -60 91 C-60.65613281 91.61359375 -61.31226562 92.2271875 -61.98828125 92.859375 C-67.1406093 97.83403656 -71.54330284 103.40602765 -76 109 C-76.88906358 110.09786632 -77.77839406 111.19551653 -78.66796875 112.29296875 C-85.30025699 120.53899243 -91.26141466 129.1120392 -97 138 C-101.1159299 136.4958715 -104.80005093 134.47716472 -108.54296875 132.2265625 C-109.15263992 131.86154633 -109.7623111 131.49653015 -110.39045715 131.12045288 C-111.67162983 130.35093424 -112.95153329 129.57929892 -114.23022461 128.80566406 C-116.18600119 127.62590411 -118.15032299 126.46133966 -120.11523438 125.296875 C-121.36253374 124.54519028 -122.60929762 123.79261616 -123.85546875 123.0390625 C-125.55159302 122.02126709 -125.55159302 122.02126709 -127.28198242 120.98291016 C-129.90133465 119.0719806 -130.94027235 118.00655194 -132 115 C-125.05600486 104.35026328 -118.05554687 93.8519998 -110 84 C-109.32759277 83.17314697 -109.32759277 83.17314697 -108.64160156 82.32958984 C-101.66508285 73.82921456 -94.12270614 65.92412442 -86.375 58.125 C-85.51672607 57.25746094 -84.65845215 56.38992187 -83.77416992 55.49609375 C-77.82625806 49.5770745 -71.57930152 44.20368843 -65 39 C-64.39140137 38.51176758 -63.78280273 38.02353516 -63.15576172 37.52050781 C-16.18839087 0 -16.18839087 0 0 0 Z " fill="#000000" transform="translate(133,19)"/>
<path d="M0 0 C6.0448958 1.90279838 11.40318298 4.6245574 17 7.5625 C18.02947754 8.10261719 19.05895508 8.64273437 20.11962891 9.19921875 C28.04688029 13.40515945 35.61291106 17.8967922 43 23 C43.66692871 23.45342773 44.33385742 23.90685547 45.02099609 24.37402344 C54.84179335 31.061189 64.09907314 38.13350518 73 46 C74.18335938 47.01707031 74.18335938 47.01707031 75.390625 48.0546875 C87.87291679 58.96607862 99.95307554 70.79445097 110 84 C111.03403371 85.3185894 112.06929156 86.63621933 113.10546875 87.953125 C118.4249991 94.754844 123.62751838 101.6386958 128.4375 108.8125 C128.83324219 109.38073486 129.22898437 109.94896973 129.63671875 110.53442383 C130.68359375 112.14453125 130.68359375 112.14453125 132 115 C130.7997588 119.33152007 127.54243846 120.82661797 123.85546875 123.0390625 C123.24866776 123.40599213 122.64186676 123.77292175 122.01667786 124.15097046 C120.73429165 124.92380025 119.44894578 125.69173735 118.16088867 126.45507812 C116.19893935 127.61821819 114.24636531 128.7958986 112.29492188 129.9765625 C111.04479413 130.72743443 109.79415905 131.47746247 108.54296875 132.2265625 C107.96258347 132.57554596 107.38219818 132.92452942 106.78422546 133.28408813 C103.60695508 135.16200341 100.4673219 136.73289929 97 138 C96.67427002 137.50822266 96.34854004 137.01644531 96.01293945 136.50976562 C84.90873014 119.82149292 72.83944804 104.49554039 59 90 C58.36707031 89.32582031 57.73414063 88.65164062 57.08203125 87.95703125 C52.13211551 82.8189952 46.57008874 78.44187969 41 74 C39.92531737 73.12296395 38.85111065 72.24534446 37.77734375 71.3671875 C21.28087601 57.99485081 3.00801281 47.38640903 -16 38 C-15.34272789 33.40687362 -13.55614943 29.46349875 -11.62109375 25.29296875 C-11.28956802 24.56757401 -10.9580423 23.84217926 -10.61647034 23.09480286 C-9.56176506 20.79006042 -8.49975466 18.48877119 -7.4375 16.1875 C-6.71891551 14.62066529 -6.00081117 13.05361028 -5.28320312 11.48632812 C-3.52768627 7.65497824 -1.76561233 3.8267074 0 0 Z " fill="#000000" transform="translate(379,19)"/>
</svg>
    </symbol>
  </defs>
</svg>