<?xml version="1.0" encoding="UTF-8"?>
<svg version="1.1" xmlns="http://www.w3.org/2000/svg" width="512" height="512">
<path d="M0 0 C33.66 0 67.32 0 102 0 C102 13.2 102 26.4 102 40 C91.77 40 81.54 40 71 40 C71.33 50.56 71.66 61.12 72 72 C75.898125 72.556875 79.79625 73.11375 83.8125 73.6875 C108.03699026 77.34844554 131.48898277 84.27072372 153.10986328 95.97900391 C155.0199462 97.01077435 156.9443964 98.01138329 158.87109375 99.01171875 C174.12781146 107.09427076 187.93683273 117.48787 200.3359375 129.4765625 C202.93130083 132.00704583 202.93130083 132.00704583 205.6484375 134.109375 C207.79211773 135.83286542 209.48366209 137.52858885 211.25 139.625 C213.1257691 141.83084006 215.0037391 144.00395905 216.9921875 146.109375 C228.73133581 158.57953255 238.03848837 172.82390899 245.93603516 187.97021484 C246.88507238 189.78074616 247.86802389 191.57340752 248.85546875 193.36328125 C258.24854306 210.96723516 264.14454252 230.49115358 268 250 C268.16226074 250.74878418 268.32452148 251.49756836 268.49169922 252.26904297 C274.33101161 279.75418625 273.0590018 311.69217346 267 339 C266.81808105 339.84385254 266.63616211 340.68770508 266.44873047 341.55712891 C262.40296465 359.79019148 255.91501117 377.68589372 247.02099609 394.10986328 C245.98922565 396.0199462 244.98861671 397.9443964 243.98828125 399.87109375 C236.24403418 414.48599904 226.46742199 428.22345943 214.59765625 439.7734375 C212.73907331 441.84955616 212.73907331 441.84955616 213.2094574 444.23748779 C214.15223054 447.53196214 215.50721742 450.36552753 217.05102539 453.42675781 C217.51941582 454.36178635 217.51941582 454.36178635 217.99726868 455.31570435 C219.02517433 457.3643586 220.06142172 459.40867286 221.09765625 461.453125 C221.81425659 462.87818666 222.53026694 464.30354514 223.24571228 465.72918701 C225.12619965 469.47307356 227.01352123 473.21347022 228.90264893 476.95300293 C231.93174384 482.95189564 234.95060666 488.95594208 237.9691143 494.96016693 C239.02616234 497.06025636 240.08622505 499.15880261 241.14674377 501.25714111 C241.79068282 502.53500197 242.43456131 503.81289334 243.07836914 505.09082031 C243.6438295 506.2104718 244.20928986 507.33012329 244.79188538 508.48370361 C246 511 246 511 246 512 C230.82 512 215.64 512 200 512 C188.49662162 490.14358108 188.49662162 490.14358108 184.375 481.8125 C183.72724609 480.51022461 183.72724609 480.51022461 183.06640625 479.18164062 C182.04230487 477.12205896 181.02011793 475.06155665 180 473 C176.73700468 473 174.39033866 475.23989287 171.75 477 C139.59005993 497.90108154 101.399913 511.9918059 62.671875 512.203125 C61.80884262 512.21013931 60.94581024 512.21715363 60.05662537 512.22438049 C57.28769657 512.24178751 54.5189815 512.24823244 51.75 512.25 C50.33238876 512.25101212 50.33238876 512.25101212 48.88613892 512.25204468 C35.36184255 512.23667436 22.25876527 511.8964694 9 509 C8.15888672 508.82839355 7.31777344 508.65678711 6.45117188 508.47998047 C-24.67197849 502.0732834 -51.4255177 488.99605475 -78 472 C-78.49927002 473.03406982 -78.99854004 474.06813965 -79.51293945 475.13354492 C-81.37238338 478.98316498 -83.23492509 482.8312794 -85.09838867 486.67895508 C-85.90326664 488.34195952 -86.70731283 490.0053668 -87.51049805 491.66918945 C-88.66755303 494.06569033 -89.82762759 496.46070908 -90.98828125 498.85546875 C-91.52283684 499.96513252 -91.52283684 499.96513252 -92.06819153 501.09721375 C-92.73521091 502.4706632 -93.41579781 503.83764056 -94.11238098 505.19633484 C-95.11735522 507.16082116 -95.11735522 507.16082116 -96.10351562 509.97851562 C-98.433648 512.46223036 -99.24008904 512.366915 -102.56323242 512.56762695 C-104.49415885 512.56683494 -106.42519691 512.53856178 -108.35546875 512.48828125 C-109.37224197 512.48120651 -110.3890152 512.47413177 -111.43659973 512.46684265 C-114.68764484 512.43882918 -117.93697453 512.37607585 -121.1875 512.3125 C-123.38994911 512.28742621 -125.59242518 512.26461145 -127.79492188 512.24414062 C-133.19720096 512.1889801 -138.59847795 512.10528492 -144 512 C-138.0912333 499.45049443 -132.08759341 486.95069967 -125.99584961 474.48901367 C-124.66987987 471.77645419 -123.34555676 469.06309544 -122.02148438 466.34960938 C-121.16415581 464.59370444 -120.30673731 462.83784341 -119.44921875 461.08203125 C-118.86632332 459.8881353 -118.86632332 459.8881353 -118.27165222 458.67012024 C-117.71505669 457.53173958 -117.71505669 457.53173958 -117.1472168 456.37036133 C-116.79501068 455.64112457 -116.44280457 454.91188782 -116.07992554 454.16055298 C-115.34385868 452.68794085 -114.56991489 451.23380303 -113.7640686 449.79818726 C-113.18633194 448.75085922 -113.18633194 448.75085922 -112.59692383 447.68237305 C-112.06546501 446.76115913 -112.06546501 446.76115913 -111.52326965 445.82133484 C-110.78507628 443.93470744 -110.78507628 443.93470744 -111.79350281 441.89143372 C-113.24827254 439.61078147 -114.93195003 437.82184022 -116.8125 435.875 C-145.27515154 404.67116211 -162.16260229 363.50232658 -168 322 C-168.2626062 320.16755737 -168.2626062 320.16755737 -168.53051758 318.2980957 C-169.09400094 313.71339469 -169.17959056 309.16590135 -169.203125 304.55078125 C-169.20882507 303.65747604 -169.21452515 302.76417084 -169.22039795 301.84379578 C-169.22980217 299.95536462 -169.23636361 298.0669174 -169.24023438 296.1784668 C-169.24981972 293.36540761 -169.28083619 290.55311887 -169.3125 287.74023438 C-169.40819802 271.4055326 -167.71241806 255.31451106 -163.75 239.4375 C-163.53802979 238.57930664 -163.32605957 237.72111328 -163.10766602 236.83691406 C-154.12298379 201.6702309 -136.39633074 168.87530629 -111.375 142.55078125 C-108.97991093 140.04568372 -108.97991093 140.04568372 -106.9140625 137.37109375 C-105.18031186 135.22336592 -103.47852392 133.52233079 -101.375 131.75 C-99.16915994 129.8742309 -96.99604095 127.9962609 -94.890625 126.0078125 C-81.85170344 113.73324151 -66.88938038 104.13771319 -51 96 C-49.8855249 95.42040527 -49.8855249 95.42040527 -48.74853516 94.82910156 C-23.80372784 81.9713979 2.37824519 75.65851057 30 72 C30.33 61.44 30.66 50.88 31 40 C20.77 40 10.54 40 0 40 C0 26.8 0 13.6 0 0 Z M-78.54296875 167.52636719 C-100.81120983 189.92340915 -116.60590115 219.35607747 -124 250 C-124.19609863 250.78101074 -124.39219727 251.56202148 -124.59423828 252.36669922 C-130.83661209 278.21921218 -130.5507644 308.25373901 -124 334 C-123.79101074 334.84578613 -123.58202148 335.69157227 -123.36669922 336.56298828 C-111.34580845 383.88117629 -79.62438922 423.37983608 -38.02099609 448.1796875 C-20.18867574 458.51073287 -1.14950269 464.95173801 19 469 C20.15628906 469.23460937 21.31257812 469.46921875 22.50390625 469.7109375 C67.63985359 477.66593205 115.50936185 465.86080719 153 440 C189.11761729 414.64168413 215.61643455 377.03339479 226 334 C226.19609863 333.21898926 226.39219727 332.43797852 226.59423828 331.63330078 C232.83661209 305.78078782 232.5507644 275.74626099 226 250 C225.79101074 249.15421387 225.58202148 248.30842773 225.36669922 247.43701172 C213.34580845 200.11882371 181.62438922 160.62016392 140.02099609 135.8203125 C122.18867574 125.48926713 103.14950269 119.04826199 83 115 C81.84371094 114.76539062 80.68742188 114.53078125 79.49609375 114.2890625 C20.85723552 103.95424457 -37.05915836 126.48890159 -78.54296875 167.52636719 Z " fill="#000000" transform="translate(205,0)"/>
<path d="M0 0 C13.2 0 26.4 0 40 0 C39.71608398 3.56329102 39.43216797 7.12658203 39.13964844 10.79785156 C37.91192761 27.26649325 37.18502998 43.74269307 36.75 60.25 C36.72989034 60.98535477 36.70978068 61.72070953 36.68906164 62.47834778 C35.15028819 112.0429385 35.15028819 112.0429385 58.41287231 154.30767822 C62.42194868 158.45315383 66.6643358 162.27359389 71.0625 166 C71.77911301 166.60789871 72.49572601 167.21579742 73.23405457 167.84211731 C82.05590737 175.23135571 91.23658765 181.91048653 101 188 C99.1068216 192.12390399 96.32174632 194.93280604 93.1171875 198.078125 C92.54292023 198.64956238 91.96865295 199.22099976 91.37698364 199.80975342 C89.5476419 201.62792945 87.71145807 203.43901492 85.875 205.25 C84.63105226 206.48391329 83.3875573 207.71828322 82.14453125 208.953125 C79.10157633 211.97406743 76.05246746 214.98867092 73 218 C58.78935175 211.36488722 46.10177401 200.6477768 34.25 190.5625 C33.43602879 189.8715839 32.62205757 189.1806678 31.78342056 188.46881485 C10.22460408 169.80722294 -1.61325837 150.39882329 -3.92137563 122.10512513 C-5.16633986 104.47898507 -4.93303059 86.83283354 -4.3125 69.1875 C-4.26883836 67.91408052 -4.26883836 67.91408052 -4.22429466 66.6149354 C-3.44652886 44.35067423 -1.95974563 22.19166138 0 0 Z " fill="#000000" transform="translate(236,155)"/>
<path d="M0 0 C2.2858893 4.92628903 4.56434223 9.85592175 6.8359375 14.78881836 C7.60993692 16.4668452 8.38596894 18.14393603 9.1640625 19.82006836 C10.28138906 22.22787858 11.39138998 24.63894771 12.5 27.05078125 C12.84998047 27.80087967 13.19996094 28.55097809 13.56054688 29.32380676 C16 34.65838488 16 34.65838488 16 38 C15.37657715 38.31638428 14.7531543 38.63276855 14.11083984 38.95874023 C2.02406764 45.11571126 -9.83101338 51.28025925 -21 59 C-21.56976563 59.38865234 -22.13953125 59.77730469 -22.7265625 60.17773438 C-36.11880257 69.33696464 -48.18934423 79.9046129 -60 91 C-60.65613281 91.61359375 -61.31226562 92.2271875 -61.98828125 92.859375 C-67.1406093 97.83403656 -71.54330284 103.40602765 -76 109 C-76.88906358 110.09786632 -77.77839406 111.19551653 -78.66796875 112.29296875 C-85.30025699 120.53899243 -91.26141466 129.1120392 -97 138 C-101.1159299 136.4958715 -104.80005093 134.47716472 -108.54296875 132.2265625 C-109.15263992 131.86154633 -109.7623111 131.49653015 -110.39045715 131.12045288 C-111.67162983 130.35093424 -112.95153329 129.57929892 -114.23022461 128.80566406 C-116.18600119 127.62590411 -118.15032299 126.46133966 -120.11523438 125.296875 C-121.36253374 124.54519028 -122.60929762 123.79261616 -123.85546875 123.0390625 C-125.55159302 122.02126709 -125.55159302 122.02126709 -127.28198242 120.98291016 C-129.90133465 119.0719806 -130.94027235 118.00655194 -132 115 C-125.05600486 104.35026328 -118.05554687 93.8519998 -110 84 C-109.32759277 83.17314697 -109.32759277 83.17314697 -108.64160156 82.32958984 C-101.66508285 73.82921456 -94.12270614 65.92412442 -86.375 58.125 C-85.51672607 57.25746094 -84.65845215 56.38992187 -83.77416992 55.49609375 C-77.82625806 49.5770745 -71.57930152 44.20368843 -65 39 C-64.39140137 38.51176758 -63.78280273 38.02353516 -63.15576172 37.52050781 C-16.18839087 0 -16.18839087 0 0 0 Z " fill="#000000" transform="translate(133,19)"/>
<path d="M0 0 C6.0448958 1.90279838 11.40318298 4.6245574 17 7.5625 C18.02947754 8.10261719 19.05895508 8.64273437 20.11962891 9.19921875 C28.04688029 13.40515945 35.61291106 17.8967922 43 23 C43.66692871 23.45342773 44.33385742 23.90685547 45.02099609 24.37402344 C54.84179335 31.061189 64.09907314 38.13350518 73 46 C74.18335938 47.01707031 74.18335938 47.01707031 75.390625 48.0546875 C87.87291679 58.96607862 99.95307554 70.79445097 110 84 C111.03403371 85.3185894 112.06929156 86.63621933 113.10546875 87.953125 C118.4249991 94.754844 123.62751838 101.6386958 128.4375 108.8125 C128.83324219 109.38073486 129.22898437 109.94896973 129.63671875 110.53442383 C130.68359375 112.14453125 130.68359375 112.14453125 132 115 C130.7997588 119.33152007 127.54243846 120.82661797 123.85546875 123.0390625 C123.24866776 123.40599213 122.64186676 123.77292175 122.01667786 124.15097046 C120.73429165 124.92380025 119.44894578 125.69173735 118.16088867 126.45507812 C116.19893935 127.61821819 114.24636531 128.7958986 112.29492188 129.9765625 C111.04479413 130.72743443 109.79415905 131.47746247 108.54296875 132.2265625 C107.96258347 132.57554596 107.38219818 132.92452942 106.78422546 133.28408813 C103.60695508 135.16200341 100.4673219 136.73289929 97 138 C96.67427002 137.50822266 96.34854004 137.01644531 96.01293945 136.50976562 C84.90873014 119.82149292 72.83944804 104.49554039 59 90 C58.36707031 89.32582031 57.73414063 88.65164062 57.08203125 87.95703125 C52.13211551 82.8189952 46.57008874 78.44187969 41 74 C39.92531737 73.12296395 38.85111065 72.24534446 37.77734375 71.3671875 C21.28087601 57.99485081 3.00801281 47.38640903 -16 38 C-15.34272789 33.40687362 -13.55614943 29.46349875 -11.62109375 25.29296875 C-11.28956802 24.56757401 -10.9580423 23.84217926 -10.61647034 23.09480286 C-9.56176506 20.79006042 -8.49975466 18.48877119 -7.4375 16.1875 C-6.71891551 14.62066529 -6.00081117 13.05361028 -5.28320312 11.48632812 C-3.52768627 7.65497824 -1.76561233 3.8267074 0 0 Z " fill="#000000" transform="translate(379,19)"/>
</svg>
