<?xml version="1.0" encoding="UTF-8"?>
<svg version="1.1" xmlns="http://www.w3.org/2000/svg" width="512" height="512">
<path d="M0 0 C2.85490153 0.00850831 5.70779497 -0.02033211 8.5625 -0.05200195 C27.01014029 -0.12366176 42.71208058 3.37849819 56.3671875 16.75854492 C62.59140259 23.29711431 66.79604754 29.83579151 69.4921875 38.44604492 C70.7503125 38.10831055 72.0084375 37.77057617 73.3046875 37.42260742 C105.19673325 29.02616697 137.81546436 28.86030843 169.4921875 38.44604492 C169.91177734 37.10606445 169.91177734 37.10606445 170.33984375 35.73901367 C174.87012919 22.79314713 185.14884508 12.27963875 197.20336914 5.99804688 C209.019269 0.42209294 220.26075212 -0.19098176 233.09594727 -0.07543945 C235.92226191 -0.05401138 238.74602817 -0.07533093 241.57226562 -0.10083008 C262.00151136 -0.13426217 279.12957812 4.54296872 294.25 19.04370117 C306.52258769 32.19290227 312.78487279 47.07175853 312.828125 64.93041992 C312.8347818 65.9078717 312.8414386 66.88532349 312.84829712 67.89239502 C312.85836621 69.94964737 312.86311593 72.00693201 312.86279297 74.06420898 C312.86715631 77.1738198 312.90351124 80.28199779 312.94140625 83.39135742 C313.05076458 102.6157806 309.37323819 116.71412302 295.92578125 131.11401367 C290.39917678 136.40997334 284.8406933 140.23404896 277.4921875 142.44604492 C277.66347168 143.10499756 277.83475586 143.7639502 278.01123047 144.44287109 C290.21318095 191.62347166 289.0326711 238.19530686 264.18041992 281.42724609 C257.97324947 291.86945411 250.69246272 301.48111381 242.4921875 310.44604492 C243.95425525 314.44405191 245.86702643 317.90555837 248.08984375 321.53198242 C248.4404184 322.10647125 248.79099304 322.68096008 249.15219116 323.27285767 C250.28296711 325.12435069 251.41885842 326.97264849 252.5546875 328.82104492 C253.33060246 330.0903055 254.10607361 331.35983748 254.88110352 332.62963867 C256.39883281 335.11584666 257.918 337.60116462 259.43847656 340.08569336 C261.95092322 344.19664388 264.44812641 348.3163913 266.9296875 352.44604492 C267.58839844 353.53916992 268.24710937 354.63229492 268.92578125 355.75854492 C272.31680404 361.57655908 273.36279232 365.6531777 272.4921875 372.44604492 C270.8046875 375.82104492 270.8046875 375.82104492 268.4921875 378.44604492 C267.8321875 379.22979492 267.1721875 380.01354492 266.4921875 380.82104492 C261.7596908 383.38448063 256.74715641 383.36583356 251.4921875 382.44604492 C246.54672574 379.86148199 243.92495781 376.66940738 241.1796875 371.94604492 C240.7787085 371.28475586 240.37772949 370.6234668 239.96459961 369.94213867 C238.45863928 367.45224035 236.97469221 364.94998414 235.4921875 362.44604492 C232.90837214 358.08457218 230.31527972 353.72888483 227.70889282 349.38085938 C226.56110828 347.45680819 225.42722919 345.52500441 224.29370117 343.5925293 C223.58050678 342.39751468 222.86674602 341.20283784 222.15234375 340.00854492 C221.51949463 338.93733398 220.88664551 337.86612305 220.23461914 336.76245117 C219.37211548 335.61583008 219.37211548 335.61583008 218.4921875 334.44604492 C214.45321687 334.44604492 212.93271921 336.02323038 209.6171875 338.32104492 C174.90119317 361.4681448 129.89315833 369.96695508 88.99658203 361.95727539 C64.47684992 356.85450801 42.14287085 347.82503925 21.4921875 333.44604492 C20.17670828 335.52754029 18.86461411 337.61105485 17.5546875 339.69604492 C16.91043823 340.71939941 16.91043823 340.71939941 16.25317383 341.76342773 C13.1792943 346.67363036 10.18203282 351.62497243 7.21875 356.60229492 C6.08387048 358.50031984 4.94834629 360.39795786 3.81271362 362.29553223 C3.06033447 363.5575562 2.31137969 364.82162828 1.56594849 366.08776855 C0.50174203 367.89473364 -0.57416803 369.69426489 -1.65234375 371.49291992 C-2.27471924 372.54318359 -2.89709473 373.59344727 -3.53833008 374.67553711 C-6.0031551 378.14285263 -8.69943814 380.54185774 -12.5078125 382.44604492 C-17.36581067 383.02841496 -22.35255212 383.5809762 -26.78515625 381.24682617 C-30.44486124 378.17514989 -32.82868711 375.12107317 -34.01953125 370.43041992 C-34.75153827 361.12579742 -29.20028757 353.99702411 -24.5078125 346.44604492 C-23.17844025 344.26972296 -21.85040881 342.09258164 -20.5234375 339.91479492 C-17.75713662 335.38464245 -14.97574186 330.86417191 -12.1796875 326.35229492 C-11.55384766 325.33522461 -10.92800781 324.3181543 -10.28320312 323.27026367 C-9.17073513 321.50059511 -8.02777595 319.74934474 -6.84179688 318.02807617 C-5.23121196 315.74559547 -5.23121196 315.74559547 -3.5078125 312.44604492 C-4.85210107 308.78102151 -7.30933804 306.27766264 -9.8828125 303.38354492 C-37.75947693 270.8092036 -49.84946389 226.95443692 -46.8828125 184.63354492 C-45.74502137 170.17327333 -42.56813993 156.33762812 -38.5078125 142.44604492 C-39.38824219 142.18823242 -40.26867187 141.93041992 -41.17578125 141.66479492 C-54.89020924 136.6484977 -63.92944522 124.56629567 -70.09765625 111.93823242 C-73.09449896 104.51668843 -73.81637937 97.94519467 -73.80859375 90.02416992 C-73.81287888 89.04293152 -73.817164 88.06169312 -73.82157898 87.05072021 C-73.8272962 84.98328417 -73.82784189 82.91582803 -73.82348633 80.84838867 C-73.82033574 77.7191249 -73.84378646 74.5908165 -73.86914062 71.46166992 C-73.93629891 51.13157754 -70.04942759 34.52407979 -55.71679688 19.45751953 C-40.00562775 3.72744081 -21.42885075 -0.09723708 0 0 Z M-35.5078125 43.44604492 C-37.45018548 46.33724972 -39.03360398 49.29387548 -40.5078125 52.44604492 C-41.1265625 53.68354492 -41.1265625 53.68354492 -41.7578125 54.94604492 C-43.96106539 62.29022122 -43.69029586 70.28333694 -43.6953125 77.88354492 C-43.70755859 78.85614258 -43.71980469 79.82874023 -43.73242188 80.83081055 C-43.75340557 91.30167457 -42.73432617 100.42674916 -35.5078125 108.44604492 C-32.69853674 110.81427397 -29.88455268 112.96671113 -26.5078125 114.44604492 C-22.46999196 113.10010474 -21.41035778 110.48233187 -19.3203125 107.00854492 C-15.43903064 100.78366906 -11.3049358 95.01210602 -6.5078125 89.44604492 C-5.68667969 88.49084961 -4.86554688 87.5356543 -4.01953125 86.55151367 C8.73627164 72.03338049 24.03200079 61.37891621 40.4921875 51.44604492 C39.30596527 44.54967451 35.74379077 40.40478746 30.6640625 35.84057617 C24.79985668 32.07524977 19.06943578 30.97923131 12.2578125 30.97729492 C11.49853455 30.9696814 10.73925659 30.96206787 9.95697021 30.95422363 C8.36034403 30.9434907 6.76364803 30.94054159 5.16699219 30.94506836 C2.76113814 30.94603729 0.35851739 30.90441469 -2.046875 30.86010742 C-14.99118945 30.75946128 -26.65451474 33.13431528 -35.5078125 43.44604492 Z M201.4921875 42.44604492 C199.49373516 45.79828756 198.4921875 47.55780126 198.4921875 51.44604492 C200.85900298 53.10190428 203.18817666 54.5634968 205.6796875 56.00854492 C229.08577845 70.13670925 246.80717258 88.5132819 261.4921875 111.44604492 C262.4821875 112.93104492 262.4821875 112.93104492 263.4921875 114.44604492 C269.95969175 112.86860486 274.43288103 109.65941003 278.01171875 104.07495117 C284.92124662 90.99264625 284.30213725 71.31278435 281.3046875 57.01245117 C278.22207174 47.27553503 272.94116196 40.12884483 264.07714844 35.06689453 C255.58534546 31.07580798 247.95551044 30.70244123 238.75537109 30.84912109 C236.363068 30.8836043 233.97444161 30.86967886 231.58203125 30.8503418 C219.40953853 30.8607669 209.41993171 32.27210652 201.4921875 42.44604492 Z M31.4921875 94.44604492 C30.656875 95.11893555 29.8215625 95.79182617 28.9609375 96.48510742 C24.31376238 100.39945877 20.35980663 104.77090092 16.4921875 109.44604492 C15.85410156 110.1962793 15.21601563 110.94651367 14.55859375 111.71948242 C-1.54706545 131.12162158 -12.92484932 156.23763216 -15.5078125 181.44604492 C-15.64058594 182.67709961 -15.77335937 183.9081543 -15.91015625 185.17651367 C-19.06286631 219.71113373 -8.76457943 255.70701243 13.4921875 282.44604492 C16.40643664 285.86624009 19.40843242 289.17834655 22.4921875 292.44604492 C23.16507813 293.18338867 23.83796875 293.92073242 24.53125 294.68041992 C47.31788429 318.7472022 81.13759714 332.52285042 114.04296875 333.64916992 C152.43895114 334.27953374 187.06156894 320.93931525 214.89331055 294.44799805 C241.14478609 268.7023935 254.87710543 234.0253372 255.4921875 197.44604492 C255.23242703 160.81981822 240.15810256 127.00640246 214.6171875 101.07104492 C207.77979856 94.33004851 200.62987167 88.53237493 192.4921875 83.44604492 C191.57300537 82.865 191.57300537 82.865 190.63525391 82.2722168 C140.10998528 50.82506165 77.00579323 57.66218661 31.4921875 94.44604492 Z " fill="#000000" transform="translate(136.5078125,129.553955078125)"/>
<path d="M0 0 C4.61581142 2.18643699 6.72864085 4.49599804 9 9 C9.43359375 11.90234375 9.43359375 11.90234375 9.4375 14.9375 C9.45683594 15.93652344 9.47617187 16.93554688 9.49609375 17.96484375 C8.66756474 23.03387555 6.16978389 26.14243116 2.06738281 29.14990234 C0.95717773 29.78879395 -0.15302734 30.42768555 -1.296875 31.0859375 C-1.89050842 31.43258453 -2.48414185 31.77923157 -3.09576416 32.13638306 C-4.97335215 33.22888613 -6.86116987 34.30207505 -8.75 35.375 C-10.03327873 36.11723468 -11.31583901 36.86071298 -12.59765625 37.60546875 C-15.723597 39.41809348 -18.85899493 41.21357718 -22 43 C-20.91460937 43.53109375 -19.82921875 44.0621875 -18.7109375 44.609375 C-17.26551761 45.3226991 -15.82021111 46.03625301 -14.375 46.75 C-13.66214844 47.09804688 -12.94929688 47.44609375 -12.21484375 47.8046875 C0.36844001 54.0386079 0.36844001 54.0386079 3.37109375 60.78515625 C4.85923201 66.02599098 3.9201556 70.33598029 1.328125 75.0234375 C-1.28754275 78.36763016 -3.5637602 79.91281399 -7.25 82 C-7.88550781 82.36609375 -8.52101563 82.7321875 -9.17578125 83.109375 C-10.6212807 83.94155039 -12.0700804 84.76800981 -13.52148438 85.58984375 C-17.32362798 87.75308069 -21.09664617 89.96573206 -24.87329102 92.1730957 C-26.95586151 93.38992049 -29.03968305 94.60460669 -31.12475586 95.81713867 C-37.66422256 99.62096569 -44.17532536 103.46616519 -50.62304688 107.42382812 C-56.75869817 111.15762304 -61.91086655 111.70078826 -69 111 C-73.85390614 108.88193186 -76.26254688 105.95245744 -78.37109375 101.21484375 C-79.8528264 95.99656788 -78.9173126 91.69129511 -76.375 87.00390625 C-73.66593478 83.57747343 -70.75707416 81.64265829 -67 79.5625 C-66.34443115 79.18488525 -65.6888623 78.80727051 -65.01342773 78.41821289 C-63.6708439 77.64593878 -62.32504694 76.87922337 -60.97607422 76.11816406 C-57.98462414 74.4254483 -55.02617832 72.67835267 -52.0625 70.9375 C-50.37557202 69.95734817 -48.68830818 68.97777252 -47 68 C-47.92941406 67.54109375 -48.85882813 67.0821875 -49.81640625 66.609375 C-53.55386352 64.75831875 -57.27859119 62.88312253 -61 61 C-61.77472656 60.61070313 -62.54945313 60.22140625 -63.34765625 59.8203125 C-68.22974168 57.22368684 -71.24076422 54.27770735 -73 49 C-73.3663489 43.41317933 -73.29877014 39.74198207 -70 35 C-64.01207267 29.70490657 -56.92167153 25.91146273 -50 22 C-47.68401344 20.68771751 -45.36862146 19.3744829 -43.0546875 18.05859375 C-42.46912079 17.72613144 -41.88355408 17.39366913 -41.28024292 17.0511322 C-37.25948938 14.75541208 -33.31232994 12.36006966 -29.3828125 9.91015625 C-28.32964844 9.26369141 -27.27648437 8.61722656 -26.19140625 7.95117188 C-24.20439455 6.72732454 -22.22942252 5.48362126 -20.26953125 4.21679688 C-13.52158613 0.1078996 -7.88448056 -1.15415375 0 0 Z " fill="#000000" transform="translate(503,0)"/>
<path d="M0 0 C4.8694367 2.08690144 7.28588548 5.04269037 9.359375 9.8046875 C10.82740494 14.83537548 10.08650246 18.84391879 7.74609375 23.48828125 C5.94296156 26.42108662 4.0125871 29.20609659 2 32 C1.53577637 32.64469238 1.07155273 33.28938477 0.59326172 33.95361328 C-2.56773747 38.33014447 -5.77109113 42.6733789 -9 47 C-8.3702124 47.01458252 -7.7404248 47.02916504 -7.09155273 47.04418945 C-4.20628679 47.11918994 -1.32211277 47.21567639 1.5625 47.3125 C2.55314453 47.33505859 3.54378906 47.35761719 4.56445312 47.38085938 C11.55725906 47.63641042 17.21122776 48.13585554 22.3125 53.375 C25.53853098 58.39327041 26.33526779 61.65916876 25.60473633 67.53417969 C24.509334 72.00069704 21.88689236 75.34668125 19.1875 79 C18.31170288 80.23049072 18.31170288 80.23049072 17.41821289 81.48583984 C16.21125496 83.1790671 14.99694514 84.86707757 13.77539062 86.54980469 C11.62041045 89.52386699 9.51108446 92.52825957 7.40405273 95.53637695 C5.94076344 97.62035231 4.46552502 99.69543118 2.98828125 101.76953125 C0.88944555 104.72398745 -1.16854547 107.70282341 -3.20703125 110.69921875 C-3.7373999 111.47120605 -4.26776855 112.24319336 -4.81420898 113.03857422 C-5.8238106 114.50946887 -6.82521844 115.98603594 -7.81665039 117.46923828 C-11.35993292 122.60020422 -14.93477454 125.97825818 -21 128 C-26.25765945 128.39680449 -29.56102842 127.89498146 -34 125 C-38.24112956 121.04161241 -39.57594342 118.16035504 -40.25 112.44140625 C-39.49953432 105.11263986 -34.59750394 99.15893855 -30.5 93.3125 C-29.91863281 92.47138672 -29.33726562 91.63027344 -28.73828125 90.76367188 C-26.21815868 87.12765979 -23.67044092 83.52758878 -21 80 C-21.69037354 79.9906543 -22.38074707 79.98130859 -23.09204102 79.97167969 C-26.2495597 79.91767333 -29.40564488 79.83408531 -32.5625 79.75 C-34.19155273 79.72873047 -34.19155273 79.72873047 -35.85351562 79.70703125 C-42.41400883 79.50762416 -46.66890167 78.9231604 -52 75 C-55.46261032 70.96028796 -56.35356691 66.21932107 -56 61 C-53.63089076 52.44659261 -46.80943113 44.98639072 -41.62109375 37.94921875 C-37.27397789 32.04457376 -33.10032586 26.02166607 -28.93383789 19.98876953 C-13.79938287 -1.79747728 -13.79938287 -1.79747728 0 0 Z " fill="#000000" transform="translate(271,0)"/>
<path d="M0 0 C4.39649545 1.73501 8.26202724 4.10477581 12.25 6.625 C13.945256 7.6516195 15.64053086 8.6782098 17.33706665 9.70271301 C19.0763751 10.75758314 20.80846392 11.82360654 22.54003906 12.89111328 C25.90610027 14.95612845 29.31682405 16.93704523 32.7421875 18.90234375 C33.8156543 19.51835449 34.88912109 20.13436523 35.99511719 20.76904297 C38.02397187 21.93159886 40.05324316 23.09342812 42.08300781 24.25439453 C58.73279636 33.91498862 58.73279636 33.91498862 61 41 C61.75779615 46.39117835 61.07241136 50.39138296 58 55 C53.58605297 59.14844646 49.26990466 61.48452914 43.6875 63.75 C39.00971767 65.3730133 39.00971767 65.3730133 35 68 C36.15000488 68.64231567 36.15000488 68.64231567 37.32324219 69.29760742 C40.183184 70.90150542 43.03752987 72.51458152 45.88867188 74.1340332 C47.12030157 74.83110589 48.35400528 75.52452789 49.58984375 76.21411133 C51.37286153 77.20986924 53.14783984 78.21881349 54.921875 79.23046875 C56.52434082 80.13381958 56.52434082 80.13381958 58.15917969 81.05541992 C62.54627012 84.05844289 65.70008719 87.80034877 67 93 C67.10046539 99.01676087 65.99945992 103.33396343 62 108 C58.18068311 111.47210627 54.05747908 111.64726388 49.08398438 111.45410156 C45.78108657 110.96776607 43.7863065 110.0733226 40.91015625 108.41015625 C39.47736328 107.59260864 39.47736328 107.59260864 38.015625 106.75854492 C37.02046875 106.1782251 36.0253125 105.59790527 35 105 C34.01 104.43708252 33.02 103.87416504 32 103.29418945 C25.40941306 99.54595095 18.85714136 95.7310395 12.30419922 91.91748047 C9.21059108 90.12220943 6.10803928 88.3433911 3.00390625 86.56640625 C1.21038235 85.52439245 -0.58261905 84.48147859 -2.375 83.4375 C-3.60367798 82.74213135 -3.60367798 82.74213135 -4.85717773 82.03271484 C-10.18865047 78.89348007 -13.73814429 75.82500011 -15.75 69.7265625 C-16.34164959 64.75300816 -15.96156538 61.13830352 -13.40234375 56.76953125 C-9.27737964 51.56449297 -2.51581376 49.24042826 3.2890625 46.34765625 C4.25936401 45.86335144 4.25936401 45.86335144 5.24926758 45.3692627 C6.83261646 44.57905026 8.41627666 43.78946168 10 43 C9.20303711 42.5467334 8.40607422 42.0934668 7.58496094 41.62646484 C4.61142683 39.92649774 1.64562769 38.21435647 -1.31591797 36.49365234 C-2.59529361 35.75367517 -3.87749485 35.01855985 -5.16259766 34.28857422 C-7.01722329 33.23392675 -8.86073524 32.16178485 -10.703125 31.0859375 C-11.81333008 30.4470459 -12.92353516 29.8081543 -14.06738281 29.14990234 C-18.15474757 26.15345429 -20.63966304 23.03484404 -21.53125 18 C-21.46769754 11.89896359 -21.40861188 7.64691523 -17 3 C-11.47561289 -0.88209694 -6.56330384 -1.03351365 0 0 Z " fill="#000000" transform="translate(21,0)"/>
<path d="M0 0 C3.17757471 2.72363547 5.31211824 4.97913708 5.90289116 9.26690483 C6.02300671 11.78588401 6.04169017 14.28845588 6.02905273 16.81030273 C6.03591599 17.7669986 6.04277924 18.72369446 6.04985046 19.7093811 C6.06813159 22.86760353 6.06427899 26.02532983 6.05859375 29.18359375 C6.06315493 31.38167991 6.06846031 33.57976464 6.07447815 35.77784729 C6.08341186 40.38361404 6.08098309 44.98920743 6.07104492 49.5949707 C6.05955536 55.49429992 6.07976565 61.39303057 6.10896206 67.29228115 C6.12731696 71.83136287 6.12703297 76.37030096 6.12132454 80.90941048 C6.12117124 83.08429873 6.12722292 85.25919666 6.13961601 87.43404961 C6.15451027 90.47651485 6.14385984 93.51787193 6.12670898 96.56030273 C6.13637695 97.45659897 6.14604492 98.3528952 6.15600586 99.27635193 C6.05765461 107.6174246 2.34051934 111.7828643 -3.44726562 117.58105469 C-4.18465218 118.3236982 -4.18465218 118.3236982 -4.93693542 119.0813446 C-6.54674804 120.69988735 -8.16367883 122.31108898 -9.78125 123.921875 C-10.90967538 125.0516491 -12.03780385 126.18171983 -13.16564941 127.31207275 C-15.52272471 129.67208713 -17.88335545 132.02847 -20.24658203 134.38232422 C-23.27298622 137.3973084 -26.29028738 140.42121839 -29.30500031 143.44788742 C-31.62967077 145.77978698 -33.95908619 148.10689958 -36.28996277 150.4325943 C-37.40458417 151.54588347 -38.51772714 152.66065491 -39.62934875 153.77693939 C-41.18235245 155.3350284 -42.74163402 156.88655244 -44.30273438 158.43652344 C-45.18779663 159.31999451 -46.07285889 160.20346558 -46.98474121 161.1137085 C-51.73516384 165.35939418 -55.45191363 165.68656428 -61.6796875 165.5703125 C-66.44241463 165.00430725 -69.11443406 162.6844371 -72.1875 159.1875 C-74.65196408 155.16653229 -75.0516461 150.84958242 -74.375 146.25 C-72.47456321 140.46495593 -68.82463728 138.12659029 -64.04785156 134.77833557 C-47.31943829 122.94010074 -27.37651918 107.71870796 -23.56782722 86.43919849 C-20.49803476 64.64437397 -21.91536209 41.87477601 -23.80639648 20.01878357 C-23.87078478 19.20082023 -23.93517307 18.38285688 -24.00151253 17.54010677 C-24.12331541 16.02719203 -24.26297241 14.51555239 -24.42480278 13.00639439 C-24.82850511 7.84364027 -23.620564 5.21612217 -20.375 1.25 C-14.00404984 -3.97499767 -7.04907965 -3.65507834 0 0 Z " fill="#000000" transform="translate(265.375,226.75)"/>
</svg>
