<?xml version="1.0" encoding="UTF-8"?>
<svg version="1.1" xmlns="http://www.w3.org/2000/svg" width="512" height="512">
<path d="M0 0 C2.95399463 2.18214228 3.89620362 3.36265848 4.49219131 7.02220535 C4.48850414 8.21316189 4.48481697 9.40411842 4.48101807 10.63116455 C4.48443577 11.29611773 4.48785347 11.96107091 4.49137473 12.64617419 C4.49796027 14.87295401 4.47596861 17.09852669 4.45410156 19.32519531 C4.45297322 20.92182385 4.45360669 22.51845446 4.45587158 24.11508179 C4.45702018 28.44959901 4.43348744 32.78367429 4.40557575 37.11808872 C4.38058634 41.64777453 4.37822204 46.17747025 4.37347412 50.70721436 C4.3610371 59.28492623 4.32820568 67.86243442 4.28807616 76.44005656 C4.24338104 86.20535193 4.2213771 95.97065698 4.20129442 105.73602915 C4.15947367 125.82413316 4.0891075 145.91205375 4 166 C4.81431488 166.06162827 5.62862976 166.12325653 6.46762085 166.18675232 C8.07765488 166.31365196 8.07765488 166.31365196 9.72021484 166.44311523 C10.78202972 166.5253685 11.8438446 166.60762177 12.93783569 166.69236755 C16.97183425 167.09763282 20.73866497 167.93657374 24.625 169.0625 C25.37716797 169.27656494 26.12933594 169.49062988 26.90429688 169.71118164 C57.1659028 178.7488542 57.1659028 178.7488542 64 189 C64.41857482 192.83693587 64.54644269 195.11203064 62.5 198.4375 C59.02644856 200.60846965 55.945107 200.60401714 52 200 C48.79891317 198.73847916 45.90258712 197.04822792 42.9375 195.3125 C32.51899273 189.53593203 22.40458283 185.91279581 10.7512207 183.43530273 C9.48776321 183.1662059 8.22430573 182.89710907 6.92256165 182.61985779 C5.9581163 182.41530472 4.99367096 182.21075165 4 182 C3.92029735 198.69885066 3.89208103 215.39687616 3.92484188 232.09584904 C3.93885901 239.8498823 3.93614769 247.60323054 3.89379883 255.35717773 C3.85692167 262.11709486 3.85169296 268.87617661 3.88417059 275.63612932 C3.90026525 279.21452245 3.90071377 282.79134921 3.86323357 286.36961555 C3.82193925 290.36872055 3.85132464 294.36436137 3.88647461 298.36352539 C3.86346786 299.54460373 3.84046112 300.72568207 3.8167572 301.94255066 C3.89242613 308.11381121 3.89242613 308.11381121 6.95417976 313.26003838 C9.2286229 315.06207434 11.48000889 316.56670038 14 318 C14.60871917 318.3728264 15.21743834 318.74565279 15.84460354 319.12977695 C31.7232871 328.41658215 50.49877824 330.83292568 68.5 326.9375 C90.18001628 320.25230766 104.13970651 304.27855072 118.53051758 287.6640625 C119.6438848 286.40326984 120.81063364 285.18936636 122 284 C121.75641144 279.40979899 119.38813593 276.09630662 116.87890625 272.40625 C116.46011703 271.77827515 116.04132782 271.15030029 115.60984802 270.5032959 C114.72005888 269.17279702 113.82633048 267.84492529 112.92895508 266.51953125 C111.58960051 264.54005278 110.26353603 262.55221635 108.93945312 260.5625 C101.67871124 249.71317877 93.92171567 239.2932991 85.5 229.3125 C85.05350098 228.78197021 84.60700195 228.25144043 84.14697266 227.70483398 C80.34618623 223.2541064 76.23578826 219.25012342 71.8984375 215.31640625 C69.58680165 212.49583 69.17580217 210.61371119 69 207 C70.13779872 204.67268444 71.16840714 202.83159286 73 201 C76.97959268 200.44146068 79.57025129 200.09642085 83.02734375 202.28125 C85.11926528 204.1039143 87.06301518 206.01373768 89 208 C89.97259766 208.92039063 89.97259766 208.92039063 90.96484375 209.859375 C108.30207312 226.47565028 121.45332053 247.72186876 134 268 C137.97128431 266.18476645 140.45470549 263.60589546 143.3125 260.375 C143.80105469 259.83230469 144.28960937 259.28960937 144.79296875 258.73046875 C147.9391296 255.22641129 151.04081811 251.68367141 154.125 248.125 C157.01851009 244.84568857 159.99088359 241.63893288 162.953125 238.421875 C165.50555143 235.64505943 168.02983288 232.85019283 170.5 230 C173.9067735 226.0691075 177.43002785 222.24803427 180.953125 218.421875 C183.50555143 215.64505943 186.02983288 212.85019283 188.5 210 C191.9067735 206.0691075 195.43002785 202.24803427 198.953125 198.421875 C201.50555143 195.64505943 204.02983288 192.85019283 206.5 190 C223.22701276 170.78599734 241.259648 154.37985827 268 152 C284.33446118 151.05018842 299.08528335 152.81044736 314 160 C315.36898437 160.62841797 315.36898437 160.62841797 316.765625 161.26953125 C331.66053483 168.65315084 342.93204124 182.67124623 353.02734375 195.49609375 C359.48202279 203.6890626 366.20281858 211.67790527 372.83520508 219.72729492 C377.56976193 225.4743373 382.28963578 231.23310549 387 237 C389.335667 239.85897954 391.67165825 242.71743815 394.01953125 245.56640625 C395.14577302 246.95032859 396.25818334 248.34652927 397.32421875 249.77734375 C406.12352132 261.41712294 421.11639255 266.94667922 435 269 C449.95020174 270.72421455 465.43368663 265.19229555 477.1875 256.1875 C480.41344742 253.53617447 483.07652074 250.81456792 485.6875 247.5625 C488.10983963 244.67279131 488.89011375 244.03789181 492.625 242.75 C496 243 496 243 498.9375 244.4375 C501.18906185 247.23489503 501.92409315 249.11849245 501.65625 252.734375 C498.51620379 263.57501073 485.86890345 271.70587197 476.47265625 277.078125 C469.18133637 280.91311755 462.08915857 283.47719153 454 285 C452.865625 285.226875 451.73125 285.45375 450.5625 285.6875 C428.92048175 287.58592265 408.67930508 282.65689046 391.88671875 268.58984375 C384.82612408 262.25537249 379.09097726 254.93390999 373.30297852 247.46289062 C369.9248594 243.11766527 366.41460164 238.91090158 362.8125 234.75 C358.85762054 230.18081883 355.00195826 225.5621069 351.25390625 220.8203125 C347.62693165 216.28187981 343.91940626 211.80991972 340.21899414 207.33129883 C337.57887507 204.13506578 334.94089459 200.93833886 332.34375 197.70703125 C319.97871423 182.35660157 306.98560056 174.41135475 288 169 C288.02094727 170.09989258 288.04189453 171.19978516 288.06347656 172.33300781 C288.13593635 176.41799881 288.18182115 180.50293314 288.21972656 184.58837891 C288.2398285 186.35572872 288.26711472 188.12301213 288.30175781 189.89013672 C288.35034009 192.43213285 288.37298226 194.97324896 288.390625 197.515625 C288.41127014 198.30430969 288.43191528 199.09299438 288.45318604 199.90557861 C288.45463996 203.46896189 288.31134018 205.57071011 286.19042969 208.49511719 C282.93618818 210.7308667 280.85499496 210.60868341 277 210 C274.341693 208.02633904 272.33542472 206.45708458 271.56698608 203.11898804 C271.42156076 200.8685715 271.43748401 198.6718513 271.51171875 196.41796875 C271.51879349 195.60378983 271.52586823 194.7896109 271.53315735 193.95075989 C271.56104402 191.36205357 271.62376684 188.77554727 271.6875 186.1875 C271.7125905 184.42776572 271.73540236 182.66799737 271.75585938 180.90820312 C271.81085128 176.60462704 271.89708008 172.3026859 272 168 C244.85458033 174.94276258 229.6766676 188.40748821 211.57397461 209.19628906 C209.61340809 211.44301862 207.62355847 213.66203679 205.625 215.875 C204.86445313 216.71804687 204.10390625 217.56109375 203.3203125 218.4296875 C202.55460938 219.27789062 201.78890625 220.12609375 201 221 C199.49971321 222.66640851 197.99971128 224.33307353 196.5 226 C184.5 239.33333333 172.5 252.66666667 160.5 266 C159.76652344 266.81726563 159.03304687 267.63453125 158.27734375 268.4765625 C156.69527673 270.22959045 155.10338842 271.97378472 153.50390625 273.7109375 C152.29541016 275.02964844 152.29541016 275.02964844 151.0625 276.375 C150.33160156 277.16648437 149.60070312 277.95796875 148.84765625 278.7734375 C147.10840025 280.86936968 145.94598185 282.45895545 145 285 C145.50199772 286.87002582 145.50199772 286.87002582 146.71875 288.625 C147.14937744 289.32149658 147.58000488 290.01799316 148.02368164 290.7355957 C148.5108667 291.48284912 148.99805176 292.23010254 149.5 293 C150.24527954 294.17792114 150.24527954 294.17792114 151.00561523 295.37963867 C159.97363756 309.39485124 169.6317715 322.98681525 180 336 C180.75796875 336.95132812 181.5159375 337.90265625 182.296875 338.8828125 C211.11626163 374.55922561 246.19155077 399.32601288 292.765625 404.58984375 C315.53074534 406.66120499 338.51692394 405.10581135 360.4921875 398.76953125 C364.57372548 397.87413817 367.82931804 397.7257276 372 398 C375.44150865 400.43773529 376.762119 401.85817119 377.625 406 C376.76651734 410.12071675 375.2584296 411.34467305 372 414 C368.9926411 415.249908 365.92933188 415.94553644 362.75 416.625 C361.82960938 416.82955811 360.90921875 417.03411621 359.9609375 417.24487305 C336.40606639 422.24357349 311.94396356 423.90237472 288 421 C288.02094727 422.25135742 288.04189453 423.50271484 288.06347656 424.79199219 C288.13589394 429.43608145 288.18180618 434.08012083 288.21972656 438.72460938 C288.23983805 440.73446038 288.26713115 442.74425291 288.30175781 444.75390625 C288.35029634 447.64337596 288.37297322 450.53207191 288.390625 453.421875 C288.41127014 454.31992859 288.43191528 455.21798218 288.45318604 456.14324951 C288.45541745 462.35147965 288.45541745 462.35147965 286.19433594 465.57128906 C282.99180055 467.65642893 280.73782337 467.46722792 277 467 C273.8149643 465.23984869 273.16703028 464.50109084 272 461 C271.91389486 459.57281363 271.88228172 458.14193352 271.88647461 456.7121582 C271.88655014 455.85149246 271.88662567 454.99082672 271.88670349 454.1040802 C271.89186478 453.17899155 271.89702606 452.25390289 271.90234375 451.30078125 C271.90446617 449.87550362 271.90446617 449.87550362 271.90663147 448.4214325 C271.91223125 445.38508971 271.92478368 442.34882052 271.9375 439.3125 C271.94251503 437.25455836 271.94707793 435.19661556 271.95117188 433.13867188 C271.9622006 428.09241954 271.97946507 423.04622225 272 418 C270.64612183 417.72953857 270.64612183 417.72953857 269.26489258 417.45361328 C262.21917821 416.00290139 255.41592864 414.42731776 248.6875 411.875 C247.89190674 411.5756958 247.09631348 411.2763916 246.27661133 410.96801758 C232.33843818 405.55874142 219.76222529 398.19350367 208 389 C207.47519043 388.59088379 206.95038086 388.18176758 206.40966797 387.76025391 C192.55877003 376.81309009 179.70455359 364.02859918 169 350 C167.98774121 348.70383159 166.97465457 347.40830947 165.9609375 346.11328125 C157.36898528 335.07448769 149.37830072 323.69793656 141.71875 311.99609375 C141.17162354 311.16392334 140.62449707 310.33175293 140.06079102 309.47436523 C138.99470078 307.84933523 137.93506967 306.22004574 136.88256836 304.58618164 C136.40440674 303.8564917 135.92624512 303.12680176 135.43359375 302.375 C135.01134521 301.72273438 134.58909668 301.07046875 134.15405273 300.3984375 C133.77321533 299.93695313 133.39237793 299.47546875 133 299 C130.63086968 298.76483608 130.63086968 298.76483608 128.42578125 301.5625 C127.38230666 302.70313206 126.34489223 303.84932759 125.3125 305 C124.77085205 305.59506348 124.2292041 306.19012695 123.67114258 306.80322266 C120.80514802 309.96117567 117.9786084 313.15056883 115.1875 316.375 C114.12669559 317.58482217 113.06430199 318.79325356 112 320 C111.51015625 320.56847656 111.0203125 321.13695312 110.515625 321.72265625 C101.64733268 331.35924122 89.1521224 337.62691789 77 342 C76.05769531 342.3403125 75.11539063 342.680625 74.14453125 343.03125 C59.75956831 347.22443758 42.22744017 346.69380949 27.8125 343 C27.13300293 342.82919922 26.45350586 342.65839844 25.75341797 342.48242188 C17.84106983 340.13382701 11.4555906 335.97631499 4 332 C4 380.84 4 429.68 4 480 C26.37022949 479.9685791 26.37022949 479.9685791 49.19238281 479.93652344 C81.07289187 479.8936253 112.95339571 479.85591426 144.83392334 479.83062744 C145.87559591 479.8297991 145.87559591 479.8297991 146.93831237 479.82895402 C162.02940694 479.81698327 177.12050204 479.80590241 192.21159793 479.79573868 C199.61193129 479.7907492 207.01226451 479.785563 214.41259766 479.78027344 C215.14903207 479.7797504 215.88546648 479.77922737 216.64421709 479.77868848 C240.52767024 479.76163354 264.41108562 479.7315812 288.29451588 479.69481112 C312.83142058 479.65710345 337.36830435 479.63246351 361.90523753 479.62434004 C365.36841229 479.62318737 368.83158698 479.62188482 372.29476166 479.62049103 C373.3171969 479.62008649 373.3171969 479.62008649 374.3602874 479.61967378 C385.346436 479.61494113 396.33252006 479.59637339 407.31864231 479.57267186 C418.35500249 479.54915576 429.39131344 479.54044437 440.42770156 479.54599449 C446.41090885 479.5485661 452.39392616 479.54451975 458.37709999 479.5231781 C463.84849453 479.50380359 469.31957021 479.50267055 474.790979 479.51640442 C476.77623857 479.51810341 478.76151754 479.51295246 480.74673858 479.50046727 C483.43437027 479.48453975 486.12083331 479.49298839 488.80844498 479.50780869 C489.58887922 479.49730063 490.36931347 479.48679258 491.17339724 479.4759661 C494.71212679 479.52041469 496.63190172 479.71674243 499.4765718 481.90576196 C501.1175141 484.16154519 501.5678892 485.24073134 501.5625 488 C501.58441406 488.66 501.60632813 489.32 501.62890625 490 C500.6179828 493.21486216 498.80780773 494.20867 496 496 C493.05857521 496.38466109 490.49617611 496.53814817 487.55880737 496.50336456 C486.70697254 496.50917833 485.85513772 496.51499209 484.97748971 496.52098203 C482.10954562 496.53563504 479.24245025 496.52167206 476.37451172 496.50793457 C474.30310566 496.51254138 472.23170286 496.51889281 470.16030693 496.52684355 C464.45757821 496.54359009 458.75511615 496.53526626 453.05238628 496.52289867 C446.90642651 496.51387229 440.76051355 496.52780591 434.61456299 496.53881836 C423.26701863 496.55560359 411.91958336 496.55411164 400.57204169 496.54317249 C390.08966497 496.53311677 379.60731952 496.53048041 369.12493896 496.53526306 C368.4300622 496.5355686 367.73518544 496.53587414 367.01925181 496.53618894 C364.19863702 496.53743426 361.37802225 496.53870786 358.55740749 496.540028 C332.08898955 496.55226853 305.62062596 496.54116298 279.1522164 496.51964041 C255.62814119 496.50065747 232.10415258 496.50235596 208.58007812 496.52148438 C182.16058332 496.54289528 155.74113656 496.55140049 129.32163429 496.53903532 C126.50610988 496.53775242 123.69058546 496.53650106 120.87506104 496.53526306 C120.18178911 496.53494675 119.48851719 496.53463044 118.77423702 496.53430455 C108.29753727 496.5297515 97.8208722 496.53508162 87.34417725 496.54518127 C75.4336513 496.55660579 63.52322767 496.55339983 51.61270571 496.5320583 C45.53214236 496.52152324 39.4517551 496.51746791 33.37119293 496.53065491 C27.80986949 496.54253369 22.24888609 496.53609086 16.6875937 496.5147447 C14.67084728 496.51025945 12.6540724 496.51258768 10.63734412 496.52224785 C7.90487987 496.53433705 5.17359438 496.52201317 2.44119263 496.50336456 C1.65037552 496.51272923 0.85955842 496.52209389 0.04477715 496.53174233 C-3.4452578 496.48383556 -5.86633313 496.06821352 -8.98842376 494.47493315 C-11.75856481 491.06670344 -11.69183541 488.1055193 -11.62641239 483.89770508 C-11.6368638 482.65669005 -11.6368638 482.65669005 -11.64752635 481.39060402 C-11.66486286 478.59978228 -11.64635703 475.81033165 -11.62818909 473.01953125 C-11.63323088 471.00602078 -11.64045685 468.99251479 -11.64968723 466.97901917 C-11.66868863 461.43166132 -11.6563313 455.8847418 -11.6389643 450.33739471 C-11.62563534 444.3604851 -11.64101128 438.38364154 -11.65278625 432.40673828 C-11.67013543 421.36997962 -11.66474189 410.33334524 -11.6477995 399.29659653 C-11.6322457 389.10152643 -11.62637627 378.90650719 -11.6301403 368.71142578 C-11.63037711 368.03574401 -11.63061391 367.36006224 -11.63085788 366.66390526 C-11.63183277 363.92124518 -11.63285358 361.17858511 -11.63394299 358.43592507 C-11.64403108 332.69602447 -11.62574709 306.95621322 -11.59422263 281.21633363 C-11.56636096 258.33689913 -11.56139785 235.4575709 -11.57641602 212.578125 C-11.5802383 206.719808 -11.58403305 200.861491 -11.5875864 195.00317383 C-11.58802422 194.2819958 -11.58846203 193.56081777 -11.58891311 192.81778586 C-11.60014724 173.71243869 -11.5928082 154.60709937 -11.57970566 135.50175476 C-11.57831705 133.44653476 -11.57693634 131.39131475 -11.57556724 129.33609474 C-11.57465785 127.97265684 -11.57373518 126.60921895 -11.57279913 125.24578106 C-11.56599683 115.0559333 -11.56866919 104.86611621 -11.57574654 94.67626953 C-11.58370404 83.09250776 -11.57678285 71.50883631 -11.5515715 59.9250946 C-11.53904062 54.01073589 -11.53297332 48.09655554 -11.54411316 42.18218994 C-11.55410784 36.77383746 -11.54579821 31.36584171 -11.52253198 25.95753288 C-11.51734582 23.99528534 -11.51898241 22.03300618 -11.52792663 20.07077217 C-11.53903357 17.41417948 -11.52578726 14.75881172 -11.50615788 12.10229492 C-11.51523669 11.33102579 -11.52431551 10.55975666 -11.53366944 9.76511574 C-11.48351446 6.31017824 -11.25402939 4.34682797 -9.18711513 1.52485657 C-5.97989298 -0.71121856 -3.8131317 -0.5447331 0 0 Z " fill="#000000" transform="translate(11,8)"/>
<path d="M0 0 C1.43293837 -0.00015519 2.86587715 -0.00164753 4.29881287 -0.00440979 C7.29209096 -0.00578944 10.28488736 0.00669196 13.27807617 0.02954102 C17.10351291 0.05795075 20.92815177 0.05517583 24.7536478 0.0424509 C27.70919034 0.03547758 30.66455029 0.0433013 33.6200695 0.05570793 C35.03018429 0.0602046 36.44031879 0.06057491 37.85043526 0.05664253 C39.82423277 0.05371371 41.79802599 0.07245661 43.77172852 0.09204102 C44.89200943 0.097444 46.01229034 0.10284698 47.16651917 0.1084137 C51.90445836 0.69299706 55.11127213 2.02957467 58.15933228 5.76293945 C59.55925011 9.09220049 59.68948462 11.6155259 59.69677734 15.2265625 C59.7020343 15.88250397 59.70729126 16.53844543 59.71270752 17.21426392 C59.72585364 19.37095327 59.7171893 21.52689758 59.70703125 23.68359375 C59.70905355 25.18904766 59.71196629 26.69450061 59.71572876 28.19995117 C59.72014479 31.35051833 59.71374454 34.50082981 59.69970703 37.65136719 C59.6826153 41.68318536 59.69246039 45.71440436 59.71042442 49.74620056 C59.72128193 52.85352059 59.71780696 55.96069933 59.71004105 59.06802368 C59.70804446 60.55433219 59.71047926 62.04065366 59.71747971 63.52694702 C59.72512695 65.60685037 59.71344589 67.68579293 59.69677734 69.765625 C59.69439056 70.94745361 59.69200378 72.12928223 59.68954468 73.34692383 C59.25559028 76.93425236 58.59093603 78.70060551 56.30859375 81.49609375 C52.07032703 84.22188563 48.7630822 84.87607377 43.77172852 84.90014648 C42.49342667 84.91283066 41.21512482 84.92551483 39.89808655 84.93858337 C38.51538937 84.93653166 37.13269332 84.93354341 35.75 84.9296875 C34.31802626 84.93425388 32.88605471 84.9395608 31.4540863 84.9455719 C28.45912754 84.95448488 25.46443568 84.95210092 22.46948242 84.94213867 C18.6451343 84.93065262 14.82171007 84.95086287 10.99748325 84.98005581 C8.04190794 84.99846619 5.08655206 84.99811581 2.13093376 84.99241829 C0.72162518 84.99226566 -0.68769882 84.9982619 -2.09695244 85.01070976 C-16.50505058 85.12005698 -16.50505058 85.12005698 -21.69140625 80.49609375 C-25.5411591 73.6555832 -25.12733259 66.56333215 -25.08984375 58.87109375 C-25.09271393 57.56962402 -25.09558411 56.2681543 -25.09854126 54.92724609 C-25.10294217 52.1838095 -25.09660648 49.4406677 -25.08251953 46.69726562 C-25.06542847 43.20051603 -25.07528178 39.70445747 -25.09323692 36.20773315 C-25.1067534 32.8454663 -25.09725872 29.48338016 -25.08984375 26.12109375 C-25.09591644 24.87505371 -25.10198914 23.62901367 -25.10824585 22.34521484 C-25.05521621 15.75711506 -24.96206057 10.30762146 -21.69140625 4.49609375 C-15.50051937 -1.02347242 -7.8973078 -0.06975647 0 0 Z M-8.69140625 16.49609375 C-8.69140625 33.65609375 -8.69140625 50.81609375 -8.69140625 68.49609375 C8.46859375 68.49609375 25.62859375 68.49609375 43.30859375 68.49609375 C43.30859375 51.33609375 43.30859375 34.17609375 43.30859375 16.49609375 C26.14859375 16.49609375 8.98859375 16.49609375 -8.69140625 16.49609375 Z " fill="#000000" transform="translate(89.69140625,37.50390625)"/>
<path d="M0 0 C1.82965553 -0.01268921 1.82965553 -0.01268921 3.6962738 -0.02563477 C5.04495373 -0.01980207 6.39363234 -0.01365757 7.74230957 -0.00723267 C9.16496687 -0.01129849 10.58762101 -0.01664043 12.01026917 -0.02316284 C15.8718267 -0.03684114 19.73314383 -0.03153577 23.59470558 -0.02202559 C27.63540928 -0.01443162 31.67609237 -0.02147386 35.71679688 -0.02618408 C42.5025197 -0.03164241 49.28814458 -0.02444803 56.07385254 -0.01016235 C63.91966651 0.00616435 71.7652466 0.00087589 79.6110549 -0.01564157 C86.34661915 -0.02925427 93.08211299 -0.03117717 99.81768656 -0.02332556 C103.84085327 -0.01864784 107.86391005 -0.01802687 111.8870697 -0.02793503 C115.6693816 -0.03659932 119.45139188 -0.03059287 123.23367119 -0.01325226 C124.62201372 -0.00928451 126.01038162 -0.01042643 127.39871407 -0.01704025 C129.29322531 -0.02523353 131.18779199 -0.01313881 133.08227539 0 C134.14267281 0.00113108 135.20307022 0.00226215 136.29560089 0.00342751 C139.41552378 0.43243067 140.77777267 1.23064807 143.0411377 3.38095093 C143.82629395 5.24813843 143.82629395 5.24813843 144.1036377 7.25595093 C144.21836426 7.9133728 144.33309082 8.57079468 144.45129395 9.24813843 C143.94547824 11.87838012 142.91936703 13.4583783 140.98510742 15.2997551 C136.32971913 17.88898596 130.433445 17.0693026 125.24230957 17.02792358 C123.82112 17.03470211 122.39993921 17.04360657 120.97877502 17.05447388 C117.12533296 17.07724664 113.27256105 17.06843978 109.41910744 17.05257845 C105.38420446 17.03990873 101.34935839 17.05166253 97.31445312 17.05950928 C90.53883576 17.06860276 83.763491 17.056626 76.98791504 17.0328064 C69.15729472 17.00559546 61.32732533 17.01440986 53.49672079 17.04193842 C46.77042623 17.06463724 40.04432749 17.06782587 33.31800699 17.05474508 C29.30201964 17.04695472 25.28633812 17.04589727 21.27037048 17.06242752 C17.49441029 17.07688456 13.71928826 17.06682943 9.9434185 17.03795624 C8.55872934 17.03135181 7.17396948 17.0332323 5.78930855 17.04426956 C-5.98086242 17.12943205 -5.98086242 17.12943205 -9.2956543 13.97381592 C-11.0056291 11.30804363 -11.55703659 10.32554515 -11.0213623 7.25595093 C-10.92983887 6.5933728 -10.83831543 5.93079468 -10.74401855 5.24813843 C-8.71227307 0.41642529 -4.76925541 0.00508714 0 0 Z " fill="#000000" transform="translate(187.9588623046875,88.61904907226563)"/>
<path d="M0 0 C2.4375 1.5 2.4375 1.5 4 4 C4.95364737 8.92717807 4.95364737 8.92717807 4 12 C-1.78034294 18.31897067 -10.87454731 21.89303233 -18.375 25.8125 C-19.78876483 26.55618078 -21.20250121 27.29991565 -22.61621094 28.04370117 C-27.06865534 30.37958903 -31.53226795 32.6935087 -36 35 C-36.72425171 35.37415039 -37.44850342 35.74830078 -38.19470215 36.13378906 C-57.80207952 46.24775245 -77.56281829 55.67189166 -98 64 C-98.89275635 64.3727002 -99.7855127 64.74540039 -100.70532227 65.12939453 C-104.5649555 66.59374735 -106.9971099 65.96844115 -111 65 C-113.81690147 62.09773788 -113.99172712 60.4715541 -114.0625 56.4375 C-112.73416846 52.13995679 -110.79081327 51.01719336 -107 49 C-103.19093814 47.26304361 -99.3163199 45.69867773 -95.4375 44.125 C-75.38237136 35.79974844 -55.9764639 26.13915107 -36.6875 16.1875 C-35.77026657 15.71429825 -35.77026657 15.71429825 -34.83450317 15.23153687 C-29.11941084 12.27548099 -23.43132306 9.29432986 -17.87109375 6.0546875 C-17.13608643 5.62647705 -16.4010791 5.1982666 -15.64379883 4.75708008 C-14.36231632 3.99879082 -13.08883524 3.22667813 -11.8269043 2.4362793 C-7.76015785 0.00315762 -4.69855295 -0.4590866 0 0 Z " fill="#000000" transform="translate(508,349)"/>
<path d="M0 0 C1.4813443 -0.01073296 1.4813443 -0.01073296 2.99261475 -0.02168274 C6.25336116 -0.03857583 9.51273397 -0.01916265 12.7734375 0.00219727 C15.04117954 0.00136863 17.30892153 -0.00109055 19.57666016 -0.00511169 C24.32798352 -0.00797013 29.0788356 0.00673664 33.83007812 0.03417969 C39.92011815 0.06826194 46.00931539 0.06224435 52.09939575 0.04351711 C56.78172834 0.03294813 61.46386485 0.04188415 66.1461792 0.05690193 C68.39165668 0.06208491 70.63715462 0.06160056 72.88262939 0.05535698 C76.0211591 0.04990621 79.15848271 0.07027669 82.296875 0.09765625 C83.22481873 0.09113037 84.15276245 0.08460449 85.10882568 0.07788086 C89.26206938 0.13948281 91.58594706 0.29863683 95.22509766 2.44960022 C97.1484375 4.63110352 97.1484375 4.63110352 97.7734375 8.06860352 C96.96928662 12.65226351 95.85502025 13.84206525 92.1484375 16.63110352 C88.85748218 17.35343455 85.63928112 17.29425711 82.28100586 17.24633789 C81.2918367 17.2518869 80.30266754 17.25743591 79.28352356 17.26315308 C76.01794813 17.27495198 72.75375936 17.25067233 69.48828125 17.22485352 C67.21814538 17.22314256 64.94800753 17.22320794 62.6778717 17.22497559 C57.92234372 17.22332224 53.16728708 17.2046195 48.41186523 17.1730957 C42.3128554 17.1333959 36.21446239 17.12905306 30.11534786 17.13655853 C25.4287805 17.13962613 20.7423521 17.12751548 16.05581856 17.11042786 C13.80672642 17.10339164 11.55761853 17.10027407 9.30851555 17.10112 C6.16754486 17.0993247 3.02731705 17.07796589 -0.11352539 17.05102539 C-1.51083389 17.0554213 -1.51083389 17.0554213 -2.93637085 17.05990601 C-9.22421204 16.97658515 -9.22421204 16.97658515 -12.41111755 15.22155762 C-14.09528832 13.36199588 -14.5720383 12.23216601 -14.9140625 9.75610352 C-15.02878906 9.09868164 -15.14351562 8.44125977 -15.26171875 7.76391602 C-13.72777244 -0.2126048 -6.47930916 -0.08164005 0 0 Z " fill="#000000" transform="translate(191.8515625,54.368896484375)"/>
<path d="M0 0 C1.99301736 1.58066894 2.86543351 2.73086702 4 5 C4.10518455 6.57659121 4.14871392 8.15750155 4.16113281 9.73754883 C4.17074036 10.72229691 4.1803479 11.70704498 4.19024658 12.72163391 C4.19449646 13.78931503 4.19874634 14.85699615 4.203125 15.95703125 C4.20882507 17.05214523 4.21452515 18.14725922 4.22039795 19.27555847 C4.22985713 21.59653759 4.23638556 23.91753019 4.24023438 26.23852539 C4.24993172 29.7875112 4.28094371 33.33591603 4.3125 36.88476562 C4.31903073 39.13801739 4.32428093 41.3912733 4.328125 43.64453125 C4.3404718 44.70613968 4.3528186 45.76774811 4.36553955 46.86152649 C4.33751346 56.14601496 4.33751346 56.14601496 1 60 C-1.85324437 61.42662219 -3.83454549 61.31033868 -7 61 C-9.66210938 59.72070312 -9.66210938 59.72070312 -12 57 C-12.75163734 53.05874283 -12.65200152 49.15728503 -12.59375 45.15625 C-12.59379028 43.9950061 -12.59383057 42.83376221 -12.59387207 41.6373291 C-12.58851195 39.18280626 -12.57090857 36.72828414 -12.54199219 34.27392578 C-12.50015706 30.51411564 -12.50092154 26.75609724 -12.5078125 22.99609375 C-12.49731962 20.6119667 -12.48438099 18.2278489 -12.46875 15.84375 C-12.46854858 14.71763306 -12.46834717 13.59151611 -12.46813965 12.43127441 C-12.45222778 11.38338745 -12.43631592 10.33550049 -12.41992188 9.25585938 C-12.41150269 8.33526733 -12.4030835 7.41467529 -12.39440918 6.46618652 C-11.92227308 3.5139842 -11.05670246 2.14677482 -9 0 C-5.45026831 -1.1832439 -3.60040463 -0.90010116 0 0 Z " fill="#000000" transform="translate(444,307)"/>
<path d="M0 0 C2.72156639 2.83431609 3.37679777 4.82198353 3.38818359 8.70507812 C3.40236832 10.0967218 3.40236832 10.0967218 3.4168396 11.51647949 C3.41076691 12.51135376 3.40469421 13.50622803 3.3984375 14.53125 C3.40130768 15.55931763 3.40417786 16.58738525 3.40713501 17.64660645 C3.40917505 19.81860912 3.40364943 21.9906302 3.39111328 24.16259766 C3.37505928 27.48772248 3.39096454 30.81163175 3.41015625 34.13671875 C3.40817381 36.24739852 3.40433011 38.35807753 3.3984375 40.46875 C3.40754654 41.9610614 3.40754654 41.9610614 3.4168396 43.48352051 C3.40738312 44.41128296 3.39792664 45.33904541 3.38818359 46.29492188 C3.38579681 47.10892456 3.38341003 47.92292725 3.38095093 48.76159668 C2.90112174 51.58099199 1.9639017 52.94090402 0 55 C-3.375 56 -3.375 56 -7 56 C-9.80189446 54.23358828 -11.51524911 52.96950178 -13 50 C-13.09940576 48.57115712 -13.13829029 47.13784601 -13.14526367 45.70556641 C-13.15164352 44.8176944 -13.15802338 43.92982239 -13.16459656 43.01504517 C-13.16570938 42.05359589 -13.1668222 41.09214661 -13.16796875 40.1015625 C-13.17129715 39.11505707 -13.17462555 38.12855164 -13.17805481 37.1121521 C-13.18312385 35.02236396 -13.18546314 32.93256772 -13.18530273 30.84277344 C-13.18748631 27.64504638 -13.20563432 24.44766584 -13.22460938 21.25 C-13.22754387 19.22135535 -13.22952829 17.19270906 -13.23046875 15.1640625 C-13.23765427 14.20666168 -13.24483978 13.24926086 -13.25224304 12.2628479 C-13.2476281 10.9215834 -13.2476281 10.9215834 -13.24291992 9.55322266 C-13.24434494 8.76871735 -13.24576996 7.98421204 -13.24723816 7.17593384 C-12.96691489 4.70881921 -12.28288005 3.11496654 -11 1 C-7.44020669 -1.76872813 -4.1946238 -1.06772242 0 0 Z " fill="#000000" transform="translate(296,335)"/>
<path d="M0 0 C2.43832488 2.15891075 3.81027174 3.8995262 4.37158203 7.15527344 C4.53009781 9.83042606 4.55426373 12.47646717 4.53125 15.15625 C4.5350769 16.13613892 4.53890381 17.11602783 4.54284668 18.12561035 C4.54556352 20.19328847 4.53821836 22.26100109 4.52148438 24.32861328 C4.50007189 27.48938794 4.5212942 30.6478896 4.546875 33.80859375 C4.54423168 35.82031751 4.53910663 37.83203985 4.53125 39.84375 C4.53934692 40.78657837 4.54744385 41.72940674 4.55578613 42.70080566 C4.49526438 46.94602964 4.37787142 49.37234241 2.15039062 53.07226562 C-0.6274444 55.56247741 -2.28193113 56 -6 56 C-10.56521739 53.86956522 -10.56521739 53.86956522 -12 51 C-12.11492615 49.47970688 -12.16942592 47.95462634 -12.19287109 46.43017578 C-12.20893402 45.48224152 -12.22499695 44.53430725 -12.24154663 43.55764771 C-12.28593695 39.22545038 -12.32704981 34.89340655 -12.35009766 30.56103516 C-12.36667402 28.2738224 -12.39398583 25.98666179 -12.43212891 23.69970703 C-12.48678927 20.4063015 -12.50875424 17.11411003 -12.5234375 13.8203125 C-12.54610687 12.79729034 -12.56877625 11.77426819 -12.59213257 10.72024536 C-12.57104746 3.66060934 -12.57104746 3.66060934 -9.68994141 0.32763672 C-5.95593197 -1.51530604 -3.94684967 -1.21993535 0 0 Z " fill="#000000" transform="translate(147,335)"/>
<path d="M0 0 C3.1850357 1.76015131 3.83296972 2.49890916 5 6 C5.10060382 7.43090466 5.14824456 8.86591395 5.16113281 10.30029297 C5.17074036 11.164841 5.1803479 12.02938904 5.19024658 12.9201355 C5.19449646 13.85141266 5.19874634 14.78268982 5.203125 15.7421875 C5.20882507 16.70271027 5.21452515 17.66323303 5.22039795 18.65286255 C5.22984458 20.68539326 5.23638059 22.71793927 5.24023438 24.75048828 C5.24994082 27.85606657 5.28096786 30.96098326 5.3125 34.06640625 C5.31903017 36.04166274 5.32428059 38.01692396 5.328125 39.9921875 C5.3404718 40.9194162 5.3528186 41.8466449 5.36553955 42.80197144 C5.34877019 47.66806883 5.24320792 51.08466044 2 55 C-1.09173752 56.54586876 -3.59429552 56.29359521 -7 56 C-9.19335938 54.65234375 -9.19335938 54.65234375 -11 52 C-11.60567593 48.41977342 -11.5601089 44.87387333 -11.53125 41.25 C-11.5350769 40.19973633 -11.53890381 39.14947266 -11.54284668 38.06738281 C-11.54556696 35.84829753 -11.53819777 33.62918026 -11.52148438 31.41015625 C-11.50007745 28.01229405 -11.52128325 24.61654639 -11.546875 21.21875 C-11.54423175 19.06249533 -11.53910682 16.90624198 -11.53125 14.75 C-11.53934692 13.73325195 -11.54744385 12.71650391 -11.55578613 11.66894531 C-11.462736 4.674429 -11.462736 4.674429 -9.18554688 1.35546875 C-5.97804375 -0.6338138 -3.69528827 -0.46191103 0 0 Z " fill="#000000" transform="translate(146,419)"/>
<path d="M0 0 C2.19335938 1.34765625 2.19335938 1.34765625 4 4 C4.60567593 7.58022658 4.5601089 11.12612667 4.53125 14.75 C4.5350769 15.80026367 4.53890381 16.85052734 4.54284668 17.93261719 C4.54556696 20.15170247 4.53819777 22.37081974 4.52148438 24.58984375 C4.50007745 27.98770595 4.52128325 31.38345361 4.546875 34.78125 C4.54423175 36.93750467 4.53910682 39.09375802 4.53125 41.25 C4.53934692 42.26674805 4.54744385 43.28349609 4.55578613 44.33105469 C4.46226046 51.36131643 4.46226046 51.36131643 2.09179688 54.63647461 C-0.14993366 56.09773337 -1.34269701 56.56769004 -4 56.5625 C-4.99 56.59537109 -4.99 56.59537109 -6 56.62890625 C-9.27986099 55.59754371 -10.20824715 53.90990577 -12 51 C-12.5814825 47.61319385 -12.53695497 44.27308855 -12.49609375 40.84375 C-12.49754898 39.86386108 -12.49900421 38.88397217 -12.50050354 37.87438965 C-12.49884666 35.8066917 -12.48730913 33.73898115 -12.46655273 31.67138672 C-12.43759948 28.510859 -12.44594842 25.35200958 -12.45898438 22.19140625 C-12.45274654 20.17967937 -12.44435525 18.16795777 -12.43359375 16.15625 C-12.43652939 15.21342163 -12.43946503 14.27059326 -12.44248962 13.29919434 C-12.37248888 8.41831675 -12.25188235 4.92312651 -9 1 C-5.90826248 -0.54586876 -3.40570448 -0.29359521 0 0 Z " fill="#000000" transform="translate(295,250)"/>
<path d="M0 0 C2.86619017 2.02822039 4.71106643 3.62593273 5.45361328 7.15722656 C5.62950884 9.83657819 5.64043657 12.47148549 5.59375 15.15625 C5.59379028 16.13613892 5.59383057 17.11602783 5.59387207 18.12561035 C5.58852058 20.19334339 5.5709538 22.26107616 5.54199219 24.32861328 C5.50014246 27.48924075 5.50092503 30.64773593 5.5078125 33.80859375 C5.49731929 35.82032727 5.48438048 37.83204983 5.46875 39.84375 C5.46854858 40.78657837 5.46834717 41.72940674 5.46813965 42.70080566 C5.38040995 47.57702201 5.24472922 51.08011292 2 55 C-1.09173752 56.54586876 -3.59429552 56.29359521 -7 56 C-9.19335938 54.65234375 -9.19335938 54.65234375 -11 52 C-11.60567593 48.41977342 -11.5601089 44.87387333 -11.53125 41.25 C-11.5350769 40.19973633 -11.53890381 39.14947266 -11.54284668 38.06738281 C-11.54556696 35.84829753 -11.53819777 33.62918026 -11.52148438 31.41015625 C-11.50007745 28.01229405 -11.52128325 24.61654639 -11.546875 21.21875 C-11.54423175 19.06249533 -11.53910682 16.90624198 -11.53125 14.75 C-11.53934692 13.73325195 -11.54744385 12.71650391 -11.55578613 11.66894531 C-11.46268937 4.67092444 -11.46268937 4.67092444 -9.18164062 1.36328125 C-5.90472116 -0.68442671 -3.78141932 -0.59706621 0 0 Z " fill="#000000" transform="translate(443,419)"/>
</svg>
