<?xml version="1.0" encoding="UTF-8"?>
<svg version="1.1" xmlns="http://www.w3.org/2000/svg" width="512" height="512">
<path d="M0 0 C5.27992721 3.09252879 8.16335377 7.37179269 10.078125 13.10546875 C11.77136718 20.82064481 8.81118706 27.58375266 6.00708008 34.65649414 C-8.8277274 72.97422295 -6.16038448 116.57196743 9.68798828 154.0715332 C16.57680944 169.64409819 25.43622939 185.18622939 37.5625 197.3125 C42.10584103 196.89904187 46.33049741 195.01423118 50.56640625 193.40625 C51.32670639 193.12148804 52.08700653 192.83672607 52.87034607 192.54333496 C55.28993095 191.63664861 57.7075866 190.7249586 60.125 189.8125 C62.54619031 188.90061376 64.96778732 187.98985777 67.3903656 187.08166504 C68.89485689 186.51746459 70.3985266 185.95106717 71.90126038 185.38220215 C82.32450683 181.46801021 94.57454471 180.36714717 105.26171875 184.2109375 C115.58290326 189.15248934 124.67439785 197.34397197 128.5625 208.3125 C128.81418077 209.88981886 129.01483603 211.47612028 129.1640625 213.06640625 C129.24221191 213.86506104 129.32036133 214.66371582 129.40087891 215.48657227 C129.45421387 216.08912842 129.50754883 216.69168457 129.5625 217.3125 C130.53372803 217.29155273 131.50495605 217.27060547 132.50561523 217.24902344 C136.19767807 217.17521845 139.88967998 217.13020471 143.58227539 217.09277344 C145.16376801 217.07297084 146.7451907 217.04592109 148.32641602 217.01074219 C162.65169455 216.70061199 177.04610196 217.99864918 189.875 225 C190.52106201 225.33668701 191.16712402 225.67337402 191.83276367 226.02026367 C199.41989325 230.10434563 206.51460931 235.15982723 212.5625 241.3125 C219.83663187 239.41490038 226.25697957 236.73187914 232.875 233.1875 C233.78854248 232.70539063 234.70208496 232.22328125 235.64331055 231.7265625 C240.95063362 228.8752305 245.98993416 225.83625097 250.875 222.3125 C257.86881382 217.29637132 263.28889117 214.41489135 272.1015625 215.67578125 C277.72516654 217.13077722 281.45856302 219.89719618 285 224.4375 C288.3620448 230.62366242 288.73222497 236.60882696 287.03222656 243.44482422 C277.7128054 274.95302505 259.74673978 304.12826022 236.5625 327.3125 C236.45164993 330.22112179 236.40085256 333.10999993 236.38671875 336.01953125 C236.36351736 337.82097519 236.33939989 339.62240751 236.31445312 341.42382812 C236.27933755 344.27457396 236.2500005 347.12489433 236.23657227 349.97583008 C236.22110291 352.72009337 236.18089491 355.46309962 236.13671875 358.20703125 C236.13862717 359.05820023 236.14053558 359.9093692 236.14250183 360.78633118 C236.02006664 366.70580183 236.02006664 366.70580183 233.65161133 369.84619141 C231.40270894 371.42465439 230.28436454 371.88031614 227.5625 371.875 C226.9025 371.89691406 226.2425 371.91882813 225.5625 371.94140625 C222.38658761 370.94273068 221.35612029 369.05904213 219.5625 366.3125 C219.07043457 362.9269104 219.07043457 362.9269104 219.08007812 359.00634766 C219.07616562 358.28844055 219.07225311 357.57053345 219.06822205 356.83087158 C219.06225983 355.27640279 219.06539406 353.72187802 219.0766449 352.16743851 C219.0939882 349.69257134 219.08635156 347.21886459 219.0723877 344.74398804 C219.0428078 338.58984187 219.0558267 332.43591889 219.06756592 326.28173828 C219.07584311 321.08989897 219.06751072 315.89856694 219.03843689 310.70679855 C219.03144703 308.29455889 219.0478958 305.88326482 219.06555176 303.47109985 C219.06197887 283.85783757 213.29035884 266.77697565 199.5625 252.3125 C184.3874806 237.72804819 166.6101375 233.93173751 146.3125 233.625 C144.77731628 233.59173931 143.24215884 233.55724197 141.70703125 233.52148438 C137.99238088 233.43760038 134.27765825 233.37032969 130.5625 233.3125 C130.57360306 234.05308151 130.58470612 234.79366302 130.59614563 235.5566864 C130.69644258 242.54515679 130.77251306 249.53351923 130.82156086 256.52252483 C130.84762544 260.1155086 130.88296329 263.70789636 130.93969727 267.30053711 C130.99413335 270.76948186 131.02394416 274.23785439 131.03688622 277.70719337 C131.05058449 279.67101051 131.08960018 281.63459825 131.12898254 283.59806824 C131.1321074 293.53450082 131.1321074 293.53450082 128.25463867 296.62817383 C124.71253335 298.84427835 122.66727694 298.98419077 118.5625 298.3125 C116.37780762 296.72511292 116.37780762 296.72511292 114.5625 294.3125 C114.07043457 291.05821228 114.07043457 291.05821228 114.08007812 287.14819336 C114.07616562 286.43376068 114.07225311 285.719328 114.06822205 284.98324585 C114.06225251 283.43420734 114.06540734 281.88511269 114.0766449 280.33610344 C114.09394209 277.87501294 114.08637796 275.4150939 114.0723877 272.95399475 C114.0427643 266.83653572 114.05586333 260.71930051 114.06756592 254.60180664 C114.07581508 249.43902532 114.06762926 244.27675544 114.03843689 239.1140461 C114.03140683 236.7060615 114.0479453 234.29900905 114.06555176 231.89109802 C114.06503409 222.75835267 113.9413365 213.3193169 107.61999512 206.09141541 C101.37121156 200.13714095 95.516042 198.90879666 87.06591797 198.94897461 C80.48327639 199.63200968 74.56232218 202.30115258 68.5 204.8125 C66.5450574 205.60257543 64.58794114 206.38677949 62.62879944 207.16638184 C60.87319726 207.86794557 59.12377098 208.58490654 57.37475586 209.30273438 C54.5625 210.3125 54.5625 210.3125 51.5625 210.3125 C54.22588152 213.05659005 56.8732264 215.56912817 59.875 217.9375 C71.03485944 227.46836035 76.87615565 240.9856625 78.5625 255.3125 C78.93577594 262.2822045 78.82270369 269.27303119 78.80200195 276.25 C78.80311615 278.36495532 78.80517602 280.47991031 78.80810547 282.59486389 C78.81280989 287.13024628 78.81172647 291.66557681 78.80632973 296.20095825 C78.79870093 303.36895462 78.80939466 310.53685169 78.8235321 317.70483398 C78.86122459 338.08073352 78.87942534 358.45658666 78.86791992 378.83251953 C78.86171443 390.10025431 78.87322144 401.36782781 78.90436524 412.63552284 C78.92306174 419.76588509 78.91966275 426.89579192 78.90019763 434.02614689 C78.89333924 438.45022817 78.9072253 442.87405962 78.92714691 447.2980938 C78.93221342 449.35446323 78.92866009 451.41087398 78.91601372 453.46721077 C78.90001559 456.26660419 78.91444785 459.06421406 78.9367218 461.86352539 C78.9246843 462.68383743 78.91264681 463.50414948 78.90024453 464.34931946 C78.88439071 466.86844826 78.88439071 466.86844826 79.5625 470.3125 C83.51998429 473.74859909 87.46634776 473.73986181 92.50390625 473.67578125 C93.26742905 473.67627975 94.03095184 473.67677826 94.81761169 473.67729187 C96.43222659 473.67495702 98.04684551 473.66526323 99.66137695 473.64868164 C102.09295514 473.62530803 104.52341767 473.62809813 106.95507812 473.63476562 C123.61701204 473.60530948 138.05042094 471.89400121 151 460.4375 C157.30314523 453.99397291 162.66636695 443.42540565 162.70053101 434.29652405 C162.70871101 433.11271904 162.70871101 433.11271904 162.71705627 431.90499878 C162.7180986 431.04826569 162.71914093 430.19153259 162.72021484 429.30883789 C162.72529556 428.39944962 162.73037628 427.49006134 162.73561096 426.55311584 C162.74630324 424.58008344 162.75492789 422.60703899 162.76173019 420.63398933 C162.77352811 417.51117252 162.79298234 414.38849343 162.81484985 411.26573181 C162.87644342 402.3875689 162.93054633 393.50942117 162.96386719 384.63110352 C162.98480151 379.19935012 163.02009192 373.7678497 163.06462479 368.33624077 C163.07879145 366.2666261 163.08750872 364.19696671 163.09067917 362.12730598 C163.09558297 359.23311971 163.11872648 356.33960637 163.14599609 353.44555664 C163.14298996 352.59084778 163.13998383 351.73613892 163.1368866 350.85552979 C163.20210415 346.19909117 163.52999676 343.08980271 166.5625 339.3125 C169.65423752 337.76663124 172.15679552 338.01890479 175.5625 338.3125 C178.50977303 340.47448823 179.45703623 341.65767719 180.04351807 345.2991333 C180.03463562 346.46273376 180.02575317 347.62633423 180.01660156 348.82519531 C180.01718567 349.46951508 180.01776978 350.11383484 180.01837158 350.77767944 C180.01559334 352.89921677 179.98451774 355.01933436 179.953125 357.140625 C179.94566159 358.61463656 179.93996912 360.08865806 179.93597412 361.56268311 C179.9207254 365.43615267 179.88145107 369.30901916 179.8371582 373.18225098 C179.79618852 377.13704267 179.77795954 381.09193212 179.7578125 385.046875 C179.71495528 392.80235782 179.64671422 400.5573443 179.5625 408.3125 C182.12313875 408.19292318 184.68245261 408.06247695 187.2421875 407.92578125 C188.32246216 407.87701843 188.32246216 407.87701843 189.42456055 407.82727051 C195.15540077 407.50816319 199.60461742 406.28295551 204.5625 403.3125 C206.109375 402.4771875 206.109375 402.4771875 207.6875 401.625 C210.42693932 399.42153794 212.01827396 397.4458534 214.0625 394.625 C217.17080983 390.46917607 217.17080983 390.46917607 220.6875 389.0625 C224.12331407 389.36126644 225.85050806 390.20317294 228.5625 392.3125 C230.62034882 395.39927323 231.00851737 396.62969865 230.34765625 400.22265625 C226.80570428 409.65023985 217.64962717 416.44385386 208.84375 420.59375 C203.65274115 422.73122423 198.89034797 424.45055606 193.234375 424.41015625 C192.43515625 424.40693359 191.6359375 424.40371094 190.8125 424.40039062 C189.9875 424.39201172 189.1625 424.38363281 188.3125 424.375 C187.47203125 424.37048828 186.6315625 424.36597656 185.765625 424.36132812 C183.69788599 424.34957961 181.63018376 424.33164522 179.5625 424.3125 C179.60890625 425.30507813 179.6553125 426.29765625 179.703125 427.3203125 C180.24334067 443.8924038 175.88131244 459.11547397 164.40625 471.59765625 C150.62167418 484.41847995 136.85816092 489.61064856 118.3359375 489.6484375 C117.18888336 489.6550943 116.04182922 489.6617511 114.86001587 489.66860962 C112.4480346 489.67868648 110.03602573 489.68342819 107.62402344 489.68310547 C103.9415926 489.68749512 100.26034561 489.72391462 96.578125 489.76171875 C94.22656657 489.76758468 91.87500249 489.77155557 89.5234375 489.7734375 C88.42848969 489.78780853 87.33354187 489.80217957 86.20541382 489.81698608 C78.73830163 489.77244309 74.23824368 488.71237651 68.63671875 483.53125 C68.17910156 482.9640625 67.72148437 482.396875 67.25 481.8125 C66.77949219 481.2453125 66.30898437 480.678125 65.82421875 480.09375 C62.54904259 475.46997189 62.28389408 471.65123787 62.33544922 466.05566406 C62.33515717 465.22602646 62.33486511 464.39638885 62.33456421 463.54161072 C62.3359558 460.80367518 62.35150896 458.06601291 62.3671875 455.328125 C62.37091824 453.42812244 62.37376492 451.52811796 62.37576294 449.62811279 C62.38339461 444.63037798 62.40303915 439.63275964 62.4251709 434.6350708 C62.44563933 429.53407364 62.45476679 424.43305765 62.46484375 419.33203125 C62.48628543 409.32546969 62.52041581 399.31899454 62.5625 389.3125 C61.26267685 389.11130051 59.9628537 388.91010101 58.62364197 388.70280457 C56.89873859 388.43371568 55.17385026 388.16453028 53.44897461 387.89526367 C52.59457542 387.76327324 51.74017624 387.63128281 50.85988617 387.49529266 C44.52898363 386.50415276 38.31801268 385.28458823 32.125 383.625 C31.16529297 383.3686377 30.20558594 383.11227539 29.21679688 382.84814453 C-12.94805253 371.16734166 -51.73519059 344.97946377 -78.4375 310.3125 C-79.06108398 309.51948486 -79.06108398 309.51948486 -79.69726562 308.71044922 C-92.89184985 291.86536336 -102.72494324 273.22862741 -110.4375 253.3125 C-110.69611816 252.64589355 -110.95473633 251.97928711 -111.22119141 251.29248047 C-114.2196873 243.38168777 -116.26886865 235.28845936 -118.1875 227.0625 C-118.50412598 225.71393921 -118.50412598 225.71393921 -118.82714844 224.33813477 C-122.50434988 207.85261877 -122.50434988 207.85261877 -120.125 202.1875 C-117.92040393 199.73794881 -116.91559735 199.36562193 -113.625 199 C-109.60918301 199.39370755 -108.29509336 200.50848833 -105.4375 203.3125 C-104.44604492 206.0637207 -104.44604492 206.0637207 -103.91796875 209.23828125 C-103.70479004 210.41624268 -103.49161133 211.5942041 -103.27197266 212.80786133 C-103.05847168 214.06751709 -102.8449707 215.32717285 -102.625 216.625 C-98.96637394 236.02874157 -92.97005857 253.98954011 -83.4375 271.3125 C-82.95845215 272.20606201 -82.95845215 272.20606201 -82.46972656 273.11767578 C-58.10038064 318.52877673 -15.83583189 350.94963614 33.04161072 366.24029541 C39.35362763 368.09486925 45.68959654 369.3619208 52.16796875 370.484375 C53.17355835 370.66274902 54.17914795 370.84112305 55.21520996 371.02490234 C57.66356011 371.45854772 60.11260847 371.8876654 62.5625 372.3125 C62.4784132 357.49098195 62.38321188 342.66956957 62.27497292 327.84820747 C62.22496549 320.96555909 62.17852181 314.08292191 62.140625 307.20019531 C62.10402103 300.55412249 62.05727764 293.90817005 62.00443649 287.26220322 C61.98594871 284.73060189 61.97082019 282.19897366 61.95915604 279.6673317 C61.94219747 276.11288918 61.91313901 272.55873117 61.88134766 269.00439453 C61.87918747 267.96501236 61.87702728 266.92563019 61.87480164 265.85475159 C61.73084066 253.1992376 59.49724179 242.08526166 50.4375 232.75 C47.21958408 229.70172709 43.85496262 226.92944404 40.375 224.1875 C6.58428617 196.96588998 -14.52745001 153.19541243 -19.6875 110.625 C-22.85965914 80.70096545 -19.22258965 50.10891445 -7.44140625 22.32421875 C-6.44760122 19.34280367 -6.24850489 18.16186697 -7.4375 15.3125 C-14.37052167 14.63426962 -19.10763919 19.42640443 -24.4375 23.3125 C-24.97503906 23.7029248 -25.51257813 24.09334961 -26.06640625 24.49560547 C-34.36245802 30.57521208 -41.99794841 37.21921809 -49.4375 44.3125 C-50.21738281 45.03953125 -50.99726562 45.7665625 -51.80078125 46.515625 C-85.05705634 78.4132956 -104.417344 126.2422531 -106.03125 171.90234375 C-106.53852628 174.91185786 -107.68080823 176.83677018 -109.4375 179.3125 C-112.52923752 180.85836876 -115.03179552 180.60609521 -118.4375 180.3125 C-121.39444223 178.15530015 -122.32781515 176.93431629 -122.96875 173.30078125 C-122.53875002 122.7220336 -100.62968765 73.15566482 -65.89697266 36.83935547 C-64.91241573 35.80934225 -63.9330186 34.77437541 -62.95849609 33.73486328 C-49.67241613 19.5977177 -21.27717604 -9.91868357 0 0 Z M263.21484375 233.05859375 C261.96478137 233.93923923 260.72704552 234.83755729 259.5 235.75 C258.15533087 236.6951103 256.80895758 237.63780038 255.4609375 238.578125 C254.79803711 239.04669922 254.13513672 239.51527344 253.45214844 239.99804688 C244.13081157 246.48203624 233.98746777 250.95994366 223.5625 255.3125 C224.6237738 258.03931355 225.74499495 260.71053217 226.96484375 263.37109375 C232.87787542 276.38578178 234.9853019 289.10148473 235.5625 303.3125 C251.36874293 288.19588372 270.39160876 257.43705693 271.75 235.25 C271.688125 234.610625 271.62625 233.97125 271.5625 233.3125 C267.97862758 231.08873096 267.0411103 231.06286312 263.21484375 233.05859375 Z " fill="#000000" transform="translate(173.4375,22.6875)"/>
<path d="M0 0 C0.77916779 -0.00619858 1.55833557 -0.01239716 2.3611145 -0.01878357 C4.0068436 -0.02587554 5.65264453 -0.02271846 7.29833984 -0.01000977 C9.80571997 0.00382573 12.30934307 -0.0301795 14.81640625 -0.06835938 C16.41927174 -0.06931097 18.02214187 -0.06744958 19.625 -0.0625 C20.74091019 -0.08238731 20.74091019 -0.08238731 21.87936401 -0.10267639 C25.7614285 -0.03389563 28.36675406 0.50648478 31.38720703 2.87915039 C34.00640103 5.63057894 35.1011531 7.45551902 35.30908203 11.28881836 C33.92975141 19.92490919 26.4832729 28.64379672 21.8203125 35.87890625 C20.90958984 37.30299805 20.90958984 37.30299805 19.98046875 38.75585938 C17.01226449 43.38923269 14.01874345 48.00213193 10.9453125 52.56640625 C11.59081055 52.57051514 12.23630859 52.57462402 12.90136719 52.57885742 C15.83360578 52.61180688 18.76377007 52.6824499 21.6953125 52.75390625 C22.71109375 52.75970703 23.726875 52.76550781 24.7734375 52.77148438 C32.27823854 52.99366598 32.27823854 52.99366598 35.65234375 55.890625 C37.42188038 59.552657 37.02096803 61.69404634 35.9453125 65.56640625 C34.36645284 67.62578841 33.25388827 68.41211836 30.9453125 69.56640625 C28.52298957 69.68926287 26.13049194 69.75472956 23.70703125 69.76953125 C22.63035942 69.77808136 22.63035942 69.77808136 21.53193665 69.7868042 C20.01129633 69.79625577 18.49063551 69.80278881 16.9699707 69.80664062 C14.65213861 69.8163255 12.33520125 69.84733705 10.01757812 69.87890625 C8.53906776 69.88543862 7.06055105 69.89068817 5.58203125 69.89453125 C4.89227707 69.90687805 4.20252289 69.91922485 3.49186707 69.9319458 C-1.88231935 69.90727895 -4.98444003 68.49387803 -8.8671875 64.87890625 C-10.62942239 61.44718568 -10.65629247 58.29843017 -10.0546875 54.56640625 C-8.62880929 51.19452045 -6.72388302 48.19987011 -4.7421875 45.12890625 C-4.2069043 44.26942383 -3.67162109 43.40994141 -3.12011719 42.52441406 C-1.45158331 39.85848295 0.24311777 37.21094851 1.9453125 34.56640625 C2.48913574 33.71481934 3.03295898 32.86323242 3.59326172 31.98583984 C6.67796053 27.15757465 9.79582233 22.35263934 12.9453125 17.56640625 C12.07579956 17.5523877 12.07579956 17.5523877 11.1887207 17.53808594 C8.54424304 17.48416555 5.90149357 17.40056496 3.2578125 17.31640625 C2.34580078 17.30222656 1.43378906 17.28804687 0.49414062 17.2734375 C-3.75144909 17.11905242 -6.43239344 16.92602342 -10.1640625 14.76953125 C-12.16207611 12.44126746 -12.71728204 11.58101815 -12.6171875 8.56640625 C-12.61847656 7.90640625 -12.61976563 7.24640625 -12.62109375 6.56640625 C-10.81782816 0.19901326 -5.74341552 -0.03808426 0 0 Z " fill="#000000" transform="translate(310.0546875,113.43359375)"/>
<path d="M0 0 C1.14113754 -0.00642769 1.14113754 -0.00642769 2.30532837 -0.01298523 C3.91415411 -0.01872522 5.52300581 -0.01923121 7.13183594 -0.01489258 C9.58574083 -0.01173908 12.03843223 -0.03517169 14.4921875 -0.06054688 C16.05729015 -0.06282066 17.62239603 -0.063523 19.1875 -0.0625 C20.28304703 -0.07631462 20.28304703 -0.07631462 21.40072632 -0.09040833 C25.85682509 -0.05022085 28.69931574 0.5342416 32.2265625 3.30078125 C34.95629461 7.39537942 34.99385858 10.49125996 34.2265625 15.30078125 C32.82626003 18.71817756 30.92721309 21.71296893 28.9140625 24.80078125 C28.3787793 25.65575195 27.84349609 26.51072266 27.29199219 27.39160156 C25.62454786 30.04208413 23.92870034 32.67247298 22.2265625 35.30078125 C21.14398058 36.99313745 20.06193264 38.68583538 18.98046875 40.37890625 C16.420978 44.36967238 13.83267046 48.34031797 11.2265625 52.30078125 C12.14937012 52.3147998 12.14937012 52.3147998 13.09082031 52.32910156 C15.88687336 52.3828921 18.6812687 52.46651944 21.4765625 52.55078125 C22.44464844 52.56496094 23.41273438 52.57914063 24.41015625 52.59375 C31.59294519 52.84143238 31.59294519 52.84143238 34.83984375 55.1953125 C36.50160463 57.71838043 37.15256975 59.26707867 37.2265625 62.30078125 C35.60500621 65.78712726 34.46202958 67.14380319 31.2265625 69.30078125 C28.68320499 69.52027472 26.25188349 69.62873464 23.70703125 69.63671875 C22.60274529 69.64670395 22.60274529 69.64670395 21.47615051 69.65689087 C19.91861465 69.66701056 18.3610355 69.6717081 16.8034668 69.67138672 C14.43269327 69.67574698 12.06380192 69.71203347 9.69335938 69.75 C8.17708967 69.75587115 6.66081116 69.75983855 5.14453125 69.76171875 C4.44120163 69.77608978 3.73787201 69.79046082 3.01322937 69.80526733 C-2.03017634 69.75898818 -4.8919657 68.46958575 -8.7734375 65.30078125 C-10.54152759 61.76460107 -10.32667532 58.15926038 -9.7734375 54.30078125 C-8.38008949 50.88068023 -6.47391391 47.88832643 -4.4609375 44.80078125 C-3.9256543 43.94581055 -3.39037109 43.09083984 -2.83886719 42.20996094 C-1.17142286 39.55947837 0.52442466 36.92908952 2.2265625 34.30078125 C3.30914442 32.60842505 4.39119236 30.91572712 5.47265625 29.22265625 C8.032147 25.23189012 10.62045454 21.26124453 13.2265625 17.30078125 C12.30375488 17.2867627 12.30375488 17.2867627 11.36230469 17.27246094 C8.56625164 17.2186704 5.7718563 17.13504306 2.9765625 17.05078125 C2.00847656 17.03660156 1.04039062 17.02242187 0.04296875 17.0078125 C-7.1388257 16.76016442 -7.1388257 16.76016442 -10.390625 14.40625 C-12.03299313 11.90558215 -12.62736244 10.29531998 -12.7734375 7.30078125 C-10.79528438 0.21239924 -6.60950048 -0.0082024 0 0 Z " fill="#000000" transform="translate(398.7734375,49.69921875)"/>
<path d="M0 0 C0.80515045 -0.00524185 1.6103009 -0.0104837 2.43984985 -0.0158844 C4.14283089 -0.0223058 5.84585627 -0.02096603 7.54882812 -0.01245117 C10.14794521 -0.00395891 12.74485112 -0.03266909 15.34375 -0.06445312 C16.99999934 -0.06606576 18.65625256 -0.06548641 20.3125 -0.0625 C21.08661224 -0.07373398 21.86072449 -0.08496796 22.65829468 -0.09654236 C26.40969207 -0.04838123 28.56973185 0.29270891 31.75634766 2.33959961 C34.46157814 5.1263834 34.74416181 6.03126578 35.18359375 9.96875 C35.1001325 15.50086051 32.40283616 19.33635035 29.4765625 23.87109375 C28.9412793 24.73057617 28.40599609 25.59005859 27.85449219 26.47558594 C26.18595831 29.14151705 24.49125723 31.78905149 22.7890625 34.43359375 C22.24523926 35.28518066 21.70141602 36.13676758 21.14111328 37.01416016 C18.05641447 41.84242535 14.93855267 46.64736066 11.7890625 51.43359375 C13.75939453 51.48966797 13.75939453 51.48966797 15.76953125 51.546875 C17.50523614 51.61255032 19.24091197 51.67899712 20.9765625 51.74609375 C21.84087891 51.76865234 22.70519531 51.79121094 23.59570312 51.81445312 C28.41250353 52.01746004 31.89926957 52.27654738 35.7890625 55.43359375 C37.33493126 58.52533127 37.08265771 61.02788927 36.7890625 64.43359375 C35.28881836 66.62475586 35.28881836 66.62475586 32.7890625 68.43359375 C29.89041491 68.84361155 27.37835068 69.01859395 24.48046875 69 C23.67673325 69.00619858 22.87299774 69.01239716 22.04490662 69.01878357 C20.34790252 69.02587574 18.65082876 69.02271815 16.95385742 69.01000977 C14.36311132 68.99615551 11.77598726 69.03020312 9.18554688 69.06835938 C7.53385329 69.06931076 5.88215519 69.06745071 4.23046875 69.0625 C3.45949356 69.07575821 2.68851837 69.08901642 1.8941803 69.10267639 C-2.16951225 69.03266656 -3.98431594 68.61811912 -7.17602539 66.01928711 C-9.90820062 62.5476053 -10.2156485 62.03012468 -10.1796875 57.4765625 C-9.39749943 51.28217755 -6.15522668 46.81771831 -2.7109375 41.74609375 C-2.08106934 40.78944824 -1.45120117 39.83280273 -0.80224609 38.84716797 C0.46023144 36.9307174 1.72916451 35.01850206 3.00488281 33.11083984 C5.43969195 29.45729345 7.80334478 25.76022664 10.1640625 22.05859375 C11.37184411 20.18323831 12.57992568 18.3080757 13.7890625 16.43359375 C13.14356445 16.42948486 12.49806641 16.42537598 11.83300781 16.42114258 C8.90076922 16.38819312 5.97060493 16.3175501 3.0390625 16.24609375 C2.02328125 16.24029297 1.0075 16.23449219 -0.0390625 16.22851562 C-7.54386354 16.00633402 -7.54386354 16.00633402 -10.91796875 13.109375 C-12.68750538 9.447343 -12.28659303 7.30595366 -11.2109375 3.43359375 C-8.63908137 -0.70888447 -4.3727466 -0.01649634 0 0 Z " fill="#000000" transform="translate(267.2109375,-0.43359375)"/>
</svg>
