<?xml version="1.0" encoding="UTF-8"?>
<svg version="1.1" xmlns="http://www.w3.org/2000/svg" width="512" height="512">
<path d="M0 0 C1.17127441 0.36206543 1.17127441 0.36206543 2.36621094 0.73144531 C18.1506397 5.75692423 32.52838441 12.99688522 45 24 C45.81726563 24.69738281 46.63453125 25.39476563 47.4765625 26.11328125 C53.83261333 31.65268778 59.44354923 37.67510391 65 44 C69.66891816 42.47099756 74.24871906 40.77625442 78.828125 39 C101.68302145 31.79451541 126.0806624 35.18695281 147.13671875 45.84765625 C152.29391565 48.61147178 156.66216826 52.09828779 161 56 C161.96808594 56.77472656 162.93617188 57.54945313 163.93359375 58.34765625 C180.56038026 72.19325392 187.72937226 93.32836255 191 114 C192.258125 114.21914062 193.51625 114.43828125 194.8125 114.6640625 C228.62076118 120.81192491 258.42619223 138.01962143 279 166 C294.47621938 188.46095379 302.45504624 213.19695465 302.375 240.5 C302.37418427 241.5511499 302.37418427 241.5511499 302.37335205 242.62353516 C302.25007863 277.29788237 288.78788693 307.78967662 264.484375 332.53417969 C240.59058138 356.12930089 208.91370448 368.47296129 175.5 368.375 C174.7992334 368.37445618 174.0984668 368.37391235 173.37646484 368.37335205 C143.90531159 368.2685769 118.44747982 358.7103305 95 341 C94.57332031 341.3403125 94.14664062 341.680625 93.70703125 342.03125 C68.00881428 361.9539914 39.34068865 369.25338231 7.14648438 365.68359375 C2.27519177 364.88144645 -2.32475189 363.57220733 -7 362 C-8.1034375 361.649375 -9.206875 361.29875 -10.34375 360.9375 C-19.4240981 357.7637861 -31.09845269 352.90154731 -38 346 C-42.45448949 346.27937565 -45.45424063 348.35092876 -49.125 350.75 C-72.30736284 365.42019102 -100.32037992 369.80904346 -127.3125 364.875 C-129.55819543 364.31227354 -131.78905845 363.68669243 -134 363 C-134.93827637 362.70996094 -134.93827637 362.70996094 -135.89550781 362.4140625 C-164.07395454 353.44126963 -185.70954556 334.74152114 -199.72265625 308.8125 C-211.19495759 285.33976068 -214.75436056 255.13860495 -206.69335938 229.98828125 C-204.53195362 223.79022193 -201.9607547 217.85606954 -199 212 C-198.46503906 210.94167969 -197.93007812 209.88335937 -197.37890625 208.79296875 C-188.50396013 192.55415847 -171.8317749 172.90092221 -153.58984375 167.25390625 C-153.06519531 167.17011719 -152.54054687 167.08632812 -152 167 C-152.32613281 166.175 -152.65226562 165.35 -152.98828125 164.5 C-161.72627252 141.40489623 -163.88984535 112.97555055 -157 89 C-156.6596875 87.77410156 -156.319375 86.54820312 -155.96875 85.28515625 C-146.18657625 53.26175637 -124.03438156 25.72791878 -94.625 9.6875 C-86.72563957 5.57359407 -78.52680544 2.53309163 -70 0 C-69.31083496 -0.21172852 -68.62166992 -0.42345703 -67.91162109 -0.64160156 C-46.92829658 -6.83597713 -20.84723708 -6.55038691 0 0 Z M-95 48 C-95.81855469 48.68835938 -96.63710937 49.37671875 -97.48046875 50.0859375 C-115.09319166 65.27391338 -127.4674326 87.50719131 -129.22143555 110.9609375 C-129.93456419 130.302081 -127.81625779 146.04262901 -119.5859375 163.51171875 C-116.70131835 169.85645988 -115.34599417 174.22978968 -117 181 C-118.73158314 185.4817446 -121.26592731 187.00171292 -125.5703125 188.98046875 C-127.30763309 189.70947305 -129.05352576 190.41818223 -130.8046875 191.11328125 C-150.33635529 198.90058256 -164.92908522 212.09950703 -173.5234375 231.42578125 C-179.99138478 247.63303642 -182.83641691 268.37456088 -176 285 C-172.24495278 293.6094557 -168.11097224 301.80853701 -162 309 C-160.88625 310.485 -160.88625 310.485 -159.75 312 C-151.94138341 321.0570161 -141.70644621 326.18701042 -131 331 C-130.20980469 331.36222656 -129.41960937 331.72445313 -128.60546875 332.09765625 C-112.19220479 338.53994329 -91.88925717 336.75823072 -76 330 C-67.57240912 326.19235352 -61.11363953 321.59393747 -54.41796875 315.24609375 C-49.93498325 311.08176958 -46.25332827 308.81971904 -40 308.5 C-33.20325363 308.81875815 -29.34048979 311.49411356 -24.75 316.3125 C-12.69291014 328.88093965 5.46741652 335.03856759 22.51953125 335.99609375 C42.89472251 336.01896153 61.91730547 328.81719447 77 315 C78.27561496 313.58518103 79.52757057 312.14851763 80.75 310.6875 C83.96643501 306.87126359 86.82235001 304.44755634 91.94140625 303.7265625 C97.98113824 303.42858711 102.07719471 305.2955664 106.6484375 309.34765625 C107.54820312 310.24355469 108.44796875 311.13945312 109.375 312.0625 C123.18672944 325.15074749 141.90698398 334.89856742 161 337 C162.63195312 337.19722656 162.63195312 337.19722656 164.296875 337.3984375 C189.00567971 339.7442101 214.01119631 333.30176706 233.625 317.8125 C235.0900205 316.54938148 236.54922017 315.27944964 238 314 C238.58394531 313.55785156 239.16789062 313.11570312 239.76953125 312.66015625 C257.22111486 299.21385412 267.30723988 276.15745849 271 255 C272.85573745 225.89179822 267.24001939 200.61081019 248 178 C247.46890625 177.32324219 246.9378125 176.64648438 246.390625 175.94921875 C231.25288167 157.25185756 207.50408171 147.44069448 184.19335938 144.79052734 C181.98196686 144.55961504 179.76828566 144.34943938 177.55273438 144.16259766 C171.73227689 143.61451988 167.44743921 143.14952462 163 139 C159.27954648 133.7929382 159.6104056 128.52514227 159.5625 122.375 C159.33325897 113.96005887 158.62246885 106.72384037 155 99 C154.65066406 98.22011719 154.30132812 97.44023437 153.94140625 96.63671875 C147.93543669 84.60399772 137.31140982 75.18739178 125 70 C124.33226562 69.69964844 123.66453125 69.39929688 122.9765625 69.08984375 C111.70113149 64.8368303 96.6263072 65.36197712 85.5390625 69.796875 C80.13655169 72.35683397 75.18875403 75.02689326 70.5 78.75 C66.57894704 81.61817763 62.80645015 82.24801967 58 82 C51.57763948 80.5605054 49.45061543 77.31875765 45.93359375 71.9453125 C31.17170071 49.45951986 10.78808105 34.11229039 -15.68505859 28.19946289 C-43.17793381 22.53514845 -73.69855341 29.14561225 -95 48 Z " fill="#000000" transform="translate(210,74)"/>
<path d="M0 0 C15.29637991 12.43190468 25.78616566 29.85233001 28.10644531 49.57470703 C29.84974445 70.30059673 24.82951745 88.43469142 12.16894531 105.01220703 C-0.56727245 119.98284897 -18.26917986 130.03114501 -38.00097656 131.75927734 C-58.92537756 133.05655287 -77.6114557 127.30910468 -93.68652344 113.63330078 C-108.5900863 99.73210144 -117.52418942 81.50361057 -118.29858398 61.0390625 C-118.58868055 40.69740374 -111.86355735 22.55203437 -97.89355469 7.57470703 C-71.8044301 -18.79850966 -29.72064887 -22.37095772 0 0 Z M-79.89355469 26.57470703 C-89.20882088 37.71873714 -92.86299944 50.19167219 -91.89355469 64.57470703 C-89.56452062 78.07210133 -83.11041302 89.13866856 -72.14355469 97.32470703 C-61.39055932 104.51525966 -48.78437102 107.28141039 -36.01855469 105.07861328 C-22.4214399 101.6600205 -12.24284247 94.94578808 -4.43261719 83.26611328 C1.92229226 72.15308635 4.0543126 59.42032043 0.91894531 46.94970703 C-3.25290796 33.46394877 -10.55789712 23.62876956 -22.89355469 16.57470703 C-42.51808386 7.88196257 -64.78686886 10.46300261 -79.89355469 26.57470703 Z " fill="#000000" transform="translate(259.8935546875,216.42529296875)"/>
<path d="M0 0 C7.68553767 5.53924203 12.79919343 12.6909386 15.17578125 21.8984375 C18.06419074 40.63183619 5.24357385 55.78669574 -5.0390625 69.99609375 C-6.16091931 71.51924717 -7.28459803 73.04107306 -8.4140625 74.55859375 C-6.55201172 74.61466797 -6.55201172 74.61466797 -4.65234375 74.671875 C-3.01038739 74.73755325 -1.36846163 74.80399995 0.2734375 74.87109375 C1.49836914 74.90493164 1.49836914 74.90493164 2.74804688 74.93945312 C7.47393218 75.14991765 10.74469009 75.5248813 14.5859375 78.55859375 C17.32119077 81.81132737 18.49398508 83.82297441 19.0234375 88.05859375 C18.42942702 92.81067761 17.17169964 96.12149681 13.5859375 99.37109375 C10.4222209 101.24955048 7.82805338 101.68784965 4.22558594 101.71972656 C2.90841583 101.73413788 2.90841583 101.73413788 1.56463623 101.74884033 C0.6177594 101.75309021 -0.32911743 101.75734009 -1.3046875 101.76171875 C-2.28266296 101.76741882 -3.26063843 101.7731189 -4.26824951 101.7789917 C-6.33946654 101.78844064 -8.4106986 101.79497526 -10.48193359 101.79882812 C-13.63796539 101.80851366 -16.79334035 101.83953003 -19.94921875 101.87109375 C-21.96353781 101.87762607 -23.97786152 101.88287564 -25.9921875 101.88671875 C-27.40035736 101.90523895 -27.40035736 101.90523895 -28.8369751 101.9241333 C-34.47669191 101.90513147 -38.43781979 101.27747156 -43.4140625 98.55859375 C-46.50792455 95.3060721 -47.75530665 92.39448171 -48.2265625 87.99609375 C-47.88212384 80.54066344 -42.80552075 75.1984241 -38.4140625 69.55859375 C-36.44711037 66.96089755 -34.49428066 64.35262891 -32.5390625 61.74609375 C-32.03665039 61.07932617 -31.53423828 60.41255859 -31.01660156 59.72558594 C-18.64821497 44.90234027 -18.64821497 44.90234027 -11.4140625 27.55859375 C-12.01019728 25.30863434 -12.01019728 25.30863434 -13.4140625 23.55859375 C-17.27315355 22.64644496 -19.63009558 22.29727144 -23.4140625 23.55859375 C-24.2558525 25.52965502 -24.2558525 25.52965502 -24.7890625 27.87109375 C-26.07864468 32.16287784 -27.50376263 34.15225537 -31.4140625 36.55859375 C-34.60493501 38.15403 -37.94176492 37.93921099 -41.4140625 37.55859375 C-44.62230497 36.06141393 -47.14338364 34.28340839 -49.4140625 31.55859375 C-51.64687357 24.86016055 -50.51513134 19.31169715 -47.72265625 13.01171875 C-42.84873674 3.8749383 -35.16705042 -0.99543492 -25.37109375 -4.0859375 C-16.60492525 -5.67819565 -7.67634442 -4.58344837 0 0 Z " fill="#000000" transform="translate(359.4140625,256.44140625)"/>
</svg>
